<svg width="145" height="54" viewBox="0 0 145 54" fill="none" xmlns="http://www.w3.org/2000/svg">
  <path
    d="M57.812 13.5H63.592V36.643H69.374V7.714H63.593C60.413 7.714 57.812 10.318 57.812 13.5ZM75.155 36.643H80.936V25.071C80.936 21.889 78.335 19.286 75.156 19.286L75.155 36.643ZM86.718 19.286V36.643H92.498V25.071H98.28V30.857C98.28 34.039 100.882 36.643 104.061 36.643V25.071C104.061 21.889 101.46 19.286 98.28 19.286H86.718ZM138.748 19.286H132.967V13.5C132.967 10.318 130.366 7.714 127.186 7.714V30.857H115.624V25.072H121.405V19.286H115.624C112.444 19.286 109.842 21.889 109.842 25.071V30.857C109.842 34.039 112.444 36.643 115.624 36.643H132.967V25.071H138.748V30.857C138.748 34.039 141.35 36.643 144.529 36.643V25.071C144.529 21.889 141.928 19.286 138.748 19.286ZM75.155 13.5H80.936C80.936 10.318 78.335 7.714 75.156 7.714L75.155 13.5Z"
    fill="white"/>
  <path fill-rule="evenodd" clip-rule="evenodd"
        d="M66.8253 42.429V46.169H66.2953L64.2153 43.577V46.168H63.5933V42.428H64.1233L66.2033 45.031V42.429H66.8253ZM78.5853 46.169H76.3423V42.429H78.5313V43.043H77.0073V43.973H78.3693V44.587H77.0073V45.554H78.5853V46.169ZM88.1023 43.043H89.3293V46.168H89.9943V43.043H91.2203V42.429H88.1023V43.043ZM105.369 42.429H106.007L104.926 46.169H104.304L103.391 43.465L102.494 46.168H101.867L100.737 42.428H101.483L102.245 45.095L103.088 42.429H103.748L104.612 45.099L105.369 42.429ZM116.075 42.984C115.708 43.354 115.524 43.812 115.524 44.357C115.524 44.931 115.71 45.395 116.081 45.752C116.452 46.108 116.922 46.286 117.491 46.286C118.057 46.286 118.527 46.104 118.902 45.741C119.277 45.378 119.464 44.916 119.464 44.357C119.464 43.787 119.277 43.323 118.902 42.963C118.531 42.607 118.061 42.429 117.491 42.429C116.922 42.429 116.45 42.614 116.075 42.984ZM116.589 45.298C116.347 45.048 116.227 44.735 116.227 44.358C116.227 43.973 116.346 43.658 116.583 43.412C116.701 43.2911 116.842 43.1958 116.999 43.1323C117.155 43.0688 117.323 43.0384 117.491 43.043C117.848 43.043 118.149 43.166 118.394 43.412C118.639 43.662 118.762 43.976 118.762 44.357C118.762 44.735 118.646 45.048 118.416 45.297C118.189 45.547 117.881 45.672 117.491 45.672C117.131 45.672 116.83 45.547 116.589 45.298ZM129.646 44.779V46.179H128.981V42.439C129.168 42.439 129.372 42.438 129.592 42.434C129.811 42.431 129.992 42.429 130.132 42.429C131.047 42.429 131.505 42.813 131.505 43.583C131.505 43.868 131.431 44.103 131.283 44.288C131.152 44.4547 130.976 44.5806 130.775 44.651L131.959 46.179H131.154L130.111 44.779H129.646ZM130.1 43.043C130.082 43.043 130.053 43.045 130.013 43.048C129.974 43.048 129.918 43.05 129.846 43.054H129.646V44.165H130.078C130.264 44.1735 130.447 44.1188 130.597 44.01C130.663 43.9618 130.717 43.8981 130.752 43.8245C130.788 43.751 130.805 43.6697 130.802 43.588C130.802 43.225 130.568 43.043 130.1 43.043ZM141.476 46.168H142.14V44.24L143.686 46.168H144.529L142.875 44.17L144.432 42.429H143.632L142.14 44.202V42.43H141.476V46.17V46.168Z"
        fill="#2F7AEA"/>
  <path
    d="M13.4188 29.462L14.7668 19.294L3.0498 11.152L13.7568 14.78L16.2868 10.9L25.5168 5.162L45.8778 16.384L46.9318 33.512L37.8688 46.126L30.7028 47.223L34.4128 40.43V33.891L31.7148 28.787L28.9748 26.973L24.7588 31.318V35.916L21.4708 38.996L17.2978 39.502L15.4428 40.557L12.4078 39.587L11.1428 35.03L13.4198 31.824V29.462H13.4188Z"
    fill="white"/>
  <path
    d="M32.1348 11.068C29.9008 10.604 27.4548 10.73 27.4548 10.73C27.4548 10.73 26.6548 14.443 21.6808 15.413C21.7228 15.413 28.2568 17.649 32.1348 11.068ZM34.1578 44.733C36.8558 42.624 38.8798 39.713 39.8078 36.423C39.8488 36.296 40.2278 36.085 40.4818 35.916C40.9028 35.663 41.3248 35.452 41.4088 35.115C41.5778 34.145 41.6618 33.132 41.6618 32.119C41.6618 31.739 41.2818 31.36 40.9028 30.98C40.6078 30.727 40.3128 30.432 40.3128 30.221C39.8908 26.381 38.1208 22.796 35.2968 20.181L35.0018 20.476C37.7418 23.049 39.5118 26.551 39.8918 30.263C39.9338 30.601 40.2708 30.938 40.6078 31.276C40.9028 31.529 41.2398 31.909 41.2398 32.077C41.2398 33.047 41.1558 34.017 40.9868 34.988C40.9448 35.157 40.5658 35.326 40.2708 35.494C39.8488 35.705 39.4698 35.916 39.3858 36.254C38.3622 39.8373 36.0889 42.9355 32.9778 44.987C33.5258 43.805 35.2538 39.967 36.1818 38.026L36.0128 31.782L30.6598 26.592L27.6248 27.015L24.2948 32.415C24.2948 32.415 25.8538 34.398 23.6618 36.718C21.5118 38.996 19.8258 39.502 19.8258 39.502L18.2658 38.658C18.7298 38.068 19.6568 37.182 20.3738 36.591C21.5958 35.579 22.8188 35.494 22.8188 34.398C22.8608 32.119 20.4158 32.752 20.4158 32.752L19.5308 33.596L19.1508 36.718L17.2968 39.038L17.0858 38.996L14.0508 38.321C14.0508 38.321 15.9058 37.351 16.2008 36.254C16.4958 35.199 15.6108 31.698 15.5678 31.487C15.6108 31.529 16.4538 32.246 16.8328 33.427C17.5068 31.571 18.3928 29.799 18.6458 29.63C18.8978 29.462 22.3128 27.648 22.3128 27.648L21.1748 30.643L22.0178 30.179L24.0408 25.201C24.0408 25.201 26.0228 24.231 27.4978 24.231C30.1538 24.188 34.0738 20.94 32.3038 15.118C32.8088 15.328 41.5778 19.716 43.0948 28.323C44.2328 34.946 40.4818 41.148 34.1578 44.733Z"
    fill="#94A6C3"/>
  <path
    d="M24.1261 11.996C25.0961 10.857 24.7161 9.169 24.7161 9.169L21.8921 13.346C21.8491 13.346 22.9031 13.388 24.1261 11.996ZM14.6411 34.82L14.9781 33.132C14.9781 33.132 13.5881 35.579 13.4611 35.916C13.3341 36.296 13.5451 36.971 14.0931 36.929C14.6411 36.887 15.3161 36.085 15.3161 35.495C15.3161 34.735 14.6411 34.82 14.6411 34.82Z"
    fill="#0A192B"/>
  <path
    d="M39.68 7.988C39.68 7.988 41.788 8.073 43.98 8.326C39.049 4.445 34.37 3.306 30.576 3.306C25.348 3.306 21.807 5.457 21.596 5.584L23.241 2.968C23.241 2.968 16.665 2.335 14.346 9.296C13.756 7.82 13.208 5.668 13.208 5.668C13.208 5.668 9.79303 8.663 11.395 13.641C7.47503 12.207 1.86802 10.224 1.65802 10.182C1.36202 10.14 1.27802 10.266 1.27802 10.266C1.27802 10.266 1.19402 10.393 1.44702 10.604C1.91002 10.984 10.763 17.523 12.702 18.788C12.28 20.307 12.28 21.024 12.702 21.741C13.292 22.711 13.334 23.218 13.25 23.935C13.166 24.652 12.407 30.854 12.238 31.613C12.07 32.373 10.299 35.073 10.384 35.874C10.468 36.676 11.564 40.093 12.534 40.473C13.25 40.726 15.02 41.274 16.201 41.274C16.622 41.274 17.001 41.19 17.171 41.021C17.887 40.388 18.098 40.261 18.604 40.261H18.73C18.94 40.261 19.194 40.304 19.489 40.304C20.163 40.304 21.049 40.177 21.681 39.587C22.608 38.659 24.211 37.393 24.716 36.802C25.348 36.001 25.686 34.904 25.516 33.807C25.391 32.794 25.939 31.909 26.571 31.023C27.371 29.968 28.847 28.07 28.847 28.07C31.756 30.263 33.568 33.596 33.568 37.309C33.568 43.889 27.835 49.205 20.754 49.205C19.657 49.205 18.604 49.079 17.55 48.825C20.796 49.965 23.536 50.345 25.77 50.345C30.533 50.345 33.063 48.615 33.063 48.615C33.063 48.615 32.177 49.754 30.744 51.062H30.786C38.669 49.965 42.506 43.468 42.506 43.468C42.506 43.468 42.21 45.578 41.831 47.012C52.327 39.122 50.557 29.251 50.514 28.913C50.599 29.04 51.653 30.305 52.201 30.98C53.887 13.6 39.68 7.988 39.68 7.988ZM23.536 35.748C23.367 35.958 22.65 36.591 22.145 37.055C21.639 37.52 21.091 37.984 20.669 38.405C20.501 38.575 20.163 38.659 19.657 38.659H18.392C19.025 37.815 20.88 35.874 21.512 35.452C22.271 34.946 22.65 34.44 22.187 33.554C21.723 32.668 20.501 32.879 20.501 32.879C20.501 32.879 21.217 32.584 21.849 32.584C21.049 32.373 20.037 32.584 19.573 33.048C19.067 33.512 19.152 35.157 18.941 36.212C18.731 37.309 18.013 37.857 16.917 38.869C16.327 39.418 15.906 39.587 15.568 39.587C14.8384 39.4591 14.1197 39.2755 13.418 39.038C12.998 38.49 12.365 36.676 12.196 35.916C12.323 35.495 12.828 34.609 13.081 34.102C13.587 33.132 13.882 32.584 13.967 32.077C14.135 31.36 14.683 26.93 14.894 25.074C15.442 25.791 16.201 26.973 16.032 27.732C17.255 26.002 16.369 24.315 15.948 23.64C15.568 22.965 15.063 21.615 15.484 20.18C15.906 18.746 17.424 14.78 17.424 14.78C17.424 14.78 17.929 15.666 18.646 15.498C19.362 15.328 25.137 6.638 25.137 6.638C25.137 6.638 26.697 10.055 25.053 12.544C23.367 15.034 21.723 15.498 21.723 15.498C21.723 15.498 24.042 15.919 26.191 14.358C27.077 16.426 27.92 18.578 27.961 18.873C27.835 19.168 26.149 23.218 25.981 23.471C25.896 23.555 25.306 23.724 24.885 23.809C24.168 24.019 23.746 24.146 23.578 24.273C23.283 24.526 21.934 28.238 21.302 30.053C20.542 30.263 19.784 30.685 19.236 31.529C19.531 31.318 20.458 31.191 21.133 31.107C21.723 31.065 23.536 32.035 23.999 33.849V33.934C24.084 34.609 23.873 35.241 23.536 35.748ZM19.573 36.254C19.953 35.705 19.91 34.777 19.953 34.482C19.995 34.187 20.079 33.638 20.416 33.554C20.753 33.469 21.554 33.596 21.554 34.187C21.554 34.735 20.964 34.862 20.543 35.241C20.248 35.537 19.657 36.169 19.573 36.254ZM36.393 28.196C36.814 26.044 36.856 24.188 36.73 22.669C38.374 24.863 39.386 27.521 39.68 30.263C39.723 30.601 40.06 30.938 40.397 31.276C40.693 31.529 41.03 31.866 41.03 32.077C41.03 33.047 40.945 34.017 40.777 34.988C40.735 35.115 40.355 35.326 40.06 35.495C39.639 35.705 39.26 35.916 39.175 36.254C38.2423 39.4949 36.2915 42.3495 33.611 44.396C37.531 40.304 39.428 33.554 36.393 28.196ZM33.737 44.776C36.477 42.666 38.585 39.713 39.512 36.38C39.554 36.254 39.934 36.043 40.187 35.874C40.608 35.664 41.03 35.41 41.114 35.073C41.283 34.103 41.367 33.09 41.367 32.077C41.367 31.697 40.987 31.317 40.608 30.938C40.398 30.685 40.06 30.39 40.06 30.178C39.7158 27.1116 38.5181 24.2034 36.603 21.784C35.76 16.721 32.388 15.16 32.303 15.118C32.388 15.245 34.58 18.408 33.063 22.121C31.503 25.876 27.498 25.285 27.161 25.327C26.824 25.327 25.517 27.015 23.873 30.137C23.663 30.052 22.777 29.841 21.765 30.01C22.524 27.9 23.662 24.905 23.873 24.652C23.957 24.568 24.589 24.399 25.011 24.272C25.812 24.062 26.191 23.935 26.318 23.766C26.402 23.64 26.824 22.67 27.245 21.657C27.625 21.657 28.595 21.573 28.678 21.53C28.763 21.446 29.564 19.379 29.564 19.126C29.564 18.915 27.92 14.823 27.287 13.262C27.583 12.924 27.877 12.502 28.173 12.038C36.814 12.966 43.559 20.307 43.559 29.208C43.559 36.043 39.554 41.991 33.737 44.776Z"
    fill="#0A192B"/>
  <path
    d="M22.5242 21.994C23.3242 21.066 22.9042 19.337 21.4282 19.041C21.8082 18.155 22.3552 16.384 22.3552 16.384C22.3552 16.384 18.0552 23.134 17.6762 23.26C17.2962 23.387 16.9172 21.91 16.9172 21.91C16.1172 24.99 18.2672 25.412 18.5192 24.441C19.6992 24.146 21.7232 22.881 22.5242 21.994Z"
    fill="#0A192B"/>
  <path
    d="M18.8569 23.64L21.0489 19.885C21.0489 19.885 22.3129 20.518 21.6809 21.531C20.8809 22.711 18.8569 23.64 18.8569 23.64Z"
    fill="#FFD923"/>
  <path
    d="M45.9621 41.021C45.3291 41.865 44.6121 42.751 43.7701 43.595C49.2081 33.132 44.0231 23.555 43.8121 23.175C44.1921 23.555 44.5711 23.977 44.9081 24.357C49.0811 28.997 49.5871 35.959 45.9621 41.021ZM51.0201 27.563C49.1231 22.459 46.4251 18.113 40.4821 14.19C34.7491 10.393 28.5941 10.688 28.2571 10.73H28.1721C28.3831 10.646 28.5941 10.604 28.8051 10.562C30.1121 10.14 31.7981 9.802 33.4841 9.592C37.9521 8.959 42.4631 10.477 45.5401 13.726L45.6241 13.81C49.1241 17.523 50.9361 22.163 51.0201 27.563ZM39.1331 6.68C32.8521 5.5 28.8051 6.09 25.8961 7.187C25.8121 6.849 25.5161 6.174 25.2641 5.626C24.3791 6.681 23.4511 7.946 22.8611 8.748C21.2591 9.845 20.5851 10.899 20.5851 10.899C21.5121 7.735 24.2101 5.373 27.4981 4.782C28.4251 4.613 29.4381 4.529 30.5331 4.529C33.4421 4.571 36.3501 5.289 39.1331 6.681V6.68ZM15.9061 14.78C10.9731 14.612 12.6171 8.874 12.7021 8.537C12.7021 8.579 13.0391 13.051 15.9061 14.781V14.78ZM20.7531 4.445C16.9591 6.723 17.7181 12.165 17.7181 12.165C14.0931 6.638 20.4581 4.571 20.7531 4.445Z"
    fill="#D82122"/>
  <path
    d="M14.5141 16.3C14.7671 16.51 15.0201 16.89 14.7251 17.438C14.5571 17.734 14.3041 17.691 13.9251 17.523C13.4181 17.27 10.3831 15.498 7.64307 13.683C10.7631 14.781 13.9241 15.962 14.4301 16.215L14.5151 16.299L14.5141 16.3Z"
    fill="white"/>
</svg>
