<svg version="1.1" xmlns="http://www.w3.org/2000/svg" width="4019" height="1024" viewBox="0 0 4019 1024">
<title>Arbitrum</title>
<path fill="#213147" d="M36.729 311.568v400.867c0 24.572 14.294 49.145 34.851 61.351l347.706 200.433c22.484 12.206 49.145 12.206 71.629 0l347.706-200.433c22.484-12.206 34.851-36.779 34.851-61.351v-400.867c0-24.572-14.294-49.145-34.851-61.351l-347.867-200.433c-22.484-12.206-49.145-12.206-71.629 0l-347.706 200.433c-22.484 12.206-34.691 36.779-34.691 61.351z" />
<path fill="#12aaff" d="M531.709 589.733l-49.145 135.068c-2.088 4.015-2.088 8.19 0 12.206l85.923 233.196 98.128-57.335-118.686-323.134c-1.927-8.19-12.206-8.19-16.221 0z" />
<path fill="#12aaff" d="M629.837 360.712c-2.088-8.19-12.206-8.19-16.382 0l-49.145 135.068c-2.088 4.015-2.088 8.19 0 12.206l139.083 382.558 98.128-57.335-171.686-472.496z" />
<path fill="#9dcced" d="M453.976 64.077c2.088 0 4.015 0 6.103 2.088l376.294 216.814c4.015 2.088 6.103 6.103 6.103 12.206v433.63c0 4.015-2.088 10.278-6.103 12.206l-376.294 216.814c-2.088 2.088-4.015 2.088-6.103 2.088s-4.015 0-6.103-2.088l-376.294-216.814c-4.015-2.088-6.103-6.103-6.103-12.206v-433.63c0-4.015 2.088-10.278 6.103-12.206l376.294-216.814c1.927-2.088 4.015-2.088 6.103-2.088v0zM453.976 0.64c-14.294 0-26.66 4.015-38.866 10.278l-376.294 216.814c-24.572 14.294-38.866 38.866-38.866 67.453v433.63c0 26.66 14.294 53.159 38.866 67.453l376.294 216.814c12.206 6.103 24.572 10.278 38.866 10.278s26.66-4.015 38.866-10.278l376.294-216.814c24.572-14.294 38.866-38.866 38.866-67.453v-433.63c0-26.66-14.294-53.159-38.866-67.453l-374.366-216.814c-12.206-6.103-24.572-10.278-38.866-10.278v0h-1.927z" />
<path fill="#213147" d="M206.486 890.383l34.691-94.114 69.541 57.335-65.366 61.351z" />
<path fill="#fff" d="M423.301 264.511h-96.201c-6.103 0-14.294 4.015-16.382 10.278l-204.448 560.346 98.128 57.335 225.006-615.755c2.088-6.103-2.088-12.206-8.19-12.206h2.088z" />
<path fill="#fff" d="M588.883 264.511h-96.201c-6.103 0-14.294 4.015-16.382 10.278l-233.035 638.079 98.128 57.335 253.593-695.414c2.088-6.103-2.088-12.206-8.19-12.206l2.088 1.927z" />
<path fill="#fff" d="M1313.046 381.109c10.278 0 18.47 2.088 24.572 6.103s12.206 12.206 18.47 22.484l124.788 225.006c2.088 2.088 2.088 4.015 0 6.103 0 2.088-2.088 2.088-6.103 2.088h-47.057c-4.015 0-6.103-2.088-8.19-4.015l-26.821-49.145h-175.861l-26.66 49.145c-2.088 4.015-4.015 4.015-8.19 4.015h-49.145c-4.015 0-6.103 0-6.103-2.088s0-4.015 0-6.103l122.701-225.006c6.103-12.206 12.206-18.47 18.47-22.484s12.206-6.103 20.397-6.103h24.733zM1239.328 546.852h128.804l-59.263-110.495c-2.088-2.088-2.088-2.088-4.015-2.088h-2.088c-2.088 0-4.015 0-4.015 2.088l-59.423 110.495z" />
<path fill="#fff" d="M1752.778 381.109c28.587 0 49.145 6.103 61.351 20.397 12.206 12.206 18.47 32.763 18.47 57.335v20.397c0 22.484-4.015 38.866-12.206 51.072s-22.484 20.397-42.881 24.572l63.439 79.82c2.088 2.088 2.088 4.015 2.088 6.103s-2.088 4.015-6.103 4.015h-49.145c-4.015 0-6.103 0-6.103-2.088-2.088 0-2.088-2.088-4.015-4.015l-59.263-77.732h-120.613v75.644c0 6.103-2.088 8.19-8.19 8.19h-40.954c-6.103 0-8.19-2.088-8.19-8.19v-243.315c0-8.19 4.015-12.206 12.206-12.206h200.112zM1597.314 516.016h143.097c12.206 0 22.484-2.088 26.66-8.19 6.103-6.103 8.19-14.294 8.19-24.572v-16.382c0-12.206-2.088-20.397-8.19-24.572-6.103-6.103-14.294-8.19-26.66-8.19h-139.083c-4.015 0-4.015 2.088-4.015 4.015v77.892z" />
<path fill="#fff" d="M2147.541 381.109c26.66 0 44.969 6.103 55.247 16.382s16.382 26.66 16.382 47.057v18.47c0 20.397-8.19 36.779-24.572 47.057 16.382 10.278 26.66 26.66 26.66 49.145v22.484c0 10.278-2.088 18.47-4.015 26.66s-6.103 14.294-10.278 20.397c-6.103 6.103-12.206 10.278-20.397 12.206-8.19 2.088-18.47 4.015-30.675 4.015h-222.918c-8.19 0-12.206-4.015-12.206-12.206v-239.299c0-8.19 4.015-12.206 12.206-12.206h214.567zM1977.784 489.517h153.377c12.206 0 20.397-2.088 24.572-6.103s6.103-8.19 6.103-16.382v-12.206c0-8.19-2.088-14.294-6.103-16.382-4.015-4.015-12.206-6.103-20.397-6.103h-153.377c-4.015 0-4.015 2.088-4.015 4.015v53.159h-0.161zM1977.784 530.471v55.247c0 4.015 2.088 4.015 4.015 4.015h153.377c10.278 0 16.382-2.088 20.397-6.103s6.103-10.278 6.103-16.382v-14.294c0-8.19-2.088-14.294-6.103-18.47s-12.206-6.103-26.66-6.103h-153.216l2.088 2.088z" />
<path fill="#fff" d="M2360.181 381.109c6.103 0 8.19 2.088 8.19 8.19v245.402c0 6.103-2.088 8.19-8.19 8.19h-40.954c-6.103 0-8.19-2.088-8.19-8.19v-245.402c0-6.103 2.088-8.19 8.19-8.19h40.954z" />
<path fill="#fff" d="M2754.945 381.109c6.103 0 8.19 2.088 8.19 8.19v36.779c0 6.103-2.088 8.19-8.19 8.19h-118.686v200.433c0 6.103-2.088 8.19-8.19 8.19h-40.954c-6.103 0-8.19-2.088-8.19-8.19v-200.433h-118.686c-6.103 0-8.19-2.088-8.19-8.19v-36.779c0-6.103 2.088-8.19 8.19-8.19h294.708z" />
<path fill="#fff" d="M3051.58 381.109c28.587 0 49.145 6.103 61.351 20.397 12.206 12.206 18.47 32.763 18.47 57.335v20.397c0 22.484-4.015 38.866-12.206 51.072s-22.484 20.397-42.881 24.572l63.439 79.82c2.088 2.088 2.088 4.015 2.088 6.103s-2.088 4.015-6.103 4.015h-49.145c-4.015 0-6.103 0-6.103-2.088-2.088 0-2.088-2.088-4.015-4.015l-59.263-77.732h-120.613v75.644c0 6.103-2.088 8.19-8.19 8.19h-40.954c-6.103 0-8.19-2.088-8.19-8.19v-243.315c0-8.19 4.015-12.206 12.206-12.206h200.112zM2896.115 516.016h143.097c12.206 0 22.484-2.088 26.66-8.19 6.103-6.103 8.19-14.294 8.19-24.572v-16.382c0-12.206-2.088-20.397-8.19-24.572-6.103-6.103-14.294-8.19-26.66-8.19h-139.083c-4.015 0-4.015 2.088-4.015 4.015v77.892z" />
<path fill="#fff" d="M3262.291 381.109c6.103 0 8.19 2.088 8.19 8.19v149.361c0 10.278 0 18.47 2.088 24.572s4.015 12.206 8.19 16.382 8.19 6.103 14.294 8.19c6.103 2.088 14.294 2.088 24.572 2.088h104.392c10.278 0 18.47 0 24.572-2.088s12.206-4.015 14.294-8.19c4.015-4.015 6.103-10.278 8.19-16.382s2.088-14.294 2.088-24.572v-149.361c0-6.103 2.088-8.19 8.19-8.19h40.954c6.103 0 8.19 2.088 8.19 8.19v155.464c0 18.47-2.088 32.763-6.103 44.969s-10.278 22.484-18.47 30.675-18.47 14.294-32.763 16.382c-14.294 4.015-28.587 6.103-49.145 6.103h-108.408c-18.47 0-34.851-2.088-49.145-6.103-12.206-4.015-24.572-10.278-32.763-16.382-8.19-8.19-14.294-18.47-18.47-30.675-4.015-12.206-6.103-28.587-6.103-44.969v-155.464c0-6.103 2.088-8.19 8.19-8.19h44.969z" />
<path fill="#fff" d="M3691.745 381.109c6.103 0 10.278 0 14.294 2.088 4.015 0 8.19 2.088 10.278 4.015 2.088 2.088 6.103 4.015 8.19 8.19 2.088 4.015 4.015 8.19 8.19 14.294l77.732 180.037c2.088 2.088 2.088 4.015 6.103 4.015h4.015c2.088 0 4.015-2.088 6.103-4.015l77.732-180.037c2.088-6.103 4.015-10.278 8.19-14.294 2.088-4.015 4.015-6.103 8.19-8.19 2.088-2.088 6.103-4.015 10.278-4.015s8.19-2.088 14.294-2.088h40.954c12.206 0 22.484 2.088 26.66 8.19 4.015 6.103 6.103 16.382 6.103 30.675v214.726c0 6.103-2.088 8.19-8.19 8.19h-38.866c-6.103 0-8.19-2.088-8.19-8.19v-196.258c0-2.088-2.088-4.015-2.088-4.015h-4.015c-2.088 0-4.015 2.088-4.015 2.088l-75.644 167.67c-2.088 6.103-6.103 12.206-10.278 16.382s-6.103 8.19-10.278 12.206c-4.015 2.088-8.19 6.103-12.206 6.103-4.015 2.088-10.278 2.088-16.382 2.088h-18.47c-6.103 0-12.206 0-16.382-2.088s-8.19-4.015-12.206-6.103-6.103-6.103-10.278-12.206c-4.015-4.015-6.103-10.278-10.278-16.382l-75.644-167.67c0-2.088-2.088-2.088-4.015-2.088h-4.015c-2.088 0-2.088 2.088-2.088 4.015v196.419c0 6.103-2.088 8.19-8.19 8.19h-39.027c-6.103 0-8.19-2.088-8.19-8.19v-214.887c0-14.294 2.088-24.572 6.103-30.675s14.294-8.19 26.66-8.19h38.866z" />
</svg>
