<svg width="118" height="37" viewBox="0 0 118 37" fill="none" xmlns="http://www.w3.org/2000/svg">
  <path
    d="M46.251 17.8861C47.1386 17.364 47.8498 16.7139 48.3674 15.9473C48.9574 15.0746 49.257 14.0777 49.257 12.9861C49.257 10.9424 48.5193 9.34718 47.0657 8.24405C45.6294 7.15372 43.6532 6.60152 41.1902 6.60152H32.2837V30.2746H41.546C44.1399 30.2746 46.2169 29.6499 47.7186 28.417C49.2324 27.1738 50.0007 25.4326 50.0007 23.2411C50.0007 21.907 49.6394 20.7591 48.9277 19.83C48.2891 18.9995 47.39 18.3462 46.2515 17.8861H46.251ZM37.1035 10.8681H40.8027C41.9629 10.8681 42.8389 11.101 43.408 11.5592C43.9701 12.0116 44.2432 12.606 44.2432 13.3757C44.2432 14.1455 43.9701 14.77 43.408 15.2243C42.8389 15.6824 41.9629 15.9153 40.8027 15.9153H37.1035V10.8681ZM44.0678 25.2056C43.4264 25.7379 42.4474 26.0072 41.1581 26.0072H37.1035V20.2139H41.1581C42.4467 20.2139 43.4271 20.4744 44.0708 20.9856C44.709 21.4956 45.0192 22.1687 45.0192 23.046C45.0192 23.9686 44.7078 24.6749 44.0678 25.2061V25.2056Z"
    fill="white"/>
  <path d="M56.5122 12.5725H51.6602V30.2736H56.5122V12.5725Z" fill="white"/>
  <path
    d="M104.434 15.2343C103.666 14.2873 102.704 13.5451 101.573 13.0274C100.444 12.5104 99.1739 12.2468 97.7998 12.2468C96.1158 12.2468 94.5968 12.6429 93.2833 13.4235C91.9669 14.2067 90.9222 15.2945 90.1773 16.6587C89.4322 18.0216 89.0547 19.6033 89.0547 21.3584C89.0547 23.1136 89.4211 24.7996 90.1432 26.1836C90.8673 27.5722 91.9081 28.6612 93.2365 29.4234C94.5622 30.1808 96.1195 30.5653 97.8648 30.5653C100.007 30.5653 101.826 30.0075 103.272 28.9063C104.664 27.8467 105.621 26.3519 106.143 24.4809H101.258C101.001 25.1175 100.639 25.6596 100.121 26.0416C99.5081 26.492 98.7166 26.7204 97.7678 26.7204C96.945 26.7204 96.24 26.5132 95.6724 26.1051C95.1022 25.6966 94.6666 25.0934 94.3806 24.3095C94.2089 23.8437 94.0872 23.3081 94.0155 22.7124H106.228L106.252 22.555C106.47 21.1275 106.415 19.7748 106.087 18.5347C105.757 17.2915 105.202 16.1813 104.434 15.2343ZM94.0927 19.435C94.1674 19.0748 94.2681 18.6998 94.396 18.3581C94.6938 17.5641 95.1236 16.953 95.6747 16.5448C96.2234 16.1365 96.9061 15.9305 97.7042 15.9305C98.7044 15.9305 99.5253 16.2664 100.144 16.9274C100.731 17.5564 101.064 18.4157 101.135 19.435H94.0932H94.0927Z"
    fill="white"/>
  <path d="M56.6113 6.60083H51.5566V10.8674H56.6113V6.60083Z" fill="white"/>
  <path
    d="M83.183 14.5804C82.6092 13.8663 81.9364 13.3128 81.1777 12.9302C80.2722 12.4765 79.2125 12.2468 78.0284 12.2468C76.5785 12.2468 75.2786 12.6173 74.1666 13.3467C73.056 14.0755 72.1749 15.1057 71.5492 16.4065C70.9258 17.7042 70.6089 19.2277 70.6089 20.9368C70.6089 22.6458 70.9419 24.0798 71.5992 25.3863C72.2577 26.6975 73.1708 27.7416 74.3125 28.4917C75.4566 29.2434 76.7613 29.6248 78.1909 29.6248C79.2701 29.6248 80.2561 29.383 81.1196 28.9049C81.8034 28.5268 82.3762 28.0264 82.8279 27.4153V29.3427C82.8279 30.5372 82.5246 31.4543 81.9284 32.0652C81.3303 32.6763 80.4211 32.9847 79.225 32.9847C78.1945 32.9847 77.384 32.7429 76.8168 32.265C76.3529 31.874 75.9477 31.3607 75.8532 30.2744H71.1754C71.2187 31.7947 71.6499 32.819 72.2584 33.7168C72.941 34.7227 73.9011 35.509 75.1143 36.0523C76.316 36.5892 77.7101 36.8615 79.2577 36.8615C81.8555 36.8615 83.9238 36.1853 85.4034 34.853C86.8922 33.5132 87.647 31.6371 87.647 29.278V12.5719H83.183V14.5804ZM82.3287 23.2883C82.021 23.9459 81.5868 24.4618 81.0362 24.8189C80.4865 25.1758 79.823 25.3577 79.0632 25.3577C77.9648 25.3577 77.1109 24.9705 76.4513 24.1732C75.794 23.3804 75.4609 22.2914 75.4609 20.9361C75.4609 19.5809 75.794 18.4919 76.4513 17.6978C77.1023 16.9114 77.9813 16.5134 79.0632 16.5134C80.1448 16.5134 81.1005 16.9172 81.7726 17.7157C82.4511 18.5207 82.7952 19.6155 82.7952 20.9675C82.7952 21.8435 82.6382 22.6234 82.3287 23.2876V23.2883Z"
    fill="white"/>
  <path
    d="M118 16.806V12.5727H114.498V6.60083H109.678V12.5727H106.687V16.806H109.678V23.7357C109.678 27.5884 110.411 30.4197 114.978 30.3321L117.845 30.2739V26.3046H116.422C114.393 26.3046 114.506 25.0788 114.506 22.8021L114.498 16.806H118H118Z"
    fill="white"/>
  <path
    d="M69.43 16.806V12.5727H65.9277V6.60083H61.108V12.5727H58.1167V16.806H61.108V23.7357C61.108 27.5884 61.8406 30.4197 66.4078 30.3321L69.2748 30.2739V26.3046H67.8522C65.8222 26.3046 65.9351 25.0788 65.9351 22.8021L65.9273 16.806H69.4293H69.43Z"
    fill="white"/>
  <path
    d="M12.0971 10.8678H19.375L26.8205 18.5301C27.3047 19.0286 27.3073 19.8393 26.8253 20.3403L17.2771 30.2798H9.77979L12.0464 27.9975L20.3684 19.4324L12.152 10.8672"
    fill="white"/>
  <path
    d="M15.0882 19.4137H7.81019L0.3648 11.7513C-0.119534 11.2529 -0.122005 10.4422 0.359858 9.94114L9.90813 0.000900269H17.4054L15.1388 2.28329L6.8168 10.8485L15.0332 19.4137"
    fill="white"/>
</svg>
