<svg version="1.1" xmlns="http://www.w3.org/2000/svg" width="5831" height="1024" viewBox="0 0 5831 1024">
  <title>Binance Smart Chain</title>
  <path fill="#f0b90b"
        d="M170.675 157.934l272.896-157.907 272.896 157.907-102.394 55.512-170.502-98.196-174.934 98.196-97.963-55.512zM712.269 354.093l-98.196-55.512-170.502 98.196-174.934-98.196-98.196 55.512v115.223l170.735 98.196v200.59l98.196 59.711 98.196-59.711v-196.158l170.735-98.196v-119.422h3.965zM712.269 669.907v-115.223l-98.196 59.711v110.791l98.196-55.279zM784.809 708.158l-170.502 98.196v115.223l273.129-157.907v-315.58l-102.394 63.91-0.233 196.158zM686.613 256.131l98.196 59.711v115.223l98.196-59.711v-115.223l-98.196-59.711-98.196 59.711zM341.177 849.039v115.223l98.196 59.711 98.196-59.711v-115.223l-98.196 59.711-98.196-59.711zM170.442 669.907l98.196 55.512v-115.223l-98.196-59.711v119.422zM341.177 256.131l98.196 59.711 102.394-59.711-98.196-59.711c0 0-102.394 59.711-102.394 59.711zM98.135 315.842l102.394-59.711-102.394-59.711-98.196 59.711v115.223l98.196 59.711v-115.223zM98.135 512l-98.196-59.711v315.58l273.129 157.907v-115.223l-170.735-98.196v-200.59l-4.199 0.233z"/>
  <path fill="#f0b90b"
        d="M1672.072 644.25v0c0-76.738-42.684-115.223-106.593-140.879 42.684-21.225 76.738-59.711 76.738-123.619v0c0-89.566-72.539-149.277-187.762-149.277h-264.5v571.683h272.896c123.853-4.432 209.221-55.512 209.221-157.907v0zM1514.165 400.975c0 42.684-34.054 59.711-89.566 59.711h-115.223v-123.619h123.619c55.746 0 81.17 21.459 81.17 63.91v0 0zM1548.452 627.223c0 42.684-34.054 63.91-89.566 63.91h-149.277v-123.619h145.078c63.91-4.432 93.764 21.225 93.764 59.711v0 0z"/>
  <path fill="#f0b90b"
        d="M2290.638 797.725v-567.252h-123.853v349.867l-268.699-349.867h-114.99v571.683h123.619v-362.696l277.328 362.696h106.593z"/>
  <path fill="#f0b90b"
        d="M2917.6 644.25v0c0-76.738-42.684-115.223-106.593-140.879 42.684-21.225 76.738-59.711 76.738-123.619v0c0-89.566-72.539-149.277-187.762-149.277h-264.5v571.683h272.896c123.853-4.432 209.221-55.512 209.221-157.907v0zM2764.124 400.975c0 42.684-34.054 59.711-89.566 59.711h-115.223v-123.619h123.619c51.314 0 81.17 21.459 81.17 63.91v0zM2793.98 627.223c0 42.684-34.054 63.91-89.566 63.91h-149.277v-123.619h145.078c63.91-4.432 93.764 21.225 93.764 59.711v0 0z"/>
  <path fill="#f0b90b"
        d="M3672.613 699.762l-63.91-63.91c-46.882 46.882-93.764 72.539-162.105 72.539-111.025 0-187.762-89.566-187.762-204.789 0-111.025 81.17-200.357 187.762-200.357 63.91 0 115.223 29.855 157.907 72.539l63.91-76.738c-55.512-51.080-119.422-89.566-221.816-89.566-170.735 0-294.355 132.25-294.355 294.355 0 166.304 123.619 294.355 290.156 294.355 106.593-0.467 170.502-38.719 230.213-98.43z"/>
  <path fill="#f0b90b"
        d="M4158.929 550.485v238.843h98.196v-571.683h-98.196v238.843h-272.896v-238.843h-98.196v571.683h98.196v-238.843z"/>
  <path fill="#f0b90b"
        d="M4709.154 217.645h-93.764l-251.671 575.882h102.394l59.711-136.449h268.699l59.711 136.449h106.593l-251.671-575.882zM4760.468 563.080h-196.158l98.196-226.014 97.963 226.014z"/>
  <path fill="#f0b90b" d="M5071.849 217.645v571.683h97.963v-571.683z"/>
  <path fill="#f0b90b"
        d="M5728.667 614.394l-307.183-392.551h-89.566v571.683h98.196v-409.578l315.58 405.379h85.367v-571.683h-98.196v396.75z"/>
</svg>
