<svg version="1.1" xmlns="http://www.w3.org/2000/svg" width="4357" height="1024" viewBox="0 0 4357 1024">
    <title>Carbon</title>
    <mask id="mask">
        <rect x="191" y="0" width="916" height="916" rx="229" fill="#fff"/>
    </mask>
    <path fill="#ed5a31"
          d="M1107.242 229.151c0-126.472-102.679-229.151-229.148-229.151h-458.297c-126.481 0-229.163 102.679-229.163 229.151v458.3c0 126.468 102.681 229.148 229.163 229.148h458.297c126.468 0 229.148-102.679 229.148-229.148v-458.3z"/>
    <path fill="#fff"
          mask="url(#mask)"
          d="M193.834 167.902c0 0 171.751 17.326 231.413 69.34 0 0-63.738-74.818-44.246-145.294 0 0 44.667 67.64 110.813 94.771 63.371 25.986 270.196 79.148 241.989 200.356 0 0 30.017 16.211 49.063 47.342 12.307 20.12 17.874 48.548 12.701 74.715-6.789 34.323-25.035 69.842-77.626 89.156 0 0-74.772-122.675-175.546-48.209-44.668 33.023-59.217 100.571-30.361 164.169 27.888 61.459 106.405 132.308 320.671 148.591 72.798 5.528 248.18 12.904 310.608-88.788 0 0 34.679 113.26-95.603 207.627 0 0-422.835 89.003-684.304 8.867-169.994-52.107-220.317-207.398-217.693-396.844 0 0 22.219-385.584 48.12-425.802z"/>
    <path fill="#ffeddc"
          mask="url(#mask)"
          d="M717.945 598.285c0 0-0.227-46.834-26.945-89.627-22.46-35.98-64.453-68.992-132.956-69.965-37.546-0.532-112.396 26.815-140.883 96.884 0 0-18.435-76.683 29.941-127.339 0 0-168.236 41.813-138.538 228.471 2.229 13.989 15.174 74.237 54.695 125.453 54.949 71.217 122.153 118.954 236.139 142.905 78.569 16.513 179.651 24.309 325.17 16.511 0 0 238.269 13.2 242.881-223.998 0 0-636.467 154.513-449.503-99.297z"/>
    <path fill="#f9a14c" d="M675.546 378.146l-20.773 26.422c0 0-21.119-45.308-61.908-84.892l82.68 58.47z"/>
    <path fill="#fff"
          d="M1697.512 582.391l98.635 53.353c-20.622 28.095-46.478 50.662-77.562 67.7-31.084 17.036-65.009 25.556-101.773 25.556-41.247 0-78.909-10.61-112.983-31.832-33.775-21.222-60.824-49.618-81.149-85.185-20.025-35.867-30.039-75.471-30.039-118.811 0-32.878 5.828-63.513 17.484-91.91 11.658-28.692 27.649-53.8 47.974-75.321 20.625-21.819 44.536-38.856 71.734-51.11 27.2-12.255 56.191-18.383 86.978-18.383 36.763 0 70.688 8.518 101.773 25.556 31.084 17.036 56.94 39.902 77.562 68.596l-98.635 52.903c-10.46-11.956-22.864-21.219-37.212-27.795-14.049-6.576-28.544-9.865-43.488-9.865-21.521 0-40.949 5.979-58.285 17.934-17.335 11.656-31.084 27.198-41.247 46.626-10.162 19.131-15.244 40.053-15.244 62.768 0 22.418 5.082 43.34 15.244 62.768 10.162 19.129 23.912 34.522 41.247 46.18 17.335 11.656 36.763 17.484 58.285 17.484 15.542 0 30.337-3.287 44.385-9.863 14.049-6.875 26.153-15.991 36.315-27.349z"/>
    <path fill="#fff"
          d="M2193.588 269.001h109.387v448.341h-109.834l-4.484-55.594c-12.553 20.027-28.994 36.318-49.318 48.871-20.025 12.255-43.637 18.383-70.837 18.383-33.177 0-64.262-6.278-93.255-18.831-28.991-12.553-54.547-29.89-76.666-52.009s-39.305-47.672-51.56-76.666c-12.253-28.994-18.381-60.078-18.381-93.255 0-31.981 5.828-62.020 17.484-90.117 11.658-28.095 28.097-52.754 49.318-73.975s45.73-37.809 73.528-49.765c27.797-11.956 57.687-17.934 89.669-17.934 29.89 0 56.491 6.576 79.804 19.728 23.614 13.15 43.64 29.888 60.078 50.213l-4.931-57.388zM2071.638 623.638c23.912 0 44.684-6.128 62.319-18.381 17.635-12.255 30.935-28.546 39.903-48.871 9.264-20.622 13.001-43.34 11.207-68.147-2.093-23.315-8.966-44.385-20.625-63.216-11.656-19.129-26.601-34.374-44.834-45.73-18.232-11.359-38.708-17.038-61.423-17.038-23.612 0-44.834 6.128-63.665 18.383-18.531 12.255-32.878 28.694-43.040 49.316-10.162 20.325-14.197 43.042-12.106 68.147 2.393 23.015 9.865 44.087 22.418 63.216 12.553 18.831 28.394 33.925 47.523 45.284 19.428 11.357 40.201 17.036 62.319 17.036z"/>
    <path fill="#fff"
          d="M2674.209 380.191c-8.062-5.38-16.887-9.714-26.456-13.003-9.268-3.287-19.581-4.931-30.94-4.931-21.812 0-40.65 5.679-56.491 17.038-15.541 11.357-27.482 26.601-35.865 45.73-8.363 18.831-12.545 39.753-12.545 62.768v229.55h-110.289v-448.341h109.384v52.905c14.957-19.728 32.729-35.419 53.355-47.075 20.928-11.658 44.53-17.487 70.845-17.487 10.153 0 19.863 0.3 29.131 0.897 9.57 0.597 18.696 2.241 27.361 4.931l-17.49 117.018z"/>
    <path fill="#fff"
          d="M3001.579 256.448c43.645 0 83.39 10.61 119.255 31.832s64.412 49.765 85.642 85.634c21.21 35.568 31.824 75.021 31.824 118.36 0 32.58-6.132 63.216-18.375 91.91-12.263 28.694-29.291 53.95-51.124 75.769-21.511 21.521-46.621 38.409-75.309 50.663-28.406 12.255-59.045 18.383-91.914 18.383-28.105 0-53.054-6.278-74.867-18.831-21.531-12.853-39.604-29.442-54.26-49.766v56.94h-109.384v-672.512h109.384v280.213c14.656-20.325 32.729-36.763 54.26-49.316 21.812-12.853 46.761-19.28 74.867-19.28zM3000.232 623.19c23.32 0 44.389-5.828 63.206-17.484 19.138-11.956 34.377-27.797 45.736-47.525 11.359-19.726 17.048-41.695 17.048-65.906 0-23.912-5.69-45.73-17.048-65.458-11.359-20.025-26.598-35.867-45.736-47.523-19.119-11.658-40.188-17.487-63.206-17.487-22.718 0-43.042 5.979-60.975 17.934-17.932 11.656-31.985 27.498-42.137 47.523-10.172 19.728-15.259 41.397-15.259 65.009 0 24.211 5.086 46.329 15.259 66.354 10.153 19.728 24.205 35.419 42.137 47.077 17.932 11.656 38.257 17.484 60.975 17.484z"/>
    <path fill="#fff"
          d="M3498.644 729c-41.233 0-78.907-10.61-112.983-31.832-33.775-21.222-60.813-49.618-81.138-85.185-20.023-35.867-30.035-75.471-30.035-118.811 0-32.878 5.83-63.513 17.49-91.91 11.64-28.692 27.642-53.8 47.967-75.321 20.627-21.819 44.53-38.856 71.73-51.11s56.19-18.383 86.969-18.383c41.252 0 78.766 10.61 112.541 31.832 34.075 21.222 61.135 49.765 81.159 85.634 20.325 35.867 30.477 75.62 30.477 119.257 0 32.58-5.83 63.068-17.49 91.462-11.64 28.394-27.783 53.502-48.41 75.321-20.325 21.521-44.087 38.409-71.288 50.663-26.898 12.255-55.889 18.383-86.988 18.383zM3498.644 619.604c21.833 0 41.414-5.828 58.743-17.484 17.33-11.658 30.94-27.052 40.79-46.18 10.172-19.129 15.259-40.051 15.259-62.768 0-23.312-5.247-44.534-15.701-63.665-10.153-19.428-24.064-34.819-41.695-46.178-17.33-11.656-36.468-17.487-57.397-17.487-21.511 0-40.931 5.83-58.281 17.487-17.33 11.656-31.080 27.198-41.233 46.626-10.172 19.428-15.259 40.501-15.259 63.216 0 23.614 5.227 44.984 15.701 64.113 10.454 19.131 24.366 34.374 41.695 45.732 17.631 11.059 36.77 16.588 57.376 16.588z"/>
    <path fill="#fff"
          d="M4211.382 485.55v231.791h-109.404v-229.999c0-23.015-4.765-43.937-14.334-62.768-9.57-19.129-22.878-34.374-39.906-45.73-16.747-11.359-36.166-17.038-58.281-17.038-21.531 0-40.207 5.679-56.049 17.038-15.841 11.357-28.085 26.601-36.77 45.73-8.363 18.831-12.545 39.753-12.545 62.768v229.999h-109.404v-448.341h109.404v52.905c14.937-20.025 32.729-35.867 53.355-47.523 20.928-11.956 44.53-17.934 70.845-17.934 41.233 0 76.957 10.462 107.153 31.384 30.477 20.625 53.938 48.271 70.383 82.942 16.726 34.672 25.25 72.931 25.552 114.776z"/>
</svg>
