<svg version="1.1" xmlns="http://www.w3.org/2000/svg" width="4080" height="1024" viewBox="0 0 4080 1024">
  <title>Ethereum</title>
  <path fill="#88aaf1"
        d="M1135.491 577.256c-5.233-61.822-52.827-118.41-118.41-118.41s-112.031 56.588-118.41 118.41h236.82zM1162.313 588.868c-0.163 7.359-6.215 13.248-13.574 13.248h-250.066c6.378 61.822 52.827 118.41 118.41 118.41 44.813 0 78.013-17.009 102.873-52.827 2.289-3.761 6.378-6.215 10.958-6.378 6.706-0.163 12.266 5.070 12.43 11.776v0.654c0 2.289-0.654 4.416-1.963 6.378-25.187 43.668-75.396 65.256-124.461 65.256-84.064 0-144.414-75.396-144.414-155.699s60.022-155.699 144.414-155.699c84.718 0 145.069 74.579 145.395 154.882v0 0z"/>
  <path fill="#88aaf1"
        d="M1466.188 440.038c6.869 0.163 12.266 5.724 12.43 12.43s-5.070 12.266-11.776 12.43h-67.873v263.642c0 6.869-5.561 12.43-12.43 12.43-6.706-0.163-12.266-5.724-12.43-12.43v-263.642h-64.438c-6.706 0.163-12.266-5.070-12.43-11.776v-0.654c0-6.869 5.561-12.43 12.43-12.43h64.438v-96.167c0-6.542 4.743-12.102 11.285-13.248 6.706-0.981 12.92 3.761 13.902 10.631 0 0.654 0.163 1.145 0.163 1.799v96.821l66.728 0.163z"/>
  <path fill="#88aaf1"
        d="M1875.388 567.444v159.46c-0.163 6.706-5.724 12.266-12.43 12.43s-12.266-5.070-12.43-11.776v-160.115c0-53.971-30.583-107.452-90.443-107.452-76.868 0-110.069 67.055-105.653 136.073 0 1.963 0.818 9.813 0.818 10.958v119.554c0 6.542-4.743 12.102-11.285 13.248-6.706 0.981-12.92-3.926-13.902-10.631 0-0.654-0.163-1.309-0.163-1.799v-524.666c0-6.869 5.561-12.43 12.43-12.43 6.706 0.163 12.266 5.724 12.43 12.43v296.351c21.425-38.434 60.022-64.438 104.835-64.438 73.924 0 115.793 64.602 115.793 132.802v0z"/>
  <path fill="#88aaf1"
        d="M2297.345 577.256c-5.233-61.822-52.827-118.41-118.41-118.41s-112.031 56.588-118.41 118.41h236.82zM2324.495 588.868c-0.163 7.359-6.215 13.248-13.574 13.248h-250.066c6.378 61.822 52.827 118.41 118.41 118.41 44.813 0 78.013-17.009 102.873-52.827 2.289-3.761 6.378-6.215 10.958-6.378 6.706-0.163 12.266 5.070 12.43 11.776v0.654c0 2.289-0.654 4.416-1.963 6.378-25.187 43.668-75.396 65.256-124.461 65.256-84.064 0-144.414-75.396-144.414-155.699s60.022-155.699 144.414-155.699c83.901 0 144.904 74.579 145.395 154.882v0 0z"/>
  <path fill="#88aaf1"
        d="M2631.803 451.65c0.491 7.033-4.743 13.084-11.612 13.574-73.597 10.958-106.634 70.816-106.634 140.652v119.554c0 6.542-4.743 12.102-11.285 13.248-6.706 0.981-12.92-3.926-13.902-10.631 0-0.654-0.163-1.309-0.163-1.799v-272.636c0-6.542 4.743-12.102 11.285-13.248 6.706-0.818 12.92 3.926 13.902 10.631 0 0.654 0.163 1.145 0.163 1.799v55.444c20.77-35 61.822-68.2 104.835-68.2 6.215 0 13.411 4.416 13.411 11.612v0z"/>
  <path fill="#88aaf1"
        d="M3015.981 577.256c-5.233-61.822-52.827-118.41-118.41-118.41s-112.031 56.588-118.41 118.41h236.82zM3042.803 588.868c-0.163 7.359-6.215 13.248-13.574 13.248h-250.066c6.378 61.822 52.827 118.41 118.41 118.41 44.813 0 78.013-17.009 102.873-52.827 2.289-3.761 6.378-6.215 10.958-6.378 6.706-0.163 12.266 5.070 12.43 11.776v0.654c0 2.289-0.654 4.416-1.963 6.378-25.187 43.668-75.396 65.256-124.461 65.256-84.064 0-144.414-75.396-144.414-155.699s60.022-155.699 144.414-155.699 144.904 74.579 145.395 154.882v0 0z"/>
  <path fill="#88aaf1"
        d="M3446.933 454.758v273.781c-0.163 6.706-5.724 12.266-12.43 12.43s-12.266-5.070-12.43-11.776v-52.827c-20.77 41.051-57.242 70.816-104.017 70.816-74.251 0-115.302-64.438-115.302-132.638v-160.278c0-6.869 5.561-12.43 12.43-12.43 6.706 0.163 12.266 5.724 12.43 12.43v160.278c0 53.971 30.583 107.452 90.443 107.452 84.064 0 104.017-78.831 104.017-165.839v-102.218c0.163-7.033 5.887-12.593 12.757-12.43 1.472 0 2.78 0.327 4.252 0.818 4.743 2.126 7.85 7.033 7.85 12.43v0z"/>
  <path fill="#88aaf1"
        d="M4080.031 566.298v160.278c-0.163 6.706-5.724 12.266-12.43 12.43s-12.266-5.070-12.43-11.776v-160.932c0-53.971-30.583-106.634-90.443-106.634-75.396 0-104.017 80.629-104.017 143.269v123.643c-0.163 6.706-5.724 12.266-12.43 12.43s-12.266-5.070-12.43-11.776v-160.932c0-53.971-30.583-106.634-90.443-106.634-76.214 0-107.452 60.022-104.835 139.834 0 1.963 0.818 5.233 0 6.378v120.373c0 6.542-4.743 12.102-11.285 13.248-6.706 0.981-12.92-3.926-13.902-10.631 0-0.654-0.163-1.309-0.163-1.799v-273.455c0-6.542 4.743-12.102 11.285-13.248 6.706-0.818 12.92 3.926 13.902 10.631 0 0.654 0.163 1.145 0.163 1.799v45.631c21.425-38.434 60.022-63.784 104.835-63.784 50.864 0 90.443 32.383 106.634 79.485 20.77-46.775 61.003-79.485 112.686-79.485 73.434 0 115.302 63.784 115.302 131.657v0 0z"/>
  <path fill="#f0cdc2" d="M320.362 1022.11v-255.955l-316.631-185.137z"/>
  <path fill="#c9b3f5" d="M321.344 1022.11v-255.955l316.795-185.137z"/>
  <path fill="#88aaf1" d="M320.362 702.535v-326.771l-320.393 143.432z"/>
  <path fill="#c9b3f5" d="M321.344 702.535v-326.771l320.393 143.432z"/>
  <path fill="#f0cdc2" d="M-0.030 519.196l320.393-517.306v373.874z"/>
  <path fill="#b8faf6" d="M641.737 519.196l-320.393-517.306v373.874z"/>
</svg>
