<svg width="136" height="31" viewBox="0 0 136 31" fill="none" xmlns="http://www.w3.org/2000/svg">
  <path fill-rule="evenodd" clip-rule="evenodd"
        d="M112.59 9.21279H116.452V5.3674H112.59V9.21279ZM92.0607 15.6166C92.7988 13.6682 94.6886 12.2809 96.9047 12.2809C99.1204 12.2809 101.01 13.6682 101.749 15.6166H92.0607ZM96.9047 8.70567C92.0633 8.70567 88.1373 12.6138 88.1373 17.4348C88.1373 22.2559 92.0633 26.1633 96.9047 26.1633C100.227 26.1633 103.117 24.3242 104.605 21.6134L101.365 20.0486C100.465 21.568 98.8048 22.5881 96.9047 22.5881C94.5039 22.5881 92.4858 20.9609 91.9002 18.7539H101.909C101.908 18.7555 101.908 18.7578 101.908 18.7597H105.573C105.639 18.3275 105.674 17.885 105.674 17.4348C105.674 12.6138 101.748 8.70567 96.9047 8.70567ZM106.692 25.698H110.554V21.8526H106.692V25.698ZM112.59 25.698H116.452V10.9033H112.59V25.698ZM127.232 22.5881C124.374 22.5881 122.056 20.2808 122.056 17.4348C122.056 14.5882 124.374 12.2809 127.232 12.2809C130.091 12.2809 132.409 14.5882 132.409 17.4348C132.409 20.2808 130.091 22.5881 127.232 22.5881ZM127.231 8.70567C122.39 8.70567 118.464 12.6138 118.464 17.4348C118.464 22.2559 122.39 26.1633 127.231 26.1633C132.074 26.1633 136 22.2559 136 17.4348C136 12.6138 132.074 8.70567 127.231 8.70567ZM46.4783 14.2171V18.1931H51.8787C51.5967 19.3292 51.0393 20.3473 50.2398 21.1606C49.0341 22.3874 47.3623 23.0633 45.5319 23.0633C41.7338 23.0633 38.6434 19.9868 38.6434 16.2051C38.6434 12.4234 41.7338 9.34657 45.5319 9.34657C47.5664 9.34657 49.4366 10.2135 50.7331 11.7089L53.8251 9.1935C51.775 6.80162 48.7334 5.3703 45.5319 5.3703C39.5316 5.3703 34.6499 10.2309 34.6499 16.2051C34.6499 22.1793 39.5316 27.0396 45.5319 27.0396C48.4453 27.0396 51.131 25.9945 53.0945 23.9969C54.7421 22.3202 55.8341 19.9814 56.044 17.6384C56.1464 16.4955 56.1558 15.3603 56.0954 14.2171H46.4783ZM66.1512 22.589C63.2923 22.589 60.9745 20.2811 60.9745 17.4348C60.9745 14.5879 63.2923 12.2806 66.1512 12.2806C69.0103 12.2806 71.3281 14.5879 71.3281 17.4348C71.3281 20.2811 69.0103 22.589 66.1512 22.589ZM71.3287 10.4068C69.8775 9.34753 68.0882 8.72046 66.1512 8.72046C61.3098 8.72046 57.3851 12.6282 57.3851 17.4483C57.3851 22.2691 61.3098 26.1762 66.1512 26.1762C68.0882 26.1762 69.8775 25.5494 71.3287 24.4902V25.698H74.9175V9.19896H71.3287V10.4068ZM82.6216 5.36772H79.0325V9.21279H76.8813V12.5851H79.0325V21.4104C79.0325 22.3218 79.1475 23.0884 79.3755 23.6901C79.6003 24.2853 79.944 24.7513 80.3525 25.1153C80.7666 25.4848 81.2524 25.7726 81.8283 25.936C82.4136 26.1 83.0592 26.1633 83.7417 26.1633C84.4481 26.1633 85.0779 26.0903 85.6154 25.9459C86.1144 25.8125 86.5928 25.6237 87.0379 25.3838V22.6665C86.3299 22.9714 85.668 23.0817 84.9129 23.1167C84.1157 23.154 83.6442 22.9273 83.2517 22.5549C82.8406 22.1649 82.6216 21.6564 82.6216 20.8036V12.5851H87.0379V9.21279H82.6216V5.36772Z"
        fill="white"/>
  <path fill-rule="evenodd" clip-rule="evenodd"
        d="M15.5686 24.025C10.8397 24.025 7.00606 20.2086 7.00606 15.5001C7.00606 10.7919 10.8397 6.97482 15.5686 6.97482V-0.000137329C6.9702 -0.000137329 0 6.93945 0 15.5001C0 24.0604 6.9702 31 15.5686 31C24.1667 31 31.1372 24.0604 31.1372 15.5001H24.1312C24.1312 20.2086 20.2976 24.025 15.5686 24.025Z"
        fill="#2354E6"/>
  <path fill-rule="evenodd" clip-rule="evenodd" d="M15.5684 15.4999H24.1309V6.97496H15.5684V15.4999Z" fill="#17E6A1"/>
</svg>
