<svg viewBox="0 0 186.07 53.53" xmlns="http://www.w3.org/2000/svg">
    <title>HackenProof</title>
    <g>
        <polygon fill="#fff"
                 points="178.89 0 178.89 11.14 167.61 0 161.91 0 161.91 22.06 168.9 22.06 168.9 10.77 180.25 22.06 185.87 22.06 185.87 0 178.89 0"/>
        <polygon fill="#fff"
                 points="70.92 22.06 89.46 22.06 89.46 15.9 70.92 15.9 70.92 6.23 89.48 6.23 89.48 0 70.92 0 64.74 0 64 0 64 22.06 64.74 22.06 70.92 22.06"/>
        <polygon fill="#fff"
                 points="136.42 22.06 153.51 22.06 153.51 16.51 136.42 16.51 136.42 13.46 153.51 13.46 153.51 8.52 136.42 8.52 136.42 5.55 153.51 5.55 153.51 0 136.42 0 130.07 0 129.5 0 129.5 22.06 130.19 22.06 136.42 22.06"/>
        <path fill="#fff" d="M39.22,17.1H49.5v5h6.89V0H32.32V22.06h6.9Zm0-11H49.5V11H39.22Z"/>
        <polygon fill="#fff"
                 points="6.92 14.22 17.02 14.22 17.02 22.06 23.95 22.06 23.95 0 17.02 0 17.02 7.68 6.92 7.68 6.92 0 0 0 0 22.06 6.92 22.06 6.92 14.22"/>
        <polygon fill="#fff"
                 points="103.76 15.17 114.48 15.17 121.35 8.62 121.39 8.62 121.39 0 114.48 0 114.48 8.62 103.76 8.62 103.76 0 96.84 0 96.84 22.06 103.76 22.06 103.76 15.17"/>
        <rect fill="#fff" height="6.89" width="6.92" x="114.49" y="15.17"/>
        <path fill="#fff" d="M23,30.32H0V52.38H6.9v-5H24V30.32Zm-5.86,11H6.9V36.45H17.18Z"/>
        <polyline fill="#fff" points="49.96 46.14 49.96 52.41 56.39 52.41 56.39 46.14 49.96 46.14"/>
        <path fill="#fff" d="M56.36,30.32h-24v0h0V52.41h6.93V46.14H50l6.43-6.55ZM49.52,40.55H39.24V35.73H49.52Z"/>
        <polygon fill="#fff"
                 points="153.49 30.32 136.42 30.32 131.03 30.32 129.53 30.32 129.53 39.93 129.53 46.07 129.53 52.38 136.42 52.38 136.42 46.07 153.49 46.07 153.49 39.93 136.42 39.93 136.42 36.45 153.49 36.45 153.49 30.32"/>
        <path fill="#fff" d="M82.56,30.32H64V52.38H89.48V30.32Zm0,15.79H70.94V36.44H82.58Z"/>
        <path fill="#fff" d="M121.43,30.32H96.81V52.38h24.62V36.55h0V30.32Zm-6.9,15.79H103.75V36.44h10.78Z"/>
        <circle fill="#f13f2d" class="cls-2" cx="173.88" cy="41.38" r="5.37"
                transform="translate(-4.38 28.39) rotate(-9.22)"/>
        <path fill="#fff"
              d="M185.22,37.66l0,.12.81-.26,0-.13a12.9,12.9,0,0,0-7.78-8l-.12,0-.29.8.12,0A12,12,0,0,1,185.22,37.66Z"/>
        <path fill="#fff"
              d="M185.13,45.36a12.05,12.05,0,0,1-7.37,7.31l-.13,0,.28.8.12,0a12.88,12.88,0,0,0,7.9-7.83l0-.12-.81-.29Z"/>
        <path fill="#fff"
              d="M162.57,45.15l0-.13-.81.27,0,.13a12.84,12.84,0,0,0,8,8.07l.12,0,.28-.81-.12,0A12,12,0,0,1,162.57,45.15Z"/>
        <path fill="#fff"
              d="M162.62,37.45A12,12,0,0,1,170.26,30l.13,0-.26-.81-.13,0a12.87,12.87,0,0,0-8.18,8l0,.12.8.28Z"/>
    </g>
</svg>
