<svg fill="none" height="51" viewBox="0 0 231 51" width="231" xmlns="http://www.w3.org/2000/svg"
     xmlns:xlink="http://www.w3.org/1999/xlink">
    <title>Immunefi</title>
    <linearGradient id="a">
        <stop offset="0" stop-color="#9d10bf"/>
        <stop offset="1" stop-color="#f01580"/>
    </linearGradient>
    <radialGradient id="b" cx="0" cy="0" gradientTransform="matrix(0 14.482 -29.0902 0 29.0902 35.5918)"
                    gradientUnits="userSpaceOnUse" r="1" xlink:href="#a"/>
    <radialGradient id="c" cx="0" cy="0" gradientTransform="matrix(0 -14.482 29.0902 0 29.0902 14.4819)"
                    gradientUnits="userSpaceOnUse" r="1" xlink:href="#a"/>
    <radialGradient id="d" cx="0" cy="0" gradientTransform="matrix(2.63316 0 0 5.17156 29.2626 44.5164)"
                    gradientUnits="userSpaceOnUse" r="1" xlink:href="#a"/>
    <radialGradient id="e" cx="0" cy="0" gradientTransform="matrix(2.63316 0 0 5.17156 29.2626 5.5572)"
                    gradientUnits="userSpaceOnUse" r="1" xlink:href="#a"/>
    <radialGradient id="f" cx="0" cy="0" gradientTransform="matrix(0 14 -81.2986 0 149.479 25.0369)"
                    gradientUnits="userSpaceOnUse" r="1" xlink:href="#a"/>
    <g clip-rule="evenodd" fill-rule="evenodd">
        <path d="m13.0165 21.1099 16.1271 16.4166 15.955-16.2414 13.0818 13.3166-15.1993 15.4721-3.9101-3.8742 11.3934-11.5979-5.3658-5.4621-15.955 16.2414-16.1271-16.4167-5.30053 5.3957 11.56673 11.7743-3.9101 3.8742-15.3726-15.6485z"
              fill="url(#b)"/>
        <path d="m45.1639 28.9639-16.1271-16.4167-15.955 16.2414-13.08178474-13.3166 15.19928474-15.47210681 3.9101 3.87420681-11.39342 11.5979 5.36582 5.4622 15.955-16.24145 16.1271 16.41665 5.3005-5.3957-11.5666-11.77428 3.91-3.8742135 15.3726 15.6484935z"
              fill="url(#c)"/>
        <path d="m26.6294 49.688v-10.3431h5.2663v10.3431z" fill="url(#d)"/>
        <path d="m26.6294 10.7288v-10.343157h5.2663v10.343157z" fill="url(#e)"/>
    </g>
    <g fill="url(#f)">
        <path d="m73.4281 12.2112h-5.2477v26.422h5.2477z"/>
        <path d="m100.047 19.1837c-2.3852 0-4.6604 1.0275-5.7981 3.266-1.1743-2.2385-3.3761-3.266-5.9449-3.266-2.3119 0-4.0734.8807-4.9908 2.4587l-.5505-2.0918h-4.7706v19.0826h5.1376v-10.6789c0-2.8257 1.4679-4.1835 3.633-4.1835 2.055 0 3.4495 1.2844 3.4495 4.4037v10.4587h4.9542v-10.5688c.0734-2.9725 1.6146-4.2936 3.633-4.2936 2.0916 0 3.4496 1.2844 3.4496 4.1468v10.7523h5.174v-11.7798c0-5.2844-3.559-7.7064-7.376-7.7064z"/>
        <path d="m133.555 19.1837c-2.385 0-4.661 1.0275-5.798 3.266-1.175-2.2385-3.376-3.266-5.945-3.266-2.312 0-4.074.8807-4.991 2.4587l-.551-2.0918h-4.77v19.0826h5.137v-10.6789c0-2.8257 1.468-4.1835 3.633-4.1835 2.055 0 3.45 1.2844 3.45 4.4037v10.4587h4.954v-10.5688c.073-2.9725 1.615-4.2936 3.633-4.2936 2.092 0 3.45 1.2844 3.45 4.1468v10.7523h5.174v-11.7798c0-5.2844-3.56-7.7064-7.376-7.7064z"/>
        <path d="m157.521 19.5506v10.4587c0 2.8257-1.321 4.5138-3.853 4.5505-2.422.0734-3.963-1.3578-3.963-4.3303v-10.6789h-4.881v11.3395c0 4.8807 2.826 8.1101 7.706 8.1101 2.276 0 3.927-1.0276 4.918-2.4588l.257 2.0918h4.697v-19.0826z"/>
        <path d="m177.479 19.1837c-2.863 0-4.771 1.0642-5.762 2.6422l-.293-2.2753h-4.771v19.0826h5.138v-10.0918c0-3.0825 1.468-4.9541 4.183-4.9541 2.496 0 4 1.6147 4 4.7707v10.2752h5.175v-11.3395c0-4.8807-2.789-8.11-7.67-8.11z"/>
        <path d="m207.617 28.7983c0-5.8348-3.78-9.6146-9.468-9.6146s-9.505 3.9633-9.505 9.9082c0 5.9817 3.817 9.945 9.542 9.945 4.807 0 8.44-2.6789 9.284-6.6422h-5.174c-.588 1.6513-2.092 2.4954-3.964 2.4954-2.458 0-4.44-1.578-4.513-4.4037h13.798zm-9.468-5.6146c2.238 0 4.11 1.2844 4.33 3.9266h-8.624c.22-2.6422 2.092-3.9266 4.294-3.9266z"/>
        <path d="m209.622 19.5506v4.4771h2.936v14.6055h5.175v-14.6055h4.367v-4.4771h-4.367v-1.9449c0-1.3578.367-2.3853 2.458-2.3853h1.909v-4.1835h-3.046c-4.808 0-6.496 2.3486-6.496 6.055v2.4587z"/>
        <path d="m225.493 16.6148h5.211l.074-5.5779h-5.211zm.074 22.0184h5.137v-19.0826h-5.137z"/>
    </g>
</svg>
