<svg version="1.1" xmlns="http://www.w3.org/2000/svg" width="2236" height="1024" viewBox="0 0 2236 1024">
<title>Kaspa</title>
<path fill="#6fc7ba" d="M693.247 368.867c-18.238-43.828-46.788-84.505-79.827-117.448-33.039-33.039-75.244-57.769-119.071-76.007-42.3-17.474-89.28-26.259-137.882-26.259s-98.541 1.719-140.747 19.289c-43.828 18.143-80.495 52.613-113.533 85.651-33.039 32.943-71.328 67.986-89.471 111.814-17.569 42.3-11.84 93.767-11.84 142.37s3.533 96.346 21.103 138.646c18.143 43.733 55.095 74.765 88.134 107.708 33.039 33.039 62.925 72.569 106.754 90.712 42.3 17.569 90.998 29.505 139.6 29.505s96.346-14.419 138.55-31.988c43.828-18.143 83.455-46.502 116.397-79.54 33.039-33.039 59.679-73.334 77.821-117.162 17.569-42.3 37.622-89.28 37.622-137.882s-16.137-97.205-33.612-139.41zM458.255 715.481l-77.058-11.459 22.057-148.959-161.276 124.133-47.362-61.971 141.416-108.95-141.416-108.854 47.362-61.971 161.276 124.133-22.057-148.959 77.058-11.459 30.556 207.11-30.556 207.205z" />
<path fill="#fff" d="M1435.176 472.851c-20.816-22.916-52.804-27.786-77.344-27.786-38.386 0-74.671 11.267-99.21 26.736-4.774 3.151-5.347 5.824-3.151 10.599l15.469 33.612c2.673 5.92 6.397 5.92 11.649 2.673 18.143-10.122 41.632-19.193 66.745-19.193 12.223 0 23.49 3.247 29.315 10.694 5.347 6.397 7.447 15.469 7.447 27.692v5.347c-28.742 2.196-67.222 6.397-96.537 19.193-25.59 11.745-44.306 30.46-44.306 61.875 0 24.063 9.071 43.255 24.063 55.478 14.419 12.796 34.662 19.766 56.528 19.766 24.54 0 43.159-3.724 65.122-17.569h2.1v4.201c0 4.297 3.724 8.020 8.499 8.020h46.979c4.297 0 8.020-3.724 8.020-8.020v-148.29c0-30.938-8.020-50.131-21.389-65.026zM1386.097 637.087c-12.223 7.543-25.017 10.217-37.335 10.217-19.67 0-36.285-8.020-36.285-25.113 0-26.163 41.632-30.365 73.62-31.51v46.406z" />
<path fill="#fff" d="M1656.513 559.266c-17.092-8.499-32.561-13.369-49.653-20.243-12.317-4.774-23.49-10.122-23.49-20.816 0-12.317 10.694-17.092 25.113-17.092 15.469 0 33.612 3.724 54.905 15.469 4.297 2.1 7.447 1.623 9.644-2.673l19.193-39.436c2.1-3.724 2.1-8.020-3.247-10.694-19.193-10.694-43.733-18.716-82.691-18.716-62.925 0-97.587 28.263-97.587 73.047 0 30.938 13.369 51.181 39.436 63.975 17.092 8.499 35.712 14.419 51.181 21.293 13.369 5.92 22.916 10.122 22.916 21.866 0 12.796-10.694 19.193-28.263 19.193-22.916 0-38.959-7.447-60.252-19.766-4.297-2.1-8.020-1.050-10.122 3.151l-19.766 41.059c-2.1 3.724-1.050 7.447 3.724 10.122 18.716 10.694 43.733 20.243 88.038 20.243 61.875 0 100.834-33.612 100.834-78.394 0-26.163-11.172-48.029-40.009-61.875z" />
<path fill="#fff" d="M1952.235 483.545c-25.59-25.686-65.026-38.481-109.81-38.481-31.51 0-64.071 2.673-85.938 8.594-5.347 1.527-8.020 4.774-8.020 9.549v347.761c0 4.87 3.247 8.594 8.020 8.594h54.428c4.297 0 8.020-3.724 8.020-8.594v-115.73c11.745 3.247 23.49 4.297 37.335 4.297 37.335 0 76.294-11.745 101.311-40.009 17.665-20.243 28.836-48.508 28.836-86.988s-12.796-68.272-34.185-88.994zM1897.33 626.488c-13.369 11.745-30.938 15.469-48.508 15.469-11.745 0-21.389-1.623-29.887-4.87v-132.249c9.071-1.623 20.816-2.1 30.365-2.1 20.816 0 38.386 6.876 50.131 19.67 10.694 12.317 17.092 28.836 17.092 50.131 0 25.113-7.447 43.255-19.193 53.949z" />
<path fill="#fff" d="M2214.727 472.851c-20.816-22.916-52.804-27.786-77.344-27.786-38.386 0-74.671 11.267-99.21 26.736-4.87 3.151-5.347 5.824-3.247 10.599l15.469 33.612c2.673 5.92 6.397 5.92 11.745 2.673 18.143-10.122 41.632-19.193 66.649-19.193 12.317 0 23.49 3.247 29.41 10.694 5.252 6.397 7.447 15.469 7.447 27.692v5.347c-28.836 2.196-67.222 6.397-96.537 19.193-25.59 11.745-44.306 30.46-44.306 61.875 0 24.063 9.071 43.255 23.967 55.478 14.419 12.796 34.757 19.766 56.623 19.766 24.54 0 43.159-3.724 65.026-17.569h2.1v4.201c0 4.297 3.82 8.020 8.594 8.020h46.884c4.297 0 8.020-3.724 8.020-8.020v-148.29c0-30.938-8.020-50.131-21.293-65.026zM2165.646 637.087c-12.317 7.543-25.113 10.217-37.335 10.217-19.766 0-36.285-8.020-36.285-25.113 0-26.163 41.632-30.365 73.62-31.51v46.406z" />
<path fill="#fff" d="M1226.539 330.958h-77.344c-6.397 0-11.745 2.673-16.519 8.020l-109.141 106.85v-106.85c0-4.297-3.247-8.020-8.020-8.020h-60.252c-4.774 0-8.499 3.724-8.499 8.020v347.284c0 4.297 3.724 8.020 8.499 8.020h60.252c4.774 0 8.020-3.724 8.020-8.020v-106.85l109.141 106.85c4.774 5.347 10.122 8.020 16.519 8.020h77.344c6.97 0 9.644-6.397 3.724-12.223l-173.116-169.392 173.116-169.392c5.824-5.824 3.151-12.223-3.724-12.223z" />
</svg>
