<svg version="1.1" xmlns="http://www.w3.org/2000/svg" width="3091" height="1024" viewBox="0 0 3091 1024">
<title>KyberSwap</title>
<path fill="#31cb9e" d="M305.345 511.79l380.297 219.281c3.043 1.729 6.477 2.633 9.972 2.624s6.925-0.933 9.959-2.68c3.033-1.745 5.561-4.254 7.339-7.279 1.776-3.026 2.74-6.462 2.798-9.974l0.064-403.808c-0.039-3.518-0.991-6.966-2.763-10.003-1.772-3.035-4.303-5.552-7.339-7.302s-6.477-2.672-9.978-2.674-6.941 0.916-9.98 2.66l-380.368 219.156z" />
<path fill="#31cb9e" d="M663.537 198.14l-252.452-194.021c-2.695-2.034-5.851-3.359-9.184-3.853s-6.734-0.142-9.897 1.025c-3.163 1.166-5.985 3.11-8.21 5.652s-3.781 5.605-4.527 8.908l-92.307 431.965 374.531-216.222c2.896-1.629 5.339-3.963 7.105-6.786 1.768-2.825 2.8-6.048 3.004-9.379s-0.429-6.657-1.837-9.679-3.547-5.639-6.224-7.611z" />
<path fill="#31cb9e" d="M410.917 1019.789l253.101-194.231c2.616-2.013 4.701-4.641 6.068-7.652 1.37-3.012 1.98-6.317 1.779-9.623-0.203-3.306-1.209-6.51-2.933-9.331-1.725-2.823-4.113-5.176-6.953-6.85l-375.045-216.052 92.46 431.996c0.676 3.312 2.181 6.394 4.372 8.962 2.189 2.566 4.994 4.529 8.147 5.702s6.553 1.522 9.878 1.012c3.325-0.512 6.464-1.866 9.124-3.936z" />
<path fill="#31cb9e" d="M207.849 511.783l99.611-465.418c0.866-4.032 0.471-8.233-1.126-12.031s-4.324-7.008-7.803-9.192c-3.48-2.183-7.544-3.234-11.64-3.008-4.098 0.226-8.023 1.717-11.246 4.27l-254.851 195.699c-6.457 4.964-11.687 11.36-15.283 18.689s-5.46 15.394-5.448 23.565l-0.080 495.662c-0.015 8.174 1.848 16.237 5.44 23.569 3.594 7.329 8.821 13.728 15.277 18.695l254.788 195.489c3.246 2.446 7.15 3.851 11.201 4.026 4.053 0.174 8.063-0.887 11.505-3.045s6.155-5.31 7.781-9.047 2.091-7.878 1.333-11.885l-99.46-466.038z" />
<path fill="#fff" d="M2191.29 376.073c18.198-0.375 36.185 4.104 52.122 12.981 15.918 8.875 29.229 21.832 38.56 37.552l-31.509 24.402c-6.723-10.218-15.591-18.838-25.965-25.264-10.046-6.021-21.541-9.136-33.229-8.999-10.529-0.232-20.903 2.67-29.809 8.346-4.212 2.794-7.611 6.661-9.853 11.213-2.261 4.55-3.246 9.617-2.917 14.687-0.135 4.811 0.889 9.582 2.975 13.91 2.029 3.909 4.772 7.395 8.094 10.274 3.748 3.236 7.901 5.973 12.345 8.143 4.83 2.432 10.065 5.072 15.745 7.919l31.509 14.565c9.853 4.498 19.377 9.65 28.534 15.421 7.882 4.894 15.050 10.873 21.289 17.762 5.563 6.265 10.026 13.435 13.195 21.203 3.227 8.317 4.83 17.186 4.695 26.114 0.174 11.752-2.318 23.39-7.264 34.034-4.676 9.951-11.514 18.726-20.014 25.683-8.925 7.223-19.106 12.733-30.021 16.26-12.017 3.94-24.613 5.89-37.266 5.774-21.966 0.421-43.642-5.286-62.574-16.486-18.082-10.894-33.055-26.313-43.429-44.753l31.934-24.394c4.019 6.054 8.5 11.783 13.427 17.128 4.907 5.382 10.394 10.195 16.382 14.343 6.085 4.214 12.751 7.532 19.782 9.855 7.785 2.51 15.899 3.737 24.072 3.636 12.538 0.601 24.922-3.095 35.122-10.482 4.386-3.375 7.882-7.762 10.22-12.791s3.439-10.552 3.207-16.098c0.097-4.946-0.927-9.849-2.975-14.341-2.048-4.208-4.946-7.93-8.519-10.929-4.038-3.358-8.384-6.298-13.002-8.776-4.965-2.707-10.567-5.488-16.807-8.344l-31.065-14.565c-8.771-4.1-17.29-8.676-25.559-13.707-7.65-4.614-14.683-10.229-20.864-16.703-5.892-6.172-10.645-13.346-14.045-21.189-3.536-8.465-5.275-17.578-5.101-26.754-0.174-10.971 2.241-21.825 7.032-31.685 4.598-9.333 11.147-17.572 19.145-24.18 8.346-6.84 17.889-12.069 28.128-15.415 11.050-3.628 22.642-5.432 34.272-5.345z" />
<path fill="#fff" d="M2537.446 589.343l54.093-136.136 47.274 0.012-92.441 214.898h-15.34l-65.974-140.431-65.163 140.408h-15.34l-92.789-214.935 47.679 0.006 54.905 137.437 63.482-142.122h15.32l64.293 140.864z" />
<path fill="#fff" d="M2742.71 448.533c11.862-0.139 23.666 1.745 34.91 5.571 10.084 3.466 19.319 9.091 27.027 16.486 7.824 7.729 13.852 17.085 17.676 27.409 4.482 12.262 6.645 25.256 6.394 38.317l-0.019 127.149-41.748-0.006v-23.544c-7.631 9.026-17.251 16.133-28.089 20.752-12.268 5.168-25.463 7.718-38.753 7.488-10.181 0.126-20.304-1.322-30.021-4.289-8.423-2.562-16.227-6.783-22.99-12.418-6.259-5.248-11.282-11.829-14.702-19.267-3.497-7.801-5.236-16.28-5.101-24.833-0.328-8.467 1.41-16.884 5.043-24.528s9.060-14.285 15.823-19.35c16.459-11.472 36.223-17.114 56.218-16.044l59.173 0.006 0.019-13.701c0.715-6.077 0.058-12.241-1.932-18.026s-5.255-11.039-9.563-15.367c-4.309-4.33-9.543-7.619-15.282-9.623-5.757-2.004-11.901-2.67-17.947-1.946-11.166-0.261-22.217 2.55-31.915 8.129-9.988 6.211-18.913 14.020-26.409 23.119l-25.559-26.546c9.775-14.526 23.144-26.255 38.773-34.034 15.282-7.329 32.031-11.062 48.973-10.909zM2729.457 633.483c7.128 0.048 14.2-1.184 20.884-3.636 6.336-2.307 12.171-5.791 17.232-10.274 4.965-4.403 8.964-9.797 11.727-15.84 2.859-6.24 4.309-13.039 4.251-19.908v-3.853l-53.649-0.006c-9.582-0.587-19.126 1.642-27.471 6.415-3.13 2.089-5.66 4.967-7.341 8.347s-2.454 7.146-2.241 10.919c-0.193 4.098 0.676 8.174 2.55 11.821s4.656 6.73 8.094 8.943c7.766 4.902 16.807 7.362 25.965 7.068v0z" />
<path fill="#fff" d="M2988.408 448.554c14.122-0.128 28.128 2.718 41.091 8.357 12.326 5.359 23.415 13.232 32.572 23.119 9.215 10.092 16.44 21.867 21.289 34.687 5.217 13.877 7.805 28.615 7.65 43.452 0.135 14.905-2.454 29.71-7.669 43.667-4.83 12.938-12.132 24.796-21.521 34.89-9.408 10.075-20.787 18.073-33.441 23.486-12.635 5.415-26.274 8.127-40.009 7.967-13.659 0.158-27.201-2.465-39.816-7.71-11.669-4.846-21.966-12.492-30.021-22.269l-0.019 102.319-44.685-0.006 0.039-287.269 41.304 0.006-0.019 30.398c7.766-11.209 18.353-20.144 30.678-25.899 13.311-6.249 27.877-9.395 42.579-9.196zM2981.163 489.651c-7.766 0.019-15.494 1.393-22.796 4.063-7.515 2.711-14.393 6.935-20.227 12.418-6.24 5.967-11.166 13.183-14.47 21.183-3.922 9.785-5.815 20.275-5.544 30.823-0.27 10.529 1.546 21.005 5.312 30.829 3.227 8.060 8.075 15.355 14.277 21.411 5.776 5.596 12.654 9.901 20.208 12.629 7.437 2.701 15.301 4.081 23.222 4.075 8.539 0.048 17-1.625 24.902-4.919 7.689-3.196 14.644-7.93 20.439-13.918 5.95-6.205 10.587-13.558 13.639-21.616 6.51-18.121 6.51-37.961 0.019-56.087-3.033-8.017-7.592-15.363-13.427-21.62-5.718-6.025-12.596-10.83-20.227-14.126-7.998-3.47-16.614-5.222-25.328-5.147v0z" />
<path fill="#fff" d="M1049.033 663.164l-45.131-0.006 0.046-282.56 45.133 0.008-0.048 282.558zM1106.548 512.901l129.852 150.292-55.786-0.012-130.283-150.286 117.985-132.272 55.357 0.012-117.125 132.267z" />
<path fill="#fff" d="M1335.62 687.194c-6.58 17.222-17.52 32.421-31.737 44.088-13.234 9.406-29.158 14.215-45.357 13.695-5.836-0.017-11.665-0.377-17.458-1.072-5.743-0.68-11.433-1.752-17.029-3.213v-38.1c5.112 0.562 9.656 0.989 13.634 1.281 3.968 0.282 7.797 0.425 11.487 0.427 8.948 0.172 17.8-1.884 25.766-5.985 9.109-5.896 16.065-14.609 19.819-24.827l8.508-19.692-83.421-200.809 48.109 0.012 59.599 153.277 62.197-153.258 47.682 0.006-101.799 234.171z" />
<path fill="#fff" d="M1505.537 478.72c8.208-9.607 18.476-17.217 30.031-22.257 12.548-5.519 26.122-8.291 39.816-8.129 13.744-0.155 27.369 2.564 40.013 7.982s24.029 13.419 33.435 23.494c9.375 10.102 16.681 21.962 21.498 34.904 5.203 13.958 7.797 28.762 7.65 43.667 0.156 14.837-2.442 29.573-7.662 43.452-4.836 12.818-12.065 24.588-21.297 34.676-9.099 9.853-20.117 17.719-32.367 23.111-12.888 5.648-26.818 8.49-40.877 8.34-14.748 0.184-29.357-2.888-42.795-8.999-12.424-5.583-23.098-14.464-30.879-25.689v29.965l-41.292-0.006 0.046-321.093 44.702 0.006-0.023 136.575zM1568.14 489.431c-7.915-0.004-15.769 1.37-23.216 4.063-7.55 2.734-14.441 7.036-20.225 12.629-6.187 6.054-11.049 13.346-14.265 21.405-3.777 9.82-5.587 20.294-5.326 30.821-0.257 10.616 1.625 21.174 5.529 31.040 3.263 8.087 8.199 15.386 14.48 21.411 5.795 5.471 12.687 9.632 20.213 12.204 7.331 2.539 15.031 3.843 22.785 3.858 8.709 0.073 17.336-1.675 25.337-5.135 7.619-3.296 14.501-8.1 20.236-14.126 5.834-6.253 10.394-13.597 13.419-21.614 6.51-18.121 6.514-37.957 0.012-56.081-3.047-8.060-7.683-15.417-13.634-21.628-5.803-5.985-12.756-10.72-20.437-13.918-7.892-3.302-16.361-4.977-24.908-4.931v0z" />
<path fill="#fff" d="M1815.973 448.38c13.263-0.122 26.423 2.351 38.744 7.285 11.458 4.506 21.869 11.334 30.586 20.065 8.717 8.728 15.55 19.17 20.074 30.673 4.894 12.169 7.351 25.19 7.235 38.317 0.012 5.442-0.348 10.879-1.074 16.27-0.493 4.046-1.273 8.048-2.336 11.982l-155.855-0.023c2.305 15.984 10.517 30.51 23.001 40.678 12.915 9.949 28.856 15.094 45.12 14.563 11.412 0.166 22.731-2.092 33.213-6.63 10.133-4.548 19.483-10.687 27.695-18.188l21.703 30.829c-10.917 10.455-23.606 18.863-37.469 24.821-14.559 6.122-30.211 9.18-45.989 8.987-15.44 0.135-30.763-2.701-45.145-8.351-13.265-5.126-25.353-12.915-35.526-22.891s-18.217-21.931-23.645-35.138c-5.735-13.68-8.635-28.391-8.519-43.236-0.112-14.828 2.716-29.527 8.317-43.242 5.287-13.046 13.102-24.904 22.99-34.886 9.858-9.883 21.494-17.8 34.287-23.328 13.454-5.787 27.958-8.701 42.592-8.556zM1814.675 486.482c-14.316-0.365-28.261 4.587-39.173 13.91-11.062 9.741-18.558 22.928-21.286 37.455l113.692 0.017c0.164-7.165-1.217-14.281-4.050-20.859-2.83-6.578-7.041-12.463-12.349-17.25-10.249-8.807-23.355-13.531-36.836-13.274z" />
<path fill="#fff" d="M2057.835 450.982c3.207-0.031 6.413 0.185 9.582 0.645 2.705 0.427 5.178 0.925 7.457 1.499l-0.019 39.814-13.62-0.006c-8.017-0.035-15.996 1.194-23.627 3.644-7.206 2.241-13.871 5.956-19.589 10.909-5.679 5.025-10.181 11.234-13.214 18.192-3.42 8.046-5.081 16.728-4.907 25.474l-0.019 112.167-44.685-0.008 0.019-210.205 41.304 0.006-0.019 28.257c7.032-9.683 16.324-17.476 27.065-22.692 10.703-5.143 22.41-7.776 34.272-7.698z" />
</svg>
