<svg version="1.1" xmlns="http://www.w3.org/2000/svg" width="2105" height="1024" viewBox="0 0 2105 1024">
<title>Kyber Network</title>
<path fill="#fff" d="M1227.58 316.668l-73.378 167.887c-6.457 14.383-14.089 24.656-22.893 31.7-8.806 6.749-19.666 9.979-32.58 9.979-8.218 0-16.436-0.882-24.656-2.935v-27.591c9.393 0.882 15.264 1.176 17.612 1.176 7.631 0 14.089-1.468 19.372-4.697 5.283-2.935 9.685-8.806 13.501-17.024l6.163-14.089-60.464-143.82h34.928l43.441 110.068 44.613-110.068 34.34-0.586z" />
<path fill="#fff" d="M1334.125 314.025c21.133 0 39.037 7.339 53.126 22.307 14.089 14.97 21.131 34.048 21.131 56.061s-7.043 41.092-20.838 56.059c-13.797 14.968-31.407 22.307-52.538 22.307-10.861 0-21.133-2.056-30.527-6.457-9.099-4.403-16.436-10.273-22.013-17.904v21.131h-30.231v-230.406h32.286v98.033c12.033-14.383 29.057-21.719 50.776-21.719l-1.174 0.586zM1329.43 441.997c13.209 0 23.481-4.989 32.58-14.089 8.806-9.099 13.207-21.133 13.207-35.808 0-14.383-4.401-25.83-13.207-35.516-8.807-9.099-19.96-13.795-33.168-13.795-12.621 0-23.187 4.403-32.286 12.915s-13.207 20.839-13.207 36.982 4.695 28.765 13.501 36.984c8.806 8.218 19.666 12.327 32.286 12.327h0.294z" />
<path fill="#fff" d="M995.12 631.607c17.316 0 31.407 5.871 41.386 16.73 9.979 10.861 14.968 25.244 14.968 43.733v94.512h-32.286v-90.109c0-10.273-2.934-19.078-9.099-25.242-6.163-6.457-14.089-9.687-23.773-9.687-9.981 0-18.198 3.229-24.656 9.687s-9.393 14.675-9.393 24.656v90.694h-32.58v-151.451h30.233v14.968c11.447-12.327 26.416-18.198 45.201-18.198v-0.294z" />
<path fill="#fff" d="M1231.103 720.836h-112.414c2.054 12.621 7.631 22.307 16.436 29.645 8.806 7.045 19.958 10.273 33.166 10.273 15.556 0 30.525-5.869 44.027-17.61l15.262 22.013c-17.024 16.142-37.276 24.067-60.17 24.067-23.187 0-42.854-7.631-58.116-22.599-15.262-14.97-22.893-34.048-22.893-56.061s7.631-40.798 22.599-56.059c14.968-15.264 33.46-22.895 55.18-22.895 19.96 0 36.69 6.457 49.896 19.666 13.209 13.209 19.96 29.939 19.96 49.896 0-0.586-0.294 12.035-2.935 19.666zM1163.009 658.905c-10.567 0-19.958 3.229-28.177 9.979-7.925 6.751-13.209 15.556-15.556 27.297h82.183c-0.294-11.447-4.109-20.252-11.447-27.297-7.337-6.749-16.436-9.979-27.591-9.979h0.588z" />
<path fill="#fff" d="M1580.089 402.959h-112.416c2.054 12.623 7.631 22.307 16.436 29.645 8.807 7.045 19.96 10.273 33.168 10.273 15.556 0 30.525-5.869 44.027-17.61l15.262 22.013c-17.024 16.144-37.276 24.067-60.172 24.067-23.187 0-42.852-7.631-58.116-22.599-15.262-14.968-22.893-34.048-22.893-56.061s7.631-40.798 22.601-56.059c14.968-15.262 33.46-22.893 55.18-22.893 19.958 0 36.688 6.457 49.896 19.664 13.209 13.209 19.96 29.939 19.96 49.898 0-0.588 0 11.741-2.935 19.664zM1511.994 341.027c-10.567 0-19.96 3.229-28.177 9.981-7.925 6.751-13.209 15.556-15.556 27.297h82.183c-0.294-11.449-4.109-20.253-11.447-27.297-7.337-6.751-16.436-9.981-27.591-9.981h0.588z" />
<path fill="#fff" d="M1347.336 759.871c4.695 0 10.861-0.88 19.666-1.76v27.589c-9.981 2.056-19.078 3.229-27.003 3.229-17.318 0-31.113-4.403-40.8-12.915-9.685-8.513-14.675-21.719-14.675-39.331v-73.67h-24.362v-28.177h24.362v-39.625h32.578v39.625h44.909v28.177h-44.909v70.736c0 9.391 2.35 16.142 7.339 20.252s12.327 5.869 22.013 5.869h0.88z" />
<path fill="#fff" d="M1630.279 634.834l-66.921 154.387h-10.859l-47.257-100.381-47.255 100.381h-10.861l-66.921-154.387h34.634l39.625 98.621 45.787-102.142h10.861l46.375 100.675 39.035-97.445h34.342v0.292h-0.588z" />
<path fill="#fff" d="M1780.263 653.915c-15.556-14.968-34.34-22.307-56.353-22.307-22.307 0-41.092 7.631-56.647 22.601-15.262 14.968-22.893 34.046-22.893 55.765 0 22.013 7.631 40.8 22.893 55.767s34.34 22.601 56.647 22.893c22.013 0 40.798-7.631 56.647-22.893 15.556-15.262 23.187-34.34 23.187-56.059 0.294-21.719-7.631-40.8-23.481-55.767zM1756.783 744.903c-8.807 9.099-19.96 13.797-33.168 13.797-13.501 0-24.362-4.697-33.46-13.797-8.806-9.099-13.207-20.839-13.207-34.928s4.401-25.536 13.207-35.22c8.806-9.099 19.96-13.795 33.46-14.089h0.294c13.209 0.294 24.067 4.989 33.166 14.089 8.807 9.099 13.209 20.839 13.209 35.22 0 13.797-4.695 25.83-13.501 34.928z" />
<path fill="#fff" d="M1914.989 633.367c4.703 0 8.515 0.588 12.327 1.468v28.765h-9.976c-12.63 0-22.899 3.521-31.41 10.859-8.22 7.337-12.623 17.318-12.623 30.819v81.303h-32.285v-151.451h30.231v19.664c10.567-14.089 25.244-21.131 44.323-21.131l-0.588-0.294z" />
<path fill="#fff" d="M1696.616 315.789c4.697 0 8.513 0.586 12.329 1.468v28.763h-9.687c-12.621 0-22.893 3.521-31.407 10.861-8.218 7.337-12.621 17.316-12.621 30.819v81.303h-32.286v-151.453h30.233v19.666c10.567-14.089 25.242-21.133 44.321-21.133l-0.882-0.292z" />
<path fill="#fff" d="M1959.309 555.294h32.277v231.286h-32.277v-231.286zM2097.253 786.581h-38.743l-65.749-85.412 58.998-66.039h39.919l-60.761 66.333 66.336 85.118z" />
<path fill="#fff" d="M919.687 237.417h32.286v230.994h-32.286v-230.994zM1057.638 468.704h-38.743l-65.747-85.41 58.998-66.041h39.917l-61.051 66.335 66.627 85.116z" />
<path fill="#31cb9e" d="M314.761 511.853l382.446 219.252c13.209 7.633 30.233-2.054 30.233-17.316v-403.874c0-15.262-16.73-24.948-30.233-17.316l-382.446 219.254z" />
<path fill="#31cb9e" d="M674.9 198.088l-253.888-194.012c-11.741-8.806-28.763-2.641-31.993 11.741l-92.75 432.050 376.576-216.318c12.621-7.337 13.795-24.656 2.054-33.46z" />
<path fill="#31cb9e" d="M421.012 1019.923l254.476-194.305c11.447-8.806 10.273-26.123-2.056-33.46l-377.162-216.026 93.044 432.051c2.642 14.383 19.666 20.545 31.699 11.741z" />
<path fill="#31cb9e" d="M216.728 511.851l100.087-465.51c3.815-18.198-17.024-31.699-31.993-19.959l-256.236 195.773c-13.208 9.979-20.839 25.83-20.839 42.266v495.742c0 16.436 7.631 32.286 20.839 42.266l256.236 195.48c14.675 11.153 35.808-2.056 31.993-19.96l-100.087-466.097z" />
</svg>
