<svg width="171" height="37" viewBox="0 0 171 37" fill="none" xmlns="http://www.w3.org/2000/svg" xmlns:xlink="http://www.w3.org/1999/xlink">
    <title>Lossless</title>
    <path fill-rule="evenodd" clip-rule="evenodd"
          d="M36.1393 27.516L32.988 24.3699L20.8582 36.48L0 15.6557L6.70265 8.96394L9.85389 12.1101L21.9837 0L42.8419 20.8243L36.1393 27.516ZM13.0051 24.6446L4.00158 15.6557L6.70265 12.959L9.85389 16.1051L21.9837 3.99507L27.836 9.83786L25.1349 12.5346L21.9837 9.38844L12.5549 18.8018L15.7062 21.9479L13.0051 24.6446ZM15.0059 26.6421L20.8582 32.4849L32.988 20.3749L36.1393 23.521L38.8403 20.8243L29.8368 11.8354L27.1357 14.5321L30.2869 17.6782L20.8582 27.0916L17.7069 23.9455L15.0059 26.6421ZM20.8582 23.0965L16.5565 18.8018L21.9837 13.3835L26.2854 17.6782L20.8582 23.0965Z"
          fill="#fff" />
    <path d="M140.376 21.6313C140.433 21.2011 140.462 20.7135 140.462 20.398C140.376 16.0959 137.561 13.3999 133.309 13.3999C129.029 13.3999 126.156 16.4114 126.156 20.943C126.156 25.4459 129.029 28.4287 133.625 28.4287C137.245 28.4287 139.686 26.2202 140.204 23.3235H137.101C136.699 24.9583 135.291 25.9047 133.453 25.9047C131.039 25.9047 129.488 24.2699 129.402 21.7747V21.6313H140.376ZM133.338 15.8951C135.492 15.8951 136.986 17.1284 137.245 19.3082H129.517C129.747 17.2145 131.413 15.8951 133.338 15.8951Z"
          fill="#fff" />
    <path d="M149.562 28.4287C153.096 28.4287 155.739 26.6504 155.739 23.8397C155.739 20.5701 153.01 19.8818 149.735 19.4802C147.638 19.2508 146.23 19.0787 146.23 17.702C146.23 16.5261 147.436 15.7804 149.218 15.7804C151.027 15.7804 152.263 16.7269 152.435 18.0749H155.48C155.279 15.0634 152.751 13.3999 149.16 13.3999C145.684 13.3999 143.213 15.1781 143.213 17.9602C143.213 21.0003 145.828 21.7173 149.16 22.1189C151.372 22.4057 152.694 22.5204 152.694 24.0979C152.694 25.2738 151.458 26.0195 149.591 26.0195C147.379 26.0195 146.057 24.9296 145.943 23.4095H142.897C143.012 26.5931 145.684 28.4287 149.562 28.4287Z"
          fill="#fff" />
    <path d="M164.824 28.4287C168.357 28.4287 171 26.6504 171 23.8397C171 20.5701 168.271 19.8818 164.996 19.4802C162.899 19.2508 161.491 19.0787 161.491 17.702C161.491 16.5261 162.698 15.7804 164.479 15.7804C166.289 15.7804 167.524 16.7269 167.697 18.0749H170.742C170.541 15.0634 168.013 13.3999 164.422 13.3999C160.946 13.3999 158.475 15.1781 158.475 17.9602C158.475 21.0003 161.089 21.7173 164.422 22.1189C166.634 22.4057 167.955 22.5204 167.955 24.0979C167.955 25.2738 166.72 26.0195 164.852 26.0195C162.64 26.0195 161.319 24.9296 161.204 23.4095H158.159C158.274 26.5931 160.946 28.4287 164.824 28.4287Z"
          fill="#fff" />
    <path d="M120.404 25.5321V8.18018H113.05V10.9049H117.301V25.5321H113.05V28.2568H124.627V25.5321H120.404Z"
          fill="#fff" />
    <path d="M59.8377 25.5321V8.18018H52.4834V10.9049H56.7351V25.5321H52.4834V28.2568H64.0606V25.5321H59.8377Z"
          fill="#fff" />
    <path d="M73.0593 28.4289C77.4546 28.4289 80.471 25.4174 80.471 20.9145C80.471 16.4403 77.4546 13.4001 73.0593 13.4001C68.6352 13.4001 65.6476 16.4403 65.6476 20.9145C65.6476 25.4174 68.6352 28.4289 73.0593 28.4289ZM73.0593 25.7902C70.5025 25.7902 68.8076 23.7539 68.8076 20.9145C68.8076 18.0751 70.5025 16.0387 73.0593 16.0387C75.5873 16.0387 77.2822 18.0751 77.2822 20.9145C77.2822 23.7539 75.5873 25.7902 73.0593 25.7902Z"
          fill="#fff" />
    <path d="M89.4736 28.4289C93.007 28.4289 95.65 26.6506 95.65 23.8399C95.65 20.5703 92.9209 19.882 89.6459 19.4804C87.5488 19.251 86.1412 19.0789 86.1412 17.7022C86.1412 16.5263 87.3477 15.7806 89.1288 15.7806C90.9387 15.7806 92.174 16.7271 92.3463 18.0751H95.3914C95.1903 15.0636 92.6623 13.4001 89.0714 13.4001C85.5953 13.4001 83.1248 15.1783 83.1248 17.9603C83.1248 21.0005 85.739 21.7175 89.0714 22.1191C91.2834 22.4059 92.6049 22.5206 92.6049 24.098C92.6049 25.274 91.3696 26.0197 89.5023 26.0197C87.2903 26.0197 85.9688 24.9298 85.8539 23.4097H82.8088C82.9237 26.5933 85.5953 28.4289 89.4736 28.4289Z"
          fill="#fff" />
    <path d="M104.735 28.4289C108.269 28.4289 110.912 26.6506 110.912 23.8399C110.912 20.5703 108.182 19.882 104.907 19.4804C102.81 19.251 101.403 19.0789 101.403 17.7022C101.403 16.5263 102.609 15.7806 104.39 15.7806C106.2 15.7806 107.435 16.7271 107.608 18.0751H110.653C110.452 15.0636 107.924 13.4001 104.333 13.4001C100.857 13.4001 98.3863 15.1783 98.3863 17.9603C98.3863 21.0005 101 21.7175 104.333 22.1191C106.545 22.4059 107.866 22.5206 107.866 24.098C107.866 25.274 106.631 26.0197 104.764 26.0197C102.552 26.0197 101.23 24.9298 101.115 23.4097H98.0703C98.1852 26.5933 100.857 28.4289 104.735 28.4289Z"
          fill="#fff" />
</svg>
