<svg version="1.1" xmlns="http://www.w3.org/2000/svg" width="3098" height="1024" viewBox="0 0 3098 1024">
<title>Metamask</title>
<path fill="#f5841f" d="M586.091 229.806l-196.016 72.42h-163.186l-196.016-72.42-30.416 90.284 20.278 97.042-13.036 9.656 19.311 14.484-14.967 11.104 19.311 17.38-12.071 8.69 28.003 32.83-42.003 129.391 39.107 132.287 137.115-37.176 26.553 21.726 54.074 36.693h92.698l54.556-36.693 26.553-21.726 137.115 37.176 39.107-132.287-42.486-129.391zM569.194 511.278l28.003-32.347-12.071-8.69 19.311-17.38-14.967-11.104 19.311-14.484-12.553-9.656 20.278-97.042-30.416-90.284zM435.458 734.815v0zM181.024 734.815v0z" />
<path fill="#fff" d="M2736.477 513.692c-15.932-10.621-33.796-18.346-50.693-27.52-11.104-6.277-22.692-11.587-31.865-19.311-15.932-13.036-12.553-39.107 3.862-50.693 24.14-15.932 64.212-7.242 68.558 25.588 0 0.483 0.483 0.965 1.448 0.965h36.693c0.965 0 1.448-0.483 1.448-1.448-1.931-22.692-10.621-41.52-26.553-53.591-15.45-11.587-32.83-17.863-51.66-17.863-96.559 0-105.25 101.871-53.108 134.218 5.794 3.862 56.97 29.451 74.834 40.555s23.657 31.382 15.932 47.797c-7.242 14.484-25.588 24.623-43.935 23.657-20.278-0.965-35.728-12.071-41.038-28.968-0.965-2.896-1.448-9.173-1.448-11.587 0-0.483-0.483-1.448-1.448-1.448h-39.589c-0.483 0-1.448 0.483-1.448 1.448 0 28.486 7.242 44.418 26.553 58.902 18.346 13.519 38.141 19.311 58.902 19.311 54.074 0 82.075-30.416 87.386-62.281 3.862-31.382-5.311-59.385-32.83-77.731z" />
<path fill="#fff" d="M1042.819 375.129h-59.867c-0.483 0-0.965 0.483-1.448 0.965l-32.347 107.182c-0.483 1.448-2.414 1.448-2.896 0l-32.347-107.182c0-0.483-0.483-0.965-1.448-0.965h-60.35c-0.483 0-1.448 0.483-1.448 1.448v273.264c0 0.483 0.483 1.448 1.448 1.448h39.589c0.483 0 1.448-0.483 1.448-1.448v-207.604c0-1.448 2.414-1.931 2.896-0.483l32.83 107.664 2.414 7.725c0 0.483 0.483 0.965 1.448 0.965h30.416c0.483 0 0.965-0.483 1.448-0.965l2.414-7.725 32.83-107.664c0.483-1.448 2.896-0.965 2.896 0.483v207.604c0 0.483 0.483 1.448 1.448 1.448h39.589c0.483 0 1.448-0.483 1.448-1.448v-273.264c-0.965-0.965-1.448-1.448-2.414-1.448z" />
<path fill="#fff" d="M2131.048 375.129c-0.483 0-0.965 0.483-1.448 0.965l-32.347 107.182c-0.483 1.448-2.414 1.448-2.896 0l-32.347-107.182c0-0.483-0.483-0.965-1.448-0.965h-60.35c-0.483 0-1.448 0.483-1.448 1.448v273.264c0 0.483 0.483 1.448 1.448 1.448h39.589c0.483 0 1.448-0.483 1.448-1.448v-207.604c0-1.448 2.414-1.931 2.896-0.483l32.83 107.664 2.414 7.725c0 0.483 0.483 0.965 1.448 0.965h30.416c0.483 0 0.965-0.483 1.448-0.965l2.414-7.725 32.83-107.664c0.483-1.448 2.896-0.965 2.896 0.483v207.604c0 0.483 0.483 1.448 1.448 1.448h39.589c0.483 0 1.448-0.483 1.448-1.448v-273.264c0-0.483-0.483-1.448-1.448-1.448 0 0-60.833 0-60.833 0z" />
<path fill="#fff" d="M1621.212 375.129h-186.843c-0.483 0-1.448 0.483-1.448 1.448v34.278c0 0.483 0.483 1.448 1.448 1.448h72.42v237.537c0 0.483 0.483 1.448 1.448 1.448h39.589c0.483 0 1.448-0.483 1.448-1.448v-237.537h72.42c0.483 0 1.448-0.483 1.448-1.448v-34.278c-0.483-0.965-0.965-1.448-1.931-1.448z" />
<path fill="#fff" d="M1759.776 530.107l28.968-106.699c0.483-1.448 2.414-1.448 2.896 0l28.968 106.699c0 0.965-0.483 1.931-1.448 1.931h-57.935c-0.965 0-1.931-0.965-1.448-1.931zM1854.404 650.807h36.21c0.965 0 1.448-0.965 1.448-1.931l-74.352-274.23c0-0.483-0.483-0.965-1.448-0.965h-51.66c-0.483 0-0.965 0.483-1.448 0.965l-74.352 274.23c0 0.965 0.483 1.931 1.448 1.931h36.21c0.483 0 0.965-0.483 1.448-0.965l21.726-79.662c0-0.483 0.483-0.965 1.448-0.965h79.662c0.483 0 0.965 0.483 1.448 0.965l21.726 79.662c-0.965 0.483 0 0.965 0.483 0.965z" />
<path fill="#fff" d="M2373.413 530.107l28.968-106.699c0.483-1.448 2.414-1.448 2.896 0l28.968 106.699c0 0.965-0.483 1.931-1.448 1.931h-57.935c-0.965 0-1.931-0.965-1.448-1.931zM2468.042 650.807h36.21c0.965 0 1.448-0.965 1.448-1.931l-74.352-274.23c0-0.483-0.483-0.965-1.448-0.965h-51.66c-0.483 0-0.965 0.483-1.448 0.965l-74.834 274.23c0 0.965 0.483 1.931 1.448 1.931h36.21c0.483 0 0.965-0.483 1.448-0.965l21.726-79.662c0-0.483 0.483-0.965 1.448-0.965h79.662c0.483 0 0.965 0.483 1.448 0.965l21.726 79.662c-0.483 0.483 0 0.965 0.965 0.965z" />
<path fill="#fff" d="M1205.040 610.735v-84.973c0-0.483 0.483-1.448 1.448-1.448h105.25c0.483 0 1.448-0.483 1.448-1.448v-34.278c0-0.483-0.483-1.448-1.448-1.448h-105.25c-0.483 0-1.448-0.483-1.448-1.448v-72.42c0-0.483 0.483-1.448 1.448-1.448h119.734c0.483 0 1.448-0.483 1.448-1.448v-34.278c0-0.483-0.483-1.448-1.448-1.448h-162.221c-0.483 0-1.448 0.483-1.448 1.448v272.782c0 0.483 0.483 1.448 1.448 1.448h167.048c0.483 0 1.448-0.483 1.448-1.448v-36.21c0-0.483-0.483-1.448-1.448-1.448h-125.045c-0.483 0.965-0.965 0.483-0.965-0.483z" />
<path fill="#fff" d="M3097.611 648.876l-136.632-141.46c-0.483-0.483-0.483-1.448 0-1.931l123.114-127.941c0.965-0.965 0-2.414-0.965-2.414h-50.211c-0.483 0-0.483 0-0.965 0.483l-104.284 108.63c-0.965 0.965-2.414 0-2.414-0.965v-106.699c0-0.483-0.483-1.448-1.448-1.448h-39.589c-0.483 0-1.448 0.483-1.448 1.448v273.264c0 0.483 0.483 1.448 1.448 1.448h39.589c0.483 0 1.448-0.483 1.448-1.448v-120.216c0-0.965 1.448-1.931 2.414-0.965l118.286 122.149c0 0 0.483 0.483 0.965 0.483h50.211c0.483 0 1.448-1.931 0.483-2.414z" />
<path fill="#e27625" d="M586.091 229.806l-240.917 176.222 44.901-104.284z" />
<path fill="#e27625" d="M30.391 229.806l238.986 177.67-42.969-105.734z" />
<path fill="#e27625" d="M499.188 638.254l-63.729 96.559 137.115 37.659 39.107-132.287z" />
<path fill="#e27625" d="M4.803 640.185l39.107 132.287 137.115-37.659-63.729-96.559z" />
<path fill="#e27625" d="M173.782 474.585l-38.141 56.97 135.666 6.277-4.346-144.84z" />
<path fill="#e27625" d="M442.701 474.585l-94.628-83.042-2.896 146.288 135.666-6.277z" />
<path fill="#e27625" d="M181.024 734.815l82.075-39.107-70.489-54.556z" />
<path fill="#e27625" d="M353.383 695.708l82.075 39.107-11.587-93.663z" />
<path fill="#d7c1b3" d="M435.458 734.815l-82.075-39.107 6.759 52.625-0.965 22.209z" />
<path fill="#d7c1b3" d="M181.024 734.815l76.283 35.728-0.483-22.209 6.277-52.625z" />
<path fill="#2f343b" d="M258.755 606.389l-68.075-19.795 47.797-21.726z" />
<path fill="#2f343b" d="M357.729 606.389l20.278-41.52 48.28 21.726z" />
<path fill="#cc6228" d="M181.024 734.815l12.071-96.559-75.8 1.931z" />
<path fill="#cc6228" d="M423.388 638.254l12.071 96.559 63.729-94.628z" />
<path fill="#cc6228" d="M480.841 531.556l-135.666 6.277 12.553 68.558 20.278-41.52 48.28 21.726z" />
<path fill="#cc6228" d="M190.68 586.595l47.797-21.726 20.278 41.52 12.553-68.558-135.666-6.277z" />
<path fill="#e27625" d="M135.641 531.556l56.97 109.595-1.931-54.556z" />
<path fill="#e27625" d="M426.284 586.595l-2.414 54.556 56.97-109.595z" />
<path fill="#e27625" d="M271.308 537.832l-12.553 68.558 15.932 81.592 3.379-107.182z" />
<path fill="#e27625" d="M345.176 537.832l-6.759 42.486 3.379 107.664 15.932-81.592z" />
<path fill="#f5841f" d="M357.729 606.389l-15.932 81.592 11.587 7.725 70.489-54.556 2.414-54.556z" />
<path fill="#f5841f" d="M190.68 586.595l1.931 54.556 70.489 54.556 11.587-7.725-15.932-81.592z" />
<path fill="#c0ad9e" d="M359.177 770.541l0.965-22.209-6.277-4.828h-91.249l-5.794 4.828 0.483 22.209-76.283-35.728 26.553 21.726 54.074 37.176h92.698l54.556-37.176 26.553-21.726z" />
<path fill="#2f343b" d="M353.383 695.708l-11.587-7.725h-67.11l-11.587 7.725-6.277 52.625 5.794-4.828h91.249l6.277 4.828z" />
<path fill="#763e1a" d="M596.23 417.132l20.278-97.042-30.416-90.284-232.709 169.946 89.317 74.834 126.493 36.693 28.003-32.347-12.071-8.69 19.311-17.38-14.967-11.104 19.311-14.967z" />
<path fill="#763e1a" d="M-0.026 320.090l20.278 97.042-13.036 9.656 19.795 14.967-14.967 11.104 19.311 17.38-12.071 8.69 28.003 32.347 126.493-36.693 89.317-74.834-232.709-169.946z" />
<path fill="#f5841f" d="M569.194 511.278l-126.493-36.693 38.141 56.97-56.97 109.595 75.317-0.965h112.492z" />
<path fill="#f5841f" d="M173.782 474.585l-126.493 36.693-42.486 128.907h112.492l75.317 0.965-56.97-109.595z" />
<path fill="#f5841f" d="M345.176 537.832l8.208-138.081 36.693-98.009h-163.669l36.693 98.009 8.208 138.081 2.896 42.969 0.483 107.182h67.11l0.483-107.182z" />
</svg>
