<svg version="1.1" xmlns="http://www.w3.org/2000/svg" width="6685" height="1024" viewBox="0 0 6685 1024">
    <title>MEXC</title>
    <path fill="#003087"
          d="M1585.453 715.724l-347.309-603c-75.799-125.578-262.474-126.709-336.011 5.657l-364.289 626.757c-67.88 115.397 15.839 259.075 152.729 259.075h731.971c136.894 1.131 239.846-148.204 162.908-288.49z"/>
    <path fill="#1877f2"
          d="M1084.277 763.24l-21.495-37.335c-20.364-35.070-64.487-109.738-64.487-109.738l-294.146-511.362c-75.799-113.133-256.812-123.315-332.611 20.364l-342.794 592.817c-71.274 124.447 13.576 286.228 167.438 287.359h1221.84c-187.806 1.132-247.762-97.295-333.746-242.105z"/>
    <path fill="#000"
          d="M1084.277 760.976l-21.495-37.335c-20.364-35.070-64.486-109.738-64.486-109.738l-190.064-334.874-272.652 466.109c-67.88 115.396 15.839 259.075 152.73 259.075h729.712c-188.934-1.131-247.762-97.295-333.746-243.237z"/>
    <path fill="#fff"
          d="M6107.092 277.248c50.901-47.516 140.276-70.143 270.382-70.143h304.335v-173.094h-359.769c-85.981 0-158.386 9.051-214.948 27.152-55.446 18.101-104.091 46.384-145.949 85.981-44.124 42.991-79.193 96.163-104.080 159.517-24.887 64.486-37.336 134.628-37.336 208.165 0 70.143 12.449 138.023 37.336 200.246s59.956 116.527 104.080 159.517c40.73 39.597 89.376 67.88 143.682 85.981 55.434 18.102 128.966 27.152 217.215 27.152h359.769v-170.831h-304.335c-69.011 0-116.529-2.263-143.682-7.92-28.281-5.656-54.295-14.706-75.799-28.283-42.985-27.152-75.799-62.224-97.292-106.345-20.365-42.991-30.547-97.294-30.547-160.648 0-108.608 26.026-188.933 76.938-236.449z"/>
    <path fill="#fff"
          d="M3458.636 989.987h848.505v-167.437h-641.473v-238.712h560.013v-158.386h-560.013v-221.741h641.473v-168.568h-848.505v954.844z"/>
    <path fill="#fff"
          d="M4518.695 35.143l397.105 477.421-397.105 477.422h256.817l313.379-377.864v-197.984l-313.379-378.996h-256.817z"/>
    <path fill="#fff"
          d="M5482.59 35.143l-313.379 378.996v197.984l313.379 377.864h256.817l-398.232-477.422 398.232-477.421h-256.817z"/>
    <path fill="#fff"
          d="M2627.114 505.777l-381.262-470.634h-196.85v954.844h207.032v-636.94l330.349 395.967h80.321l330.349-399.36v640.333h207.032v-954.844h-194.583l-382.389 470.634z"/>
</svg>
