<svg width="149" height="30" viewBox="0 0 149 30" fill="none" xmlns="http://www.w3.org/2000/svg">
  <path
    d="M25.8597 15.625C25.8597 15.875 25.7365 16 25.6134 16H25.4903C25.244 15.875 24.8746 15.875 24.6283 15.75C20.1952 14.625 17.6093 15.25 16.7473 15.625C16.6241 15.75 16.501 15.875 16.3779 16V16.25V18.625V18.75C16.3779 19 16.6241 19.25 16.8704 19.25H16.9936C18.3481 18.875 21.3035 18.375 24.5051 19.5H24.6283C24.7514 19.5 24.7514 19.625 24.7514 19.75C24.7514 19.75 24.7514 19.875 24.6283 19.875C22.9043 23.625 19.087 26.25 14.6539 26.25C8.49688 26.25 3.57126 21.25 3.57126 15C3.57126 8.75 8.49688 3.75 14.6539 3.75C18.9638 3.75 22.7812 6.25 24.5051 10C24.5051 10 24.5051 10 24.5051 10.125C24.5051 10.125 24.5051 10.125 24.5051 10.25C24.5051 10.375 24.382 10.5 24.2589 10.5C24.2589 10.5 24.2589 10.5 24.1357 10.5C19.9489 9.375 17.4861 10 16.501 10.375H16.3779C16.2547 10.5 16.1316 10.625 16.1316 10.75V11V13.375V13.625C16.1316 13.875 16.3779 14.125 16.6241 14.125C16.7473 14.125 16.7473 14.125 16.8704 14.125C18.225 13.75 21.1803 13.25 24.2589 14.375H24.382C24.7514 14.5 24.9977 14.625 25.3671 14.625C25.4903 14.625 25.4903 14.75 25.4903 14.875C25.4903 14.875 25.4903 14.875 25.4903 15C25.4903 15.125 25.4903 15.25 25.4903 15.25C25.8597 15.25 25.8597 15.375 25.8597 15.625ZM32.1399 10.625C32.0167 10.625 32.0167 10.625 31.8936 10.625C31.2779 10.75 30.4159 11 29.1845 11C29.0613 11 28.9382 10.875 28.9382 10.875C27.0911 4.25 20.9341 -0.5 13.7919 3.20375e-07C6.52663 0.5 0.615884 6.5 0.000181686 13.875C-0.615521 22.625 6.28035 30 14.777 30C21.1803 30 26.5985 25.875 28.6919 20.125C28.6919 20 28.8151 20 28.9382 20C30.4159 20 31.6473 19.625 32.263 19.5H32.3861C32.5093 19.375 32.7556 19.25 32.7556 19V18.875V16.625V16.375C32.7556 16.125 32.5093 15.875 32.263 15.875H32.1399H32.0167C31.5242 16 30.7853 16.125 29.9233 16.25C29.8002 16.25 29.677 16.125 29.677 16C29.677 15.625 29.677 15.375 29.677 15C29.677 14.875 29.8002 14.75 29.9233 14.75H30.0465C31.0316 14.625 31.8936 14.5 32.3861 14.25C32.5093 14.25 32.5093 14.25 32.5093 14.25C32.6324 14.125 32.7556 14 32.8787 13.75V13.625V11.25C32.6324 10.875 32.3861 10.625 32.1399 10.625Z"
    fill="white"/>
  <path
    d="M141.981 21.75V14.625C142.228 14.25 142.474 14 142.843 13.75C143.213 13.5 143.705 13.375 144.198 13.375C144.69 13.375 145.06 13.5 145.306 13.75C145.552 14 145.675 14.5 145.675 15V21.625H148.508V15C148.508 13.875 148.261 13 147.646 12.375C147.03 11.75 146.291 11.375 145.183 11.375C143.705 11.375 142.597 11.875 141.735 13L141.366 11.625H139.026V21.875H141.981V21.75ZM131.637 20C131.145 20 130.775 19.875 130.529 19.625C130.283 19.5 130.16 19.125 130.16 18.75C130.16 18.25 130.406 17.875 130.899 17.5C131.391 17.25 132.007 17.125 132.869 17.125H133.854V19C133.608 19.25 133.238 19.5 132.869 19.75C132.376 20 132.007 20 131.637 20ZM130.899 21.875C131.514 21.875 132.007 21.75 132.499 21.5C132.992 21.25 133.485 20.875 133.854 20.5L134.223 21.75H136.563V15.5C136.563 14.125 136.194 13.125 135.455 12.375C134.716 11.625 133.608 11.25 132.13 11.25C131.514 11.25 130.775 11.375 130.037 11.5C129.298 11.625 128.559 11.875 127.943 12.125L128.559 14.125C129.175 14 129.667 13.875 130.16 13.75C130.775 13.625 131.268 13.5 131.637 13.5C132.869 13.5 133.608 14.125 133.608 15.25V15.5H132.376C130.775 15.5 129.544 15.75 128.682 16.375C127.82 17 127.328 17.75 127.328 18.875C127.328 19.75 127.574 20.5 128.19 21.125C128.928 21.625 129.79 21.875 130.899 21.875ZM123.756 15.5H119.693C119.816 14.75 120.062 14.25 120.432 13.875C120.801 13.5 121.294 13.375 121.909 13.375C123.141 13.375 123.756 14.125 123.756 15.5ZM121.909 22C123.264 22 124.618 21.625 126.096 20.875L125.357 19C124.742 19.25 124.126 19.5 123.633 19.625C123.141 19.75 122.771 19.875 122.279 19.875C120.678 19.875 119.816 19 119.693 17.25H126.466V16.5C126.466 13 124.988 11.25 121.909 11.25C120.309 11.25 119.077 11.75 118.215 12.625C117.23 13.75 116.861 15 116.861 16.625C116.861 18.25 117.353 19.625 118.215 20.5C119.077 21.5 120.309 22 121.909 22ZM112.797 21.875C113.29 21.875 113.782 21.875 114.275 21.75C114.767 21.625 115.26 21.5 115.752 21.25L115.383 19.25C114.644 19.5 114.028 19.75 113.29 19.75C112.428 19.75 111.689 19.5 111.319 19C110.827 18.5 110.58 17.75 110.58 16.75C110.58 15.75 110.827 15 111.319 14.375C111.689 13.75 112.304 13.5 113.166 13.5C113.782 13.5 114.521 13.625 115.137 14L115.752 12.125C114.89 11.625 113.905 11.375 112.797 11.375C111.196 11.375 109.842 11.875 108.98 12.75C108.118 13.75 107.748 15 107.748 16.625C107.748 18.375 108.241 19.625 109.103 20.5C109.842 21.5 111.196 21.875 112.797 21.875ZM99.8672 19.625C98.7589 19.625 97.897 19.25 97.2813 18.375C96.6656 17.5 96.4193 16.375 96.4193 14.75C96.4193 13.25 96.6656 12 97.2813 11.25C97.897 10.5 98.7589 10 99.8672 10C100.975 10 101.837 10.375 102.453 11.25C103.069 12 103.315 13.25 103.315 14.75C103.315 16.375 103.069 17.5 102.453 18.375C101.837 19.25 100.975 19.625 99.8672 19.625ZM99.8672 22C101.961 22 103.561 21.375 104.67 20.125C105.778 18.875 106.394 17.125 106.394 14.75C106.394 12.5 105.778 10.75 104.67 9.5C103.561 8.25 101.961 7.625 99.8672 7.625C97.7738 7.625 96.173 8.25 95.0647 9.5C93.9565 10.75 93.3408 12.5 93.3408 14.75C93.3408 17.125 93.8333 18.875 94.9416 20.125C96.0499 21.375 97.6507 22 99.8672 22ZM84.8441 21.75V14.625C85.0904 14.25 85.4598 14 85.8292 13.75C86.1986 13.5 86.6912 13.375 87.1837 13.375C87.6763 13.375 88.0457 13.5 88.292 13.75C88.5383 14 88.6614 14.5 88.6614 15V21.625H91.4937V15C91.4937 13.875 91.2474 13 90.6317 12.375C90.016 11.75 89.2771 11.375 88.1689 11.375C86.6912 11.375 85.5829 11.875 84.7209 13L84.3515 11.625H81.8887V21.875H84.8441V21.75ZM77.3325 15.5H73.2689C73.392 14.75 73.6383 14.25 74.0077 13.875C74.3771 13.5 74.8697 13.375 75.4854 13.375C76.7168 13.375 77.3325 14.125 77.3325 15.5ZM75.4854 22C76.8399 22 78.1945 21.625 79.6722 20.875L78.9333 19C78.3176 19.25 77.7019 19.5 77.2094 19.625C76.7168 19.75 76.2242 19.75 75.7317 19.75C74.1308 19.75 73.2689 18.875 73.1457 17.125H79.9184V16.5C79.9184 13 78.4408 11.25 75.3623 11.25C73.7614 11.25 72.53 11.75 71.668 12.625C70.9292 13.75 70.4366 15 70.4366 16.625C70.4366 18.25 70.9292 19.625 71.7912 20.5C72.6532 21.5 74.0077 22 75.4854 22ZM63.5408 20C63.2945 20 63.0482 20 62.8019 20C62.5556 20 62.3094 19.875 61.9399 19.875V15.125C62.0631 14.625 62.3094 14.25 62.6788 14C63.0482 13.75 63.5408 13.625 64.0333 13.625C65.3879 13.625 66.1267 14.625 66.1267 16.75C66.1267 17.875 65.8804 18.75 65.3879 19.25C65.1416 19.625 64.5259 20 63.5408 20ZM62.0631 26.25V21.75C62.6788 21.875 63.1713 22 63.787 22C64.8953 22 65.8804 21.75 66.6193 21.375C67.4813 21 68.097 20.375 68.4664 19.5C68.9589 18.625 69.0821 17.75 69.0821 16.625C69.0821 15 68.7127 13.75 67.9738 12.875C67.235 12 66.1267 11.5 64.7722 11.5C64.1565 11.5 63.6639 11.625 63.1713 11.875C62.6788 12.125 62.3094 12.375 61.8168 12.875L61.3242 11.625H59.1077V26.25H62.0631ZM50.4879 19.625C49.3796 19.625 48.5176 19.25 47.9019 18.375C47.2862 17.625 47.0399 16.375 47.0399 14.75C47.0399 13.25 47.2862 12 47.9019 11.25C48.5176 10.5 49.3796 10 50.4879 10C51.5961 10 52.4581 10.375 53.0738 11.25C53.8127 12.125 54.0589 13.25 54.0589 14.75C54.0589 16.375 53.8127 17.5 53.197 18.375C52.5813 19.25 51.7193 19.625 50.4879 19.625ZM50.4879 22C52.5813 22 54.1821 21.375 55.2904 20.125C56.3986 18.875 57.0143 17.125 57.0143 14.75C57.0143 12.5 56.3986 10.75 55.2904 9.5C54.1821 8.25 52.5813 7.625 50.4879 7.625C48.3945 7.625 46.7937 8.25 45.6854 9.5C44.5771 10.75 43.9614 12.5 43.9614 14.75C43.9614 17.125 44.454 18.875 45.5623 20.125C46.7937 21.375 48.3945 22 50.4879 22Z"
    fill="white"/>
</svg>
