<svg width="143" height="40" viewBox="0 0 143 40" fill="none" xmlns="http://www.w3.org/2000/svg">
  <path
    d="M49.9382 18.663V16.3792H55.2291C56.8417 16.3792 57.8019 15.3391 57.8019 13.8166C57.8019 12.2569 56.8417 11.2725 55.2291 11.2725H48.2533V22.414H45.9702V8.9144H55.2291C58.2731 8.9144 60.0485 10.7896 60.0485 13.7422C60.0485 16.6576 58.2731 18.663 55.2291 18.663H49.9382Z"
    fill="#574793"/>
  <path
    d="M73.5105 22.4139L71.5353 19.0159H65.3026L66.3896 17.1035H70.4301L67.495 12.0525L61.5155 22.4139H58.8882L66.4621 9.48988C66.734 9.02587 67.0782 8.72864 67.5854 8.72864C68.0929 8.72864 68.4192 9.02587 68.6908 9.48988L76.2826 22.4139H73.5105Z"
    fill="#574793"/>
  <path d="M77.6953 22.414V8.9144H79.9963V20.0559H88.8565V22.414H77.6953Z" fill="#574793"/>
  <path
    d="M104.239 22.4139L102.263 19.0159H96.0306L97.1176 17.1035H101.158L98.223 12.0525L92.2438 22.4139H89.6162L97.1902 9.48988C97.4621 9.02587 97.8065 8.72864 98.3134 8.72864C98.8209 8.72864 99.1472 9.02587 99.4191 9.48988L107.011 22.4139H104.239Z"
    fill="#574793"/>
  <path
    d="M116.052 20.0558C118.425 20.0558 120.165 18.1803 120.165 15.6365C120.165 13.0924 118.425 11.2724 116.052 11.2724H110.707V20.0558H116.052ZM108.424 22.4139V8.91429H116.052C119.766 8.91429 122.466 11.6068 122.466 15.5249C122.466 19.443 119.766 22.4139 116.052 22.4139H108.424Z"
    fill="#574793"/>
  <path d="M126.777 8.91422H124.476V22.4138H126.777V8.91422Z" fill="#574793"/>
  <path
    d="M131.325 12.5352V22.4142H129.133V10.1582C129.133 9.28565 129.586 8.74698 130.311 8.74698C130.655 8.74698 130.945 8.87686 131.289 9.22987L140.584 18.6815V8.80276H142.777V21.1698C142.777 22.0612 142.305 22.5813 141.635 22.5813C141.255 22.5813 140.91 22.4142 140.584 22.0798L131.325 12.5352Z"
    fill="#574793"/>
  <path
    d="M47.3307 30.4645H48.1763C48.3798 30.4645 48.542 30.4135 48.6627 30.3112C48.7831 30.2092 48.8441 30.065 48.8441 29.8779V29.8196C48.8441 29.6328 48.7844 29.4883 48.6657 29.3863C48.5472 29.2843 48.3839 29.233 48.1763 29.233H47.3307V30.4645ZM47.3307 28.5228H48.17C48.3649 28.5228 48.5227 28.4732 48.6434 28.3729C48.7644 28.2732 48.8246 28.1343 48.8246 27.9562V27.8911C48.8246 27.7128 48.7644 27.5742 48.6434 27.4739C48.5227 27.3741 48.3649 27.3243 48.17 27.3243H47.3307V28.5228ZM45.9702 31.1747V30.4839H46.5676V27.3048H45.9702V26.614H48.2459C48.5131 26.614 48.7473 26.6608 48.9488 26.754C49.1498 26.8476 49.3065 26.98 49.4189 27.1516C49.5314 27.3231 49.5874 27.5283 49.5874 27.7672V27.826C49.5874 28.0342 49.5498 28.2061 49.4734 28.3405C49.3972 28.4752 49.3059 28.5794 49.1998 28.6532C49.0937 28.727 48.9923 28.7792 48.8947 28.8099V28.9206C48.9923 28.9465 49.0967 28.9952 49.2092 29.0671C49.3216 29.1384 49.4167 29.2429 49.4953 29.3795C49.5737 29.5165 49.613 29.6934 49.613 29.9106V29.9757C49.613 30.2236 49.5547 30.4372 49.4382 30.6175C49.3216 30.7978 49.163 30.9358 48.9615 31.0313C48.76 31.1269 48.5279 31.1747 48.2654 31.1747H45.9702Z"
    fill="#8C6EDF"/>
  <path d="M51.9209 31.1746V26.6138H52.6895V30.4643H54.775V31.1746H51.9209Z" fill="#8C6EDF"/>
  <path
    d="M58.5194 30.5622C58.8501 30.5622 59.1075 30.4636 59.2919 30.2658C59.4761 30.068 59.5682 29.8001 59.5682 29.4612V28.3275C59.5682 27.9888 59.4761 27.7206 59.2919 27.5228C59.1075 27.3253 58.8501 27.2264 58.5194 27.2264C58.1928 27.2264 57.938 27.3253 57.7535 27.5228C57.5691 27.7206 57.477 27.9888 57.477 28.3275V29.4612C57.477 29.8001 57.5691 30.068 57.7535 30.2658C57.938 30.4636 58.1928 30.5622 58.5194 30.5622ZM58.5194 31.2657C57.9685 31.2657 57.5287 31.1082 57.2004 30.7932C56.8719 30.4788 56.7075 30.0258 56.7075 29.435V28.3537C56.7075 27.7631 56.8719 27.3101 57.2004 26.9951C57.5287 26.6804 57.9685 26.5229 58.5194 26.5229C59.0747 26.5229 59.5151 26.6804 59.8417 26.9951C60.1678 27.3101 60.3311 27.7631 60.3311 28.3537V29.435C60.3311 30.0258 60.1678 30.4788 59.8417 30.7932C59.5151 31.1082 59.0747 31.2657 58.5194 31.2657Z"
    fill="#8C6EDF"/>
  <path
    d="M64.3616 31.2659C63.8192 31.2659 63.3867 31.1084 63.0648 30.7934C62.7429 30.4784 62.5815 30.026 62.5815 29.4349V28.3536C62.5815 27.7628 62.7429 27.3103 63.0648 26.9953C63.3867 26.6801 63.8192 26.5229 64.3616 26.5229C64.9042 26.5229 65.3226 26.675 65.6171 26.9787C65.9118 27.2827 66.0591 27.7 66.0591 28.2296V28.2691H65.3086V28.2102C65.3086 27.9237 65.2314 27.6879 65.0769 27.5033C64.9218 27.3188 64.6838 27.2264 64.3616 27.2264C64.0479 27.2264 63.801 27.3253 63.621 27.5228C63.4409 27.7205 63.3507 27.9933 63.3507 28.3406V29.4481C63.3507 29.7913 63.4409 30.0629 63.621 30.2626C63.801 30.4624 64.0479 30.5624 64.3616 30.5624C64.6838 30.5624 64.9218 30.47 65.0769 30.2852C65.2314 30.1006 65.3086 29.8651 65.3086 29.5786V29.4676H66.0591V29.5589C66.0591 30.0888 65.9118 30.5058 65.6171 30.8098C65.3226 31.114 64.9042 31.2659 64.3616 31.2659Z"
    fill="#8C6EDF"/>
  <path
    d="M68.3667 31.1746V26.6138H69.1359V28.4708H69.2439L70.7955 26.6138H71.7805L69.8419 28.8618L71.8443 31.1746H70.8332L69.2439 29.2788H69.1359V31.1746H68.3667Z"
    fill="#8C6EDF"/>
  <path
    d="M75.3913 31.2659C74.8487 31.2659 74.4163 31.1084 74.0946 30.7934C73.7724 30.4784 73.6113 30.026 73.6113 29.4349V28.3536C73.6113 27.7628 73.7724 27.3103 74.0946 26.9953C74.4163 26.6801 74.8487 26.5229 75.3913 26.5229C75.934 26.5229 76.3524 26.675 76.6466 26.9787C76.9415 27.2827 77.0886 27.7 77.0886 28.2296V28.2691H76.3384V28.2102C76.3384 27.9237 76.2612 27.6879 76.1067 27.5033C75.9516 27.3188 75.7135 27.2264 75.3913 27.2264C75.0777 27.2264 74.8308 27.3253 74.6505 27.5228C74.4707 27.7205 74.3805 27.9933 74.3805 28.3406V29.4481C74.3805 29.7913 74.4707 30.0629 74.6505 30.2626C74.8308 30.4624 75.0777 30.5624 75.3913 30.5624C75.7135 30.5624 75.9516 30.47 76.1067 30.2852C76.2612 30.1006 76.3384 29.8651 76.3384 29.5786V29.4676H77.0886V29.5589C77.0886 30.0888 76.9415 30.5058 76.6466 30.8098C76.3524 31.114 75.934 31.2659 75.3913 31.2659Z"
    fill="#8C6EDF"/>
  <path
    d="M79.3965 31.1746V26.6138H80.1654V28.5296H81.9199V26.6138H82.689V31.1746H81.9199V29.2461H80.1654V31.1746H79.3965Z"
    fill="#8C6EDF"/>
  <path
    d="M86.0775 29.4157H87.3805L86.7832 27.1029H86.6748L86.0775 29.4157ZM84.8442 31.1748L86.0645 26.6141H87.3935L88.614 31.1748H87.8256L87.5589 30.1321H85.8996L85.6324 31.1748H84.8442Z"
    fill="#8C6EDF"/>
  <path d="M91.5384 26.6139H90.7695V31.1746H91.5384V26.6139Z" fill="#8C6EDF"/>
  <path
    d="M94.0049 31.1746V26.6138H95.4668L96.5156 30.6469H96.6179V26.6138H97.3741V31.1746H95.918L94.8695 27.1418H94.7612V31.1746H94.0049Z"
    fill="#8C6EDF"/>
  <path
    d="M104.583 31.2659C104.244 31.2659 103.944 31.2039 103.683 31.0802C103.423 30.9563 103.218 30.7771 103.07 30.5427C102.922 30.308 102.848 30.0215 102.848 29.6828V29.5132H103.604V29.6828C103.604 29.9823 103.693 30.206 103.871 30.3536C104.049 30.5013 104.287 30.5754 104.583 30.5754C104.884 30.5754 105.111 30.5125 105.264 30.3863C105.416 30.2604 105.492 30.0975 105.492 29.8978C105.492 29.7631 105.456 29.6532 105.384 29.5684C105.312 29.4842 105.207 29.4155 105.069 29.3633C104.931 29.3112 104.765 29.2613 104.57 29.2134L104.379 29.1746C104.087 29.105 103.834 29.0171 103.62 28.9106C103.406 28.8041 103.242 28.666 103.127 28.4967C103.012 28.3277 102.956 28.1059 102.956 27.8324C102.956 27.5588 103.019 27.3241 103.146 27.1289C103.274 26.9331 103.454 26.7835 103.687 26.679C103.92 26.575 104.193 26.5229 104.507 26.5229C104.821 26.5229 105.1 26.5773 105.346 26.6857C105.592 26.7942 105.786 26.9573 105.928 27.1743C106.07 27.3915 106.14 27.6631 106.14 27.9887V28.2037H105.384V27.9887C105.384 27.802 105.348 27.6521 105.276 27.5391C105.204 27.4264 105.102 27.3439 104.971 27.2915C104.839 27.2393 104.685 27.2134 104.507 27.2134C104.244 27.2134 104.045 27.2655 103.909 27.3698C103.773 27.474 103.706 27.6216 103.706 27.8129C103.706 27.9344 103.736 28.0375 103.798 28.1223C103.859 28.2071 103.95 28.2767 104.072 28.3305C104.192 28.3854 104.344 28.4316 104.526 28.4708L104.717 28.5167C105.022 28.586 105.289 28.6739 105.517 28.7801C105.746 28.8866 105.925 29.0269 106.055 29.2008C106.184 29.3743 106.249 29.6003 106.249 29.8781C106.249 30.1516 106.18 30.3928 106.042 30.6013C105.904 30.8098 105.711 30.9726 105.463 31.0898C105.215 31.2073 104.922 31.2659 104.583 31.2659Z"
    fill="#8C6EDF"/>
  <path
    d="M108.505 31.1746V26.6138H111.341V27.3241H109.275V28.5229H111.163V29.2329H109.275V30.4643H111.372V31.1746H108.505Z"
    fill="#8C6EDF"/>
  <path
    d="M115.301 31.2659C114.759 31.2659 114.326 31.1084 114.004 30.7934C113.682 30.4784 113.521 30.026 113.521 29.4349V28.3536C113.521 27.7628 113.682 27.3103 114.004 26.9953C114.326 26.6801 114.759 26.5229 115.301 26.5229C115.844 26.5229 116.262 26.675 116.556 26.9787C116.851 27.2827 116.998 27.7 116.998 28.2296V28.2691H116.248V28.2102C116.248 27.9237 116.171 27.6879 116.016 27.5033C115.861 27.3188 115.623 27.2264 115.301 27.2264C114.987 27.2264 114.74 27.3253 114.56 27.5228C114.38 27.7205 114.29 27.9933 114.29 28.3406V29.4481C114.29 29.7913 114.38 30.0629 114.56 30.2626C114.74 30.4624 114.987 30.5624 115.301 30.5624C115.623 30.5624 115.861 30.47 116.016 30.2852C116.171 30.1006 116.248 29.8651 116.248 29.5786V29.4676H116.998V29.5589C116.998 30.0888 116.851 30.5058 116.556 30.8098C116.262 31.114 115.844 31.2659 115.301 31.2659Z"
    fill="#8C6EDF"/>
  <path
    d="M120.997 31.2658C120.641 31.2658 120.335 31.1996 120.079 31.0672C119.822 30.9345 119.625 30.7423 119.487 30.4904C119.349 30.2389 119.281 29.9391 119.281 29.5917V26.6141H120.043V29.6111C120.043 29.9149 120.126 30.1495 120.291 30.3146C120.457 30.4797 120.692 30.5623 120.997 30.5623C121.306 30.5623 121.543 30.4797 121.706 30.3146C121.869 30.1495 121.951 29.9149 121.951 29.6111V26.6141H122.714V29.5917C122.714 29.9391 122.646 30.2389 122.51 30.4904C122.374 30.7423 122.177 30.9345 121.919 31.0672C121.66 31.1996 121.353 31.2658 120.997 31.2658Z"
    fill="#8C6EDF"/>
  <path
    d="M125.93 28.7056H126.985C127.206 28.7056 127.379 28.6456 127.503 28.5264C127.628 28.4069 127.691 28.2472 127.691 28.0472V27.9888C127.691 27.7846 127.629 27.6229 127.506 27.5034C127.384 27.384 127.21 27.3242 126.985 27.3242H125.93V28.7056ZM125.161 31.1747V26.614H127.062C127.341 26.614 127.585 26.6639 127.793 26.7639C128 26.8639 128.163 27.0039 128.279 27.1842C128.396 27.3642 128.454 27.5803 128.454 27.8322V27.904C128.454 28.1861 128.388 28.412 128.257 28.5816C128.125 28.7509 127.967 28.8749 127.78 28.9529V29.0572C127.945 29.0659 128.075 29.1245 128.171 29.233C128.266 29.3415 128.314 29.4871 128.314 29.6697V31.1747H127.551V29.7804C127.551 29.6717 127.523 29.584 127.465 29.5164C127.408 29.4491 127.316 29.4156 127.189 29.4156H125.93V31.1747H125.161Z"
    fill="#8C6EDF"/>
  <path d="M131.537 26.6139H130.768V31.1746H131.537V26.6139Z" fill="#8C6EDF"/>
  <path d="M135.053 31.1746V27.3241H133.724V26.6138H137.144V27.3241H135.816V31.1746H135.053Z" fill="#8C6EDF"/>
  <path
    d="M140.482 31.1746V29.5656L138.95 26.6138H139.808L140.812 28.6271H140.92L141.925 26.6138H142.776L141.245 29.5656V31.1746H140.482Z"
    fill="#8C6EDF"/>
  <path
    d="M26.0726 12.9864V19.8114C26.0726 21.6779 25.4648 23.5906 24.363 25.1959C23.3749 26.6364 22.0348 27.7848 20.3666 28.6215C21.1006 28.9371 22.0928 29.3239 22.4848 29.4755C23.8132 28.6032 24.9235 27.5214 25.8057 26.2366C27.1153 24.3287 27.837 22.0467 27.837 19.8114V13.2737C27.3342 13.183 26.7379 13.0836 26.0726 12.9864ZM19.5117 29.0123C17.4427 28.1561 15.8134 26.8745 14.6618 25.1959C13.5588 23.5906 12.9519 21.6779 12.9519 19.8114V15.6485C12.3817 15.7358 11.1875 15.9649 11.1875 15.9649V19.8114C11.1875 22.0467 11.9091 24.3287 13.2177 26.2366C14.6928 28.3854 16.8082 29.9677 19.5117 30.945H19.5128C20.3136 30.6557 21.0627 30.3131 21.7585 29.9172C21.7164 29.902 20.3732 29.3867 19.5117 29.0123ZM19.5117 12.4688C16.2554 12.4688 13.069 12.9359 11.1875 13.2737V15.1301C11.1875 15.1301 12.3817 14.901 12.9519 14.8134C14.8025 14.5323 17.1398 14.277 19.5117 14.277C21.5485 14.277 23.5591 14.4649 25.2581 14.6971V12.8737C23.5737 12.6528 21.5564 12.4688 19.5117 12.4688Z"
    fill="#8C6EDF"/>
  <path
    d="M20.6912 0.454227C20.6709 0.744415 20.853 0.972424 21.1361 1.01388C21.3991 1.03461 21.6418 0.827324 21.662 0.557861C21.6822 0.267673 21.5002 0.01894 21.217 -0.00178909H21.1766C20.9136 -0.00178909 20.7114 0.20549 20.6912 0.454227ZM17.7989 -0.00178909C17.536 0.01894 17.3337 0.267673 17.3539 0.557861C17.3742 0.827324 17.6169 1.03461 17.9 1.01388C18.163 0.972424 18.3652 0.744415 18.345 0.454227C18.3248 0.20549 18.1023 -0.00178909 17.8394 -0.00178909H17.7989ZM23.9879 0.97242C23.907 1.24188 24.0688 1.51134 24.3318 1.57353C24.5947 1.65644 24.8576 1.49062 24.9385 1.22116C24.9992 0.951694 24.8374 0.682232 24.5745 0.599319C24.534 0.599319 24.4936 0.599319 24.4531 0.599319C24.2306 0.599319 24.0284 0.744411 23.9879 0.97242ZM14.4415 0.599319C14.1785 0.682232 14.0167 0.951694 14.0976 1.22116C14.1583 1.49062 14.4415 1.65644 14.7044 1.57353C14.9673 1.51134 15.1089 1.24188 15.0482 0.97242C14.9876 0.744411 14.7853 0.599319 14.5628 0.599319C14.5224 0.599319 14.4819 0.599319 14.4415 0.599319ZM18.8709 1.94663C18.8709 2.299 19.154 2.60992 19.5181 2.60992C19.8619 2.60992 20.1653 2.299 20.1653 1.94663C20.1653 1.57353 19.8619 1.28334 19.5181 1.28334C19.154 1.28334 18.8709 1.57353 18.8709 1.94663ZM21.9451 2.09173C21.8845 2.46483 22.1069 2.79648 22.4508 2.85866C22.8148 2.92085 23.1385 2.69284 23.1991 2.34046C23.2598 1.96736 23.0373 1.63572 22.6935 1.57353C22.653 1.5528 22.6126 1.5528 22.5721 1.5528C22.2688 1.5528 21.9856 1.78081 21.9451 2.09173ZM16.3427 1.57353C15.9988 1.63572 15.7561 1.96736 15.8168 2.34046C15.8775 2.69284 16.2213 2.92085 16.5651 2.85866C16.909 2.79648 17.1517 2.46483 17.091 2.09173C17.0303 1.78081 16.7674 1.5528 16.464 1.5528C16.4236 1.5528 16.3831 1.5528 16.3427 1.57353ZM27.1431 2.05027C27.0218 2.29901 27.1229 2.60993 27.3656 2.71357C27.6285 2.83793 27.9117 2.73429 28.033 2.48555C28.1342 2.21609 28.033 1.9259 27.7903 1.80154C27.7297 1.78081 27.6487 1.76008 27.5881 1.76008C27.406 1.76008 27.224 1.86372 27.1431 2.05027ZM11.2256 1.80154C10.9829 1.9259 10.8818 2.21609 11.0031 2.48555C11.1042 2.73429 11.4076 2.83793 11.6503 2.71357C11.893 2.60993 11.9942 2.29901 11.893 2.05027C11.8121 1.86372 11.6301 1.76008 11.4481 1.76008C11.3672 1.76008 11.3065 1.78081 11.2256 1.80154ZM24.9385 2.79647C24.8172 3.14885 24.979 3.52195 25.3228 3.64632C25.6464 3.77068 26.0307 3.60487 26.1521 3.25249C26.2734 2.92085 26.0914 2.52701 25.7678 2.40265C25.6869 2.38192 25.606 2.36119 25.5453 2.36119C25.2824 2.36119 25.0194 2.52701 24.9385 2.79647ZM13.2684 2.40265C12.9245 2.52701 12.7627 2.92085 12.8841 3.25249C13.0055 3.60487 13.3695 3.77068 13.7133 3.64632C14.037 3.52195 14.219 3.14885 14.0976 2.79647C13.9965 2.52701 13.7538 2.36119 13.4909 2.36119C13.41 2.36119 13.3493 2.38192 13.2684 2.40265ZM20.1653 3.52195C20.1248 3.95724 20.4282 4.33034 20.853 4.3718C21.2575 4.41325 21.6215 4.08161 21.662 3.66705C21.7024 3.23176 21.3991 2.85866 20.9743 2.8172H20.9136C20.5294 2.8172 20.1855 3.12812 20.1653 3.52195ZM18.0416 2.8172C17.6371 2.85866 17.3337 3.23176 17.3539 3.66705C17.3944 4.08161 17.7585 4.41325 18.1832 4.3718C18.5877 4.33034 18.8911 3.95724 18.8709 3.52195C18.8304 3.12812 18.5068 2.8172 18.1225 2.8172C18.0821 2.8172 18.0416 2.8172 18.0416 2.8172ZM22.9362 3.89505C22.8351 4.30961 23.0778 4.72417 23.4823 4.84854C23.8868 4.95218 24.2913 4.70344 24.3924 4.28889C24.5138 3.87433 24.2711 3.45977 23.8666 3.35613C23.8059 3.3354 23.725 3.31467 23.6643 3.31467C23.3407 3.31467 23.0373 3.54268 22.9362 3.89505ZM15.1494 3.35613C14.7651 3.45977 14.5224 3.87433 14.6235 4.28889C14.7246 4.70344 15.1494 4.95218 15.5539 4.84854C15.9584 4.72417 16.2011 4.30961 16.0797 3.89505C15.9988 3.54268 15.6954 3.31467 15.3516 3.31467C15.2909 3.31467 15.2303 3.3354 15.1494 3.35613ZM30.0556 3.68777C29.914 3.91578 29.9545 4.2267 30.1769 4.3718C30.3994 4.53762 30.7028 4.47543 30.8646 4.24743C31.0264 4.01942 30.9657 3.7085 30.7433 3.56341C30.6624 3.50122 30.5612 3.45977 30.4601 3.45977C30.3185 3.45977 30.1567 3.54268 30.0556 3.68777ZM8.27267 3.56341C8.05019 3.7085 8.00974 4.01942 8.15132 4.24743C8.31312 4.47543 8.61651 4.53762 8.83899 4.3718C9.06147 4.2267 9.12215 3.91578 8.96034 3.68777C8.85921 3.54268 8.71764 3.45977 8.55583 3.45977C8.4547 3.45977 8.3738 3.50122 8.27267 3.56341ZM27.7701 4.04015C27.5881 4.35107 27.6892 4.7449 27.9926 4.93145C28.3162 5.118 28.7005 5.01436 28.8825 4.68272C29.0645 4.3718 28.9432 3.97797 28.6398 3.79142C28.5387 3.72923 28.4375 3.7085 28.3162 3.7085C28.0937 3.7085 27.8915 3.81214 27.7701 4.04015ZM10.3761 3.79142C10.0727 3.97797 9.97162 4.3718 10.1536 4.68272C10.3155 5.01436 10.72 5.118 11.0233 4.93145C11.3267 4.7449 11.4481 4.35107 11.2661 4.04015C11.1447 3.81214 10.9222 3.7085 10.6997 3.7085C10.5986 3.7085 10.4773 3.72923 10.3761 3.79142ZM25.6262 4.7449C25.4442 5.13873 25.606 5.59474 25.9903 5.7813C26.3543 5.94712 26.8195 5.78129 26.9813 5.40819C27.1633 5.01436 27.0015 4.55835 26.6172 4.3718C26.5161 4.33034 26.415 4.30961 26.2936 4.30961C26.0105 4.30961 25.7475 4.47544 25.6262 4.7449ZM12.3987 4.3718C12.0346 4.55835 11.8526 5.01436 12.0346 5.40819C12.2167 5.78129 12.6616 5.94712 13.0459 5.7813C13.41 5.59474 13.592 5.13873 13.41 4.7449C13.2886 4.47544 13.0055 4.30961 12.7223 4.30961C12.6212 4.30961 12.4998 4.33034 12.3987 4.3718ZM18.6282 5.20091C18.6282 5.71911 19.0327 6.11294 19.5181 6.11294C20.0035 6.11294 20.3878 5.71911 20.3878 5.20091C20.3878 4.70344 20.0035 4.30961 19.5181 4.30961C19.0327 4.30961 18.6282 4.70344 18.6282 5.20091ZM21.1563 5.28382C21.0552 5.76056 21.3788 6.23731 21.8642 6.32022C22.3497 6.40313 22.7946 6.09221 22.8957 5.59474C22.9766 5.09727 22.653 4.64125 22.1676 4.53762C22.1272 4.53762 22.0665 4.53762 22.026 4.53762C21.6013 4.53762 21.217 4.84854 21.1563 5.28382ZM16.8483 4.53762C16.3831 4.64125 16.0595 5.09727 16.1404 5.59474C16.2213 6.09221 16.6865 6.40313 17.1517 6.32022C17.6371 6.23731 17.9607 5.76056 17.8798 5.28382C17.7989 4.84854 17.4348 4.53762 17.0101 4.53762C16.9494 4.53762 16.909 4.53762 16.8483 4.53762ZM23.6239 5.80202C23.4418 6.25803 23.6845 6.77623 24.1497 6.94205C24.5947 7.12861 25.1003 6.87987 25.2824 6.40313C25.4442 5.94712 25.2015 5.42892 24.7565 5.2631C24.6554 5.22164 24.5542 5.20091 24.4531 5.20091C24.0891 5.20091 23.7452 5.42892 23.6239 5.80202ZM14.2797 5.2631C13.8145 5.42892 13.592 5.94712 13.7538 6.40313C13.9156 6.87987 14.4212 7.12861 14.8864 6.94205C15.3314 6.77623 15.5741 6.25803 15.4123 5.80202C15.2707 5.42892 14.9471 5.20091 14.583 5.20091C14.4819 5.20091 14.3808 5.22164 14.2797 5.2631ZM30.3387 5.73984C30.1163 6.03003 30.1567 6.44459 30.4196 6.67259C30.7028 6.9006 31.1073 6.87988 31.3298 6.58968C31.5523 6.32022 31.5321 5.88493 31.2489 5.65693C31.1275 5.55329 30.986 5.51183 30.8444 5.51183C30.6624 5.51183 30.4803 5.59474 30.3387 5.73984ZM7.76703 5.65693C7.5041 5.88493 7.46365 6.32022 7.68613 6.58968C7.92884 6.87988 8.33335 6.9006 8.59628 6.67259C8.87944 6.44459 8.91989 6.03003 8.67718 5.73984C8.55583 5.59474 8.3738 5.51183 8.19177 5.51183C8.05019 5.51183 7.88839 5.55329 7.76703 5.65693ZM32.6647 5.80202C32.4827 6.0093 32.4827 6.32022 32.6647 6.5275C32.8669 6.71405 33.1703 6.71405 33.3524 6.5275C33.5546 6.32022 33.5546 6.0093 33.3524 5.80202C33.2714 5.69838 33.1299 5.65693 33.0085 5.65693C32.8872 5.65693 32.7658 5.69838 32.6647 5.80202ZM5.66358 5.80202C5.46132 6.0093 5.46132 6.32022 5.66358 6.5275C5.86583 6.71405 6.16921 6.71405 6.35124 6.5275C6.5535 6.32022 6.5535 6.0093 6.35124 5.80202C6.27034 5.69838 6.12876 5.65693 6.00741 5.65693C5.88606 5.65693 5.7647 5.69838 5.66358 5.80202ZM28.1139 6.07148C27.8712 6.42386 27.9521 6.9006 28.296 7.14933C28.6398 7.39807 29.105 7.29443 29.3477 6.96278C29.5904 6.61041 29.5095 6.11294 29.1657 5.88493C29.0241 5.78129 28.8825 5.73984 28.7207 5.73984C28.4982 5.73984 28.2555 5.84348 28.1139 6.07148ZM9.87049 5.88493C9.52666 6.11294 9.44576 6.61041 9.68846 6.96278C9.91094 7.29443 10.3964 7.39807 10.7402 7.14933C11.0638 6.9006 11.1649 6.42386 10.9222 6.07148C10.7604 5.84348 10.5379 5.73984 10.2952 5.73984C10.1536 5.73984 9.99184 5.78129 9.87049 5.88493ZM19.7001 7.06643C19.6597 7.58462 20.0237 8.04063 20.5294 8.08209C21.035 8.14427 21.48 7.75044 21.5204 7.23225C21.5609 6.71405 21.1968 6.27876 20.6912 6.21658H20.6103C20.1451 6.21658 19.7406 6.58968 19.7001 7.06643ZM18.345 6.21658C17.8394 6.27876 17.4551 6.71405 17.5157 7.23225C17.5562 7.75044 18.0012 8.14427 18.4866 8.08209C18.9922 8.04063 19.3765 7.58462 19.3158 7.06643C19.2754 6.58968 18.8911 6.21658 18.4259 6.21658C18.3854 6.21658 18.345 6.21658 18.345 6.21658ZM25.97 6.73478C25.7273 7.17006 25.8689 7.72972 26.2936 7.97845C26.6981 8.22718 27.2442 8.08209 27.4869 7.6468C27.7296 7.21152 27.5881 6.65187 27.1633 6.40313C27.0218 6.32022 26.8802 6.27876 26.7184 6.27876C26.415 6.27876 26.1318 6.44459 25.97 6.73478ZM11.8526 6.40313C11.4279 6.65187 11.2863 7.21152 11.529 7.6468C11.7717 8.08209 12.3178 8.22718 12.7425 7.97845C13.1673 7.72972 13.3088 7.17006 13.0661 6.73478C12.9043 6.44459 12.6009 6.27876 12.2976 6.27876C12.156 6.27876 11.9942 6.32022 11.8526 6.40313ZM21.8845 7.31516C21.7631 7.81263 22.0463 8.3101 22.5317 8.45519C23.0171 8.57956 23.5227 8.28937 23.6441 7.7919C23.7857 7.29443 23.4823 6.77623 22.9969 6.65186C22.916 6.63113 22.8351 6.61041 22.7744 6.61041C22.3699 6.61041 21.9856 6.87987 21.8845 7.31516ZM16.0191 6.65186C15.5336 6.77623 15.2505 7.29443 15.3718 7.7919C15.5134 8.28937 15.9988 8.57956 16.4842 8.45519C16.9899 8.3101 17.273 7.81263 17.1315 7.31516C17.0303 6.87987 16.6663 6.61041 16.2618 6.61041C16.1809 6.61041 16.1 6.63113 16.0191 6.65186ZM24.0081 7.91627C23.7857 8.39301 23.9879 8.95266 24.4329 9.15994C24.8981 9.38795 25.4442 9.18067 25.6464 8.70393C25.8689 8.24792 25.6666 7.68826 25.2217 7.46025C25.0801 7.4188 24.9587 7.37734 24.8374 7.37734C24.4936 7.37734 24.1497 7.58462 24.0081 7.91627ZM13.8145 7.46025C13.3493 7.68826 13.1673 8.24792 13.3695 8.70393C13.592 9.18067 14.1179 9.38795 14.583 9.15994C15.0482 8.95266 15.2303 8.39301 15.028 7.91627C14.8662 7.58462 14.5426 7.37734 14.1988 7.37734C14.0774 7.37734 13.9358 7.4188 13.8145 7.46025ZM30.3387 7.81263C30.0354 8.10282 30.0354 8.60029 30.3387 8.91121C30.6421 9.2014 31.1073 9.2014 31.4107 8.91121C31.6939 8.60029 31.6939 8.10282 31.4107 7.81263C31.2489 7.66753 31.0669 7.58462 30.8646 7.58462C30.6826 7.58462 30.4803 7.66753 30.3387 7.81263ZM7.62546 7.81263C7.32207 8.10282 7.32207 8.60029 7.62546 8.91121C7.90861 9.2014 8.39402 9.2014 8.67718 8.91121C8.98057 8.60029 8.98057 8.10282 8.67718 7.81263C8.5356 7.66753 8.35357 7.58462 8.15132 7.58462C7.96929 7.58462 7.76703 7.66753 7.62546 7.81263ZM32.604 7.89554C32.3208 8.12355 32.2804 8.5381 32.5231 8.80757C32.7456 9.09776 33.1501 9.13921 33.413 8.89048C33.6962 8.66247 33.7366 8.24792 33.4939 7.95773C33.3726 7.81263 33.1905 7.72971 33.0085 7.72971C32.8669 7.72971 32.7051 7.7919 32.604 7.89554ZM5.522 7.95773C5.29952 8.24792 5.33997 8.66247 5.6029 8.89048C5.86583 9.13921 6.29057 9.09776 6.51305 8.80757C6.73553 8.5381 6.69508 8.12355 6.43215 7.89554C6.31079 7.7919 6.16921 7.72971 6.00741 7.72971C5.82538 7.72971 5.64335 7.81263 5.522 7.95773ZM28.1139 8.08209C27.7903 8.47592 27.851 9.03557 28.2151 9.36722C28.5993 9.67813 29.1454 9.63668 29.469 9.24285C29.7724 8.86975 29.732 8.28937 29.3477 7.97845C29.1859 7.83335 28.9836 7.77117 28.7814 7.77117C28.5387 7.77117 28.2757 7.87481 28.1139 8.08209ZM9.66823 7.97845C9.30417 8.28937 9.2435 8.86975 9.56711 9.24285C9.87049 9.63668 10.4368 9.67813 10.8009 9.36722C11.1852 9.03557 11.2256 8.47592 10.9222 8.08209C10.7402 7.87481 10.4975 7.77117 10.2346 7.77117C10.0323 7.77117 9.83004 7.83335 9.66823 7.97845ZM34.8693 8.35155C34.6468 8.51737 34.5861 8.82829 34.7479 9.0563C34.9097 9.28431 35.2131 9.34649 35.4356 9.18067C35.6581 9.03557 35.7187 8.70392 35.5569 8.47592C35.4558 8.35155 35.3142 8.26864 35.1524 8.26864C35.0513 8.26864 34.9502 8.28937 34.8693 8.35155ZM3.47922 8.47592C3.31741 8.70392 3.35786 9.03557 3.58034 9.18067C3.80282 9.34649 4.12643 9.28431 4.26801 9.0563C4.42982 8.82829 4.36914 8.51737 4.14666 8.35155C4.06576 8.28937 3.96463 8.26864 3.8635 8.26864C3.72192 8.26864 3.56012 8.35155 3.47922 8.47592ZM25.8284 9.4294C25.8284 9.92687 26.233 10.3414 26.7184 10.3414C27.224 10.3414 27.6285 9.92687 27.6285 9.4294C27.6285 8.9112 27.224 8.49665 26.7184 8.49665C26.233 8.49665 25.8284 8.9112 25.8284 9.4294ZM11.4076 9.4294C11.4076 9.92687 11.8121 10.3414 12.2976 10.3414C12.783 10.3414 13.1875 9.92687 13.1875 9.4294C13.1875 8.9112 12.783 8.49665 12.2976 8.49665C11.8121 8.49665 11.4076 8.9112 11.4076 9.4294ZM29.7118 10.4865C29.7118 10.984 30.1163 11.3986 30.6017 11.3986C31.1073 11.3986 31.4916 10.984 31.4916 10.4865C31.4916 9.96833 31.1073 9.55377 30.6017 9.55377C30.1163 9.55377 29.7118 9.96833 29.7118 10.4865ZM7.56478 10.4865C7.56478 10.984 7.96929 11.3986 8.4547 11.3986C8.96034 11.3986 9.36485 10.984 9.36485 10.4865C9.36485 9.96833 8.96034 9.55377 8.4547 9.55377C7.96929 9.55377 7.56478 9.96833 7.56478 10.4865ZM32.2399 9.92687C31.8961 10.1549 31.8152 10.6523 32.0579 11.0047C32.3006 11.3571 32.7658 11.44 33.1096 11.1913C33.4535 10.9425 33.5344 10.4658 33.2917 10.1134C33.1501 9.88541 32.9074 9.78177 32.6647 9.78177C32.5231 9.78177 32.3613 9.82323 32.2399 9.92687ZM5.72425 10.1134C5.50177 10.4658 5.58267 10.9425 5.92651 11.1913C6.27034 11.44 6.73553 11.3571 6.97824 11.0047C7.20072 10.6523 7.11982 10.1549 6.77598 9.92687C6.65463 9.82323 6.49282 9.78177 6.35124 9.78177C6.10854 9.78177 5.88606 9.88541 5.72425 10.1134ZM27.7903 10.6938C27.7903 11.0876 28.0937 11.3986 28.478 11.3986C28.8623 11.3986 29.1657 11.0876 29.1657 10.6938C29.1657 10.3 28.8623 9.98905 28.478 9.98905C28.0937 9.98905 27.7903 10.3 27.7903 10.6938ZM9.87049 10.6938C9.87049 11.0876 10.1739 11.3986 10.5379 11.3986C10.9222 11.3986 11.2256 11.0876 11.2256 10.6938C11.2256 10.3 10.9222 9.98905 10.5379 9.98905C10.1739 9.98905 9.87049 10.3 9.87049 10.6938ZM34.4445 10.4036C34.1412 10.5902 34.04 10.984 34.222 11.2949C34.3839 11.6058 34.7884 11.7302 35.0917 11.5436C35.3951 11.3571 35.4963 10.9633 35.3345 10.6316C35.2131 10.4243 34.9906 10.3 34.7681 10.3C34.667 10.3 34.5457 10.3414 34.4445 10.4036ZM3.7017 10.6316C3.51967 10.9633 3.62079 11.3571 3.92418 11.5436C4.24779 11.7302 4.63207 11.6058 4.8141 11.2949C4.99613 10.984 4.89501 10.5902 4.5714 10.4036C4.47027 10.3414 4.36914 10.3 4.24779 10.3C4.02531 10.3 3.82305 10.4243 3.7017 10.6316ZM36.6087 11.2742C36.366 11.3986 36.2648 11.6887 36.366 11.9375C36.4873 12.1862 36.7705 12.3106 37.0334 12.1862C37.2761 12.0618 37.3772 11.7717 37.2559 11.5229C37.175 11.3364 36.9929 11.2327 36.8109 11.2327C36.7502 11.2327 36.6693 11.2327 36.6087 11.2742ZM1.76004 11.5229C1.63869 11.7717 1.76005 12.0618 2.00275 12.1862C2.24546 12.3106 2.54884 12.1862 2.64997 11.9375C2.77132 11.6887 2.67019 11.3986 2.40726 11.2742C2.34659 11.2327 2.28591 11.2327 2.20501 11.2327C2.02298 11.2327 1.84095 11.3364 1.76004 11.5229ZM31.5725 11.8131C31.1478 12.0618 31.0062 12.6215 31.2489 13.0568C31.4916 13.4921 32.0175 13.6372 32.4422 13.3884C32.8669 13.1397 33.0085 12.58 32.7658 12.1448C32.604 11.8546 32.3208 11.7095 31.9972 11.7095C31.8557 11.7095 31.7141 11.7302 31.5725 11.8131ZM6.25012 12.1448C6.00741 12.58 6.14899 13.1397 6.57373 13.3884C6.99846 13.6372 7.54455 13.4921 7.78726 13.0568C8.02996 12.6215 7.88839 12.0618 7.46365 11.8131C7.32207 11.7302 7.16027 11.7095 7.01869 11.7095C6.7153 11.7095 6.41192 11.8546 6.25012 12.1448ZM29.3072 12.4349C29.3072 12.808 29.6106 13.1397 29.9949 13.1397C30.3792 13.1397 30.6826 12.808 30.6826 12.4349C30.6826 12.0411 30.3792 11.7302 29.9949 11.7302C29.6106 11.7302 29.3072 12.0411 29.3072 12.4349ZM8.33335 12.4349C8.33335 12.808 8.65696 13.1397 9.02102 13.1397C9.4053 13.1397 9.70868 12.808 9.70868 12.4349C9.70868 12.0411 9.4053 11.7302 9.02102 11.7302C8.65696 11.7302 8.33335 12.0411 8.33335 12.4349ZM33.7569 12.3313C33.3726 12.5179 33.2108 12.9739 33.3928 13.3677C33.5546 13.7615 34.0198 13.9274 34.3839 13.7408C34.7681 13.5543 34.9299 13.0982 34.7479 12.7044C34.6266 12.4349 34.3636 12.2691 34.0805 12.2691C33.9591 12.2691 33.858 12.2899 33.7569 12.3313ZM4.26801 12.7044C4.08598 13.0982 4.24779 13.5543 4.63207 13.7408C5.01636 13.9274 5.46132 13.7615 5.64335 13.3677C5.80515 12.9739 5.64335 12.5179 5.27929 12.3313C5.17816 12.2899 5.05681 12.2691 4.95568 12.2691C4.67252 12.2691 4.38937 12.4349 4.26801 12.7044ZM35.8401 13.2019C35.5165 13.3263 35.3345 13.6993 35.4558 14.0517C35.5772 14.3834 35.9615 14.5699 36.2851 14.4456C36.6289 14.3212 36.7907 13.9481 36.6693 13.5957C36.5682 13.3262 36.3255 13.1604 36.0626 13.1604C36.0019 13.1604 35.921 13.1812 35.8401 13.2019ZM2.34659 13.5957C2.22523 13.9481 2.40726 14.3212 2.73087 14.4456C3.0747 14.5699 3.43876 14.3834 3.56012 14.0517C3.68147 13.6993 3.51967 13.3263 3.17583 13.2019C3.09493 13.1812 3.03425 13.1604 2.95335 13.1604C2.69042 13.1604 2.44771 13.3262 2.34659 13.5957ZM30.0556 14.5492C30.0556 15.0467 30.4601 15.4612 30.9657 15.4612C31.4512 15.4612 31.8557 15.0467 31.8557 14.5492C31.8557 14.0517 31.4512 13.6372 30.9657 13.6372C30.4601 13.6372 30.0556 14.0517 30.0556 14.5492ZM7.18049 14.5492C7.18049 15.0467 7.585 15.4612 8.07042 15.4612C8.55583 15.4612 8.96034 15.0467 8.96034 14.5492C8.96034 14.0517 8.55583 13.6372 8.07042 13.6372C7.585 13.6372 7.18049 14.0517 7.18049 14.5492ZM32.7658 14.0932C32.3208 14.259 32.0781 14.7772 32.2399 15.2539C32.4018 15.71 32.9074 15.9587 33.3726 15.7929C33.8378 15.627 34.0602 15.1088 33.8984 14.6321C33.7771 14.259 33.4333 14.031 33.0692 14.031C32.9681 14.031 32.8669 14.0517 32.7658 14.0932ZM5.11748 14.6321C4.95568 15.1088 5.19839 15.627 5.64335 15.7929C6.10854 15.9587 6.61418 15.71 6.77598 15.2539C6.95801 14.7772 6.7153 14.259 6.25012 14.0932C6.14899 14.0517 6.04786 14.031 5.94673 14.031C5.6029 14.031 5.25906 14.259 5.11748 14.6321ZM37.8222 14.4456C37.5593 14.5077 37.4177 14.7979 37.4784 15.0674C37.5593 15.3369 37.8222 15.4819 38.0851 15.4198C38.3481 15.3576 38.5099 15.0674 38.429 14.7979C38.3683 14.5699 38.166 14.4248 37.9638 14.4248C37.9031 14.4248 37.8627 14.4248 37.8222 14.4456ZM0.586962 14.7979C0.526285 15.0674 0.68809 15.3576 0.951022 15.4198C1.21395 15.4819 1.47689 15.3369 1.53756 15.0674C1.61847 14.7979 1.45666 14.5077 1.19373 14.4456C1.15328 14.4248 1.11283 14.4248 1.07238 14.4248C0.849895 14.4248 0.647639 14.5699 0.586962 14.7979ZM34.8288 14.9845C34.4243 15.1088 34.2018 15.5234 34.303 15.938C34.4041 16.3525 34.8288 16.6013 35.2333 16.4769C35.6378 16.3732 35.8603 15.9587 35.7592 15.5441C35.6783 15.1918 35.3547 14.9637 35.0311 14.9637C34.9704 14.9637 34.9097 14.9638 34.8288 14.9845ZM3.25673 15.5441C3.15561 15.9587 3.39831 16.3732 3.80283 16.4769C4.20734 16.6013 4.61185 16.3525 4.7332 15.938C4.83433 15.5234 4.59162 15.1088 4.18711 14.9845C4.12643 14.9638 4.06576 14.9637 3.98485 14.9637C3.66125 14.9637 3.35786 15.1918 3.25673 15.5441ZM31.4309 15.7514C30.9455 15.8965 30.6421 16.4147 30.7837 16.9122C30.9051 17.4096 31.4107 17.6998 31.8961 17.5547C32.3815 17.4304 32.6647 16.9122 32.5433 16.4147C32.4422 16.0001 32.0579 15.7307 31.6534 15.7307C31.5927 15.7307 31.5118 15.7307 31.4309 15.7514ZM6.49282 16.4147C6.35125 16.9122 6.6344 17.4304 7.11981 17.5547C7.60523 17.6998 8.11087 17.4096 8.25244 16.9122C8.3738 16.4147 8.09064 15.8965 7.60523 15.7514C7.52433 15.7307 7.44342 15.7307 7.36252 15.7307C6.95801 15.7307 6.59395 16.0001 6.49282 16.4147ZM36.7502 16.2074C36.4064 16.2696 36.1637 16.622 36.2244 16.9744C36.2851 17.3267 36.6289 17.5755 36.9727 17.5133C37.3166 17.4511 37.5593 17.0987 37.4986 16.7464C37.4379 16.4354 37.175 16.2074 36.8716 16.2074C36.8311 16.2074 36.7907 16.2074 36.7502 16.2074ZM1.53756 16.7464C1.45666 17.0987 1.69937 17.4511 2.0432 17.5133C2.40726 17.5755 2.73087 17.3267 2.79155 16.9744C2.85222 16.622 2.62974 16.2696 2.26568 16.2074C2.26568 16.2074 2.205 16.2074 2.16455 16.2074C1.86117 16.2074 1.57801 16.4354 1.53756 16.7464ZM33.5748 16.5391C33.0894 16.622 32.7658 17.0987 32.8467 17.5962C32.9276 18.0729 33.3928 18.4046 33.8782 18.3217C34.3636 18.2388 34.667 17.762 34.5861 17.2645C34.5052 16.8293 34.1411 16.5183 33.7164 16.5183C33.676 16.5183 33.6153 16.5391 33.5748 16.5391ZM4.42982 17.2645C4.34892 17.762 4.67252 18.2388 5.15794 18.3217C5.62312 18.4046 6.08831 18.0729 6.16921 17.5962C6.25012 17.0987 5.94673 16.622 5.46132 16.5391C5.40064 16.5391 5.36019 16.5183 5.29952 16.5183C4.87478 16.5183 4.51072 16.8293 4.42982 17.2645ZM38.4896 17.7827C38.2267 17.8242 38.0245 18.0522 38.0447 18.3424C38.0649 18.6119 38.3076 18.8191 38.5705 18.7984C38.8537 18.7777 39.056 18.5289 39.0155 18.2388C38.9953 17.99 38.793 17.7827 38.5301 17.7827H38.4896ZM0.000420014 18.2388C-0.0198056 18.5289 0.182451 18.7777 0.445384 18.7984C0.728541 18.8191 0.951021 18.6119 0.991472 18.3424C1.0117 18.0522 0.809443 17.8242 0.526285 17.7827H0.485834C0.243128 17.7827 0.0206456 17.99 0.000420014 18.2388ZM35.4558 17.7827C35.0311 17.8242 34.7277 18.1973 34.7681 18.6326C34.8086 19.0471 35.1727 19.3788 35.5772 19.3373C36.0019 19.2959 36.3053 18.9228 36.2648 18.4875C36.2244 18.0937 35.9008 17.7827 35.5165 17.7827H35.4558ZM2.7511 18.4875C2.71064 18.9228 3.03425 19.2959 3.43876 19.3373C3.8635 19.3788 4.22756 19.0471 4.26801 18.6326C4.28824 18.1973 3.98485 17.8242 3.58034 17.7827H3.49944C3.11516 17.7827 2.79155 18.0937 2.7511 18.4875ZM31.9568 17.9486C31.4511 17.99 31.0871 18.446 31.1275 18.9642C31.168 19.4617 31.613 19.8555 32.1186 19.8141C32.6242 19.7519 32.9883 19.3166 32.9478 18.7984C32.9074 18.3009 32.5029 17.9486 32.0377 17.9486C32.0377 17.9486 31.9972 17.9486 31.9568 17.9486ZM6.06809 18.7984C6.02764 19.3166 6.41192 19.7519 6.89733 19.8141C7.40297 19.8555 7.84793 19.4617 7.88838 18.9642C7.92884 18.446 7.56478 17.99 7.05914 17.9486C7.05914 17.9486 7.01869 17.9486 6.97824 17.9486C6.51305 17.9486 6.10854 18.3009 6.06809 18.7984ZM33.049 20.0006C33.049 20.4981 33.4535 20.8919 33.9389 20.8919C34.4243 20.8919 34.8288 20.4981 34.8288 20.0006C34.8288 19.5032 34.4243 19.0886 33.9389 19.0886C33.4535 19.0886 33.049 19.5032 33.049 20.0006ZM4.20734 20.0006C4.20734 20.4981 4.59162 20.8919 5.07703 20.8919C5.56245 20.8919 5.96696 20.4981 5.96696 20.0006C5.96696 19.5032 5.56245 19.0886 5.07703 19.0886C4.59162 19.0886 4.20734 19.5032 4.20734 20.0006ZM36.4873 20.0006C36.4873 20.353 36.7705 20.6639 37.1345 20.6639C37.4784 20.6639 37.7817 20.353 37.7817 20.0006C37.7817 19.6275 37.4784 19.3373 37.1345 19.3373C36.7705 19.3373 36.4873 19.6275 36.4873 20.0006ZM1.2544 20.0006C1.2544 20.353 1.53756 20.6639 1.90162 20.6639C2.24546 20.6639 2.52861 20.353 2.52861 20.0006C2.52861 19.6275 2.24546 19.3373 1.90162 19.3373C1.53756 19.3373 1.2544 19.6275 1.2544 20.0006ZM31.1275 21.037C31.0871 21.5552 31.4511 22.0112 31.9568 22.0527C32.4624 22.0941 32.9074 21.721 32.9478 21.2028C32.9883 20.6847 32.6242 20.2286 32.1186 20.1872H32.0377C31.5725 20.1872 31.168 20.5603 31.1275 21.037ZM6.89733 20.1872C6.41192 20.2286 6.02764 20.6847 6.06809 21.2028C6.10854 21.721 6.5535 22.0941 7.05914 22.0527C7.56478 22.0112 7.92884 21.5552 7.88838 21.037C7.84793 20.5603 7.44342 20.1872 6.97824 20.1872C6.97824 20.1872 6.93779 20.1872 6.89733 20.1872ZM34.7681 21.3687C34.7277 21.7832 35.0311 22.1563 35.4558 22.1978C35.8603 22.2392 36.2244 21.9283 36.2648 21.493C36.3053 21.0785 36.0019 20.7054 35.5772 20.6639H35.5165C35.1322 20.6639 34.8086 20.9541 34.7681 21.3687ZM3.43876 20.6639C3.03425 20.7054 2.71064 21.0785 2.7511 21.493C2.79155 21.9283 3.15561 22.2392 3.58034 22.1978C3.98485 22.1563 4.28824 21.7832 4.26801 21.3687C4.22756 20.9541 3.90395 20.6639 3.49944 20.6639H3.43876ZM38.0447 21.6589C38.0245 21.9283 38.2267 22.1771 38.4896 22.1978C38.7526 22.2392 38.9953 22.032 39.0155 21.7418C39.056 21.4723 38.8537 21.2236 38.5705 21.2028H38.5301C38.2874 21.2028 38.0649 21.3894 38.0447 21.6589ZM0.445383 21.2028C0.182451 21.2236 -0.0198058 21.4723 0.000419694 21.7418C0.0206452 22.032 0.263352 22.2392 0.526284 22.1978C0.809442 22.1771 1.0117 21.9283 0.991472 21.6589C0.951021 21.3894 0.748766 21.2028 0.485834 21.2028H0.445383ZM32.8467 22.4051C32.7658 22.9025 33.0894 23.3585 33.5748 23.4622C34.04 23.5451 34.5052 23.2135 34.5861 22.716C34.667 22.2392 34.3636 21.7625 33.8782 21.6796C33.8175 21.6589 33.7771 21.6589 33.7164 21.6589C33.2917 21.6589 32.9276 21.9698 32.8467 22.4051ZM5.15793 21.6796C4.67252 21.7625 4.34891 22.2392 4.42982 22.716C4.51072 23.2135 4.97591 23.5451 5.46132 23.4622C5.94673 23.3585 6.25012 22.9025 6.16921 22.4051C6.08831 21.9698 5.72425 21.6589 5.29952 21.6589C5.25906 21.6589 5.19839 21.6589 5.15793 21.6796ZM30.7837 23.0891C30.6421 23.5866 30.9455 24.1048 31.4309 24.2291C31.9163 24.3742 32.4018 24.084 32.5433 23.5658C32.6647 23.0684 32.3815 22.5709 31.8961 22.4258C31.8152 22.4051 31.7343 22.4051 31.6534 22.4051C31.2489 22.4051 30.8848 22.6745 30.7837 23.0891ZM7.11981 22.4258C6.6344 22.5709 6.35124 23.0684 6.49282 23.5658C6.61418 24.084 7.11981 24.3742 7.60523 24.2291C8.09064 24.1048 8.3738 23.5866 8.25244 23.0891C8.13109 22.6745 7.76703 22.4051 7.36252 22.4051C7.28162 22.4051 7.20072 22.4051 7.11981 22.4258ZM36.2244 23.0269C36.1637 23.3793 36.4064 23.7109 36.7502 23.7731C37.0941 23.856 37.4379 23.6073 37.4986 23.2549C37.5593 22.8818 37.3166 22.5502 36.9727 22.488C36.9323 22.4672 36.8716 22.4672 36.8716 22.4672C36.548 22.4672 36.2851 22.6953 36.2244 23.0269ZM2.0432 22.488C1.69937 22.5502 1.45666 22.8818 1.53756 23.2549C1.59824 23.6073 1.92185 23.856 2.26568 23.7731C2.62974 23.7109 2.85222 23.3793 2.79155 23.0269C2.75109 22.6953 2.46794 22.4672 2.16455 22.4672C2.1241 22.4672 2.08365 22.4672 2.0432 22.488ZM34.303 24.0633C34.2018 24.4779 34.4243 24.8924 34.8288 24.9961C35.2333 25.1204 35.6581 24.8717 35.7592 24.4571C35.8603 24.0426 35.6378 23.628 35.2333 23.5036C35.1524 23.5036 35.0917 23.4829 35.0311 23.4829C34.6872 23.4829 34.3839 23.7109 34.303 24.0633ZM3.80282 23.5036C3.39831 23.628 3.15561 24.0426 3.25673 24.4571C3.37809 24.8717 3.7826 25.1204 4.18711 24.9961C4.59162 24.8924 4.83433 24.4779 4.7332 24.0633C4.63207 23.7109 4.32869 23.4829 4.00508 23.4829C3.92418 23.4829 3.8635 23.5036 3.80282 23.5036ZM32.2399 24.7473C32.0781 25.2241 32.3208 25.7423 32.7658 25.9081C33.231 26.0739 33.7366 25.8252 33.8984 25.3692C34.0602 24.8924 33.8378 24.3742 33.3726 24.2084C33.2715 24.1669 33.1703 24.1462 33.0692 24.1462C32.7051 24.1462 32.3815 24.3742 32.2399 24.7473ZM5.64335 24.2084C5.19839 24.3742 4.95568 24.8924 5.11748 25.3692C5.29951 25.8252 5.80515 26.0739 6.25011 25.9081C6.7153 25.7423 6.95801 25.2241 6.77598 24.7473C6.65463 24.3742 6.31079 24.1462 5.94673 24.1462C5.8456 24.1462 5.74448 24.1669 5.64335 24.2084ZM30.0758 25.0582C29.8736 25.5142 30.0758 26.0739 30.5208 26.3019C30.986 26.5092 31.5321 26.3019 31.7343 25.8459C31.9568 25.3692 31.7545 24.8095 31.2893 24.6022C31.168 24.54 31.0466 24.4986 30.9051 24.4986C30.5612 24.4986 30.2376 24.7059 30.0758 25.0582ZM7.72658 24.6022C7.28162 24.8095 7.07936 25.3692 7.28162 25.8459C7.5041 26.3019 8.05019 26.5092 8.49515 26.3019C8.96034 26.0739 9.16259 25.5142 8.94011 25.0582C8.77831 24.7059 8.4547 24.4986 8.11087 24.4986C7.98951 24.4986 7.84793 24.54 7.72658 24.6022ZM37.4784 24.9339C37.4177 25.2033 37.5593 25.4728 37.8222 25.5557C38.0851 25.6179 38.3683 25.4521 38.429 25.1826C38.5099 24.9131 38.3481 24.6437 38.0851 24.5815C38.0447 24.5608 38.0042 24.5608 37.9638 24.5608C37.7413 24.5608 37.539 24.7059 37.4784 24.9339ZM0.951021 24.5815C0.688089 24.6437 0.526285 24.9131 0.586961 25.1826C0.667863 25.4521 0.930795 25.6179 1.19373 25.5557C1.45666 25.4728 1.61847 25.2033 1.53756 24.9339C1.47689 24.7059 1.29486 24.5608 1.07238 24.5608C1.03192 24.5608 0.991472 24.5608 0.951021 24.5815ZM35.4558 25.9495C35.3345 26.2812 35.5165 26.675 35.8401 26.7994C36.1839 26.9237 36.548 26.7372 36.6693 26.4055C36.7907 26.0532 36.6289 25.6801 36.2851 25.5557C36.2244 25.535 36.1435 25.5142 36.0626 25.5142C35.7996 25.5142 35.5569 25.6801 35.4558 25.9495ZM2.73087 25.5557C2.40726 25.6801 2.22523 26.0532 2.34658 26.4055C2.46794 26.7372 2.85222 26.9237 3.17583 26.7994C3.51967 26.675 3.68147 26.2812 3.56012 25.9495C3.45899 25.6801 3.21628 25.5142 2.95335 25.5142C2.89267 25.5142 2.81177 25.535 2.73087 25.5557ZM33.3928 26.6336C33.2108 27.0067 33.3726 27.4834 33.7569 27.6492C34.1411 27.8358 34.5861 27.67 34.7479 27.2761C34.9299 26.903 34.7681 26.4263 34.3839 26.2605C34.2827 26.1983 34.1816 26.1775 34.0805 26.1775C33.7973 26.1775 33.5142 26.3434 33.3928 26.6336ZM4.63207 26.2605C4.24779 26.4263 4.08598 26.903 4.26801 27.2761C4.45004 27.67 4.895 27.8358 5.27929 27.6492C5.64335 27.4834 5.80515 27.0067 5.64335 26.6336C5.50177 26.3434 5.23884 26.1775 4.95568 26.1775C4.85455 26.1775 4.7332 26.1983 4.63207 26.2605ZM29.0645 26.8616C28.7814 27.2761 28.8825 27.8565 29.287 28.1467C29.7118 28.4576 30.2781 28.354 30.5612 27.9187C30.8444 27.5041 30.7433 26.9237 30.3387 26.6336C30.1769 26.5092 29.9949 26.447 29.8129 26.447C29.5297 26.447 29.2466 26.5921 29.0645 26.8616ZM8.67718 26.6336C8.27267 26.9237 8.17154 27.5041 8.4547 27.9187C8.75808 28.354 9.3244 28.4576 9.72891 28.1467C10.1536 27.8565 10.2548 27.2761 9.95139 26.8616C9.78959 26.5921 9.50643 26.447 9.20305 26.447C9.02102 26.447 8.83898 26.5092 8.67718 26.6336ZM31.2489 26.9445C31.0062 27.3798 31.1478 27.9187 31.5725 28.1674C31.9972 28.4162 32.5231 28.2711 32.7658 27.8358C33.0085 27.4005 32.8669 26.8616 32.4422 26.6128C32.3006 26.5299 32.159 26.4885 32.0175 26.4885C31.6939 26.4885 31.4107 26.6543 31.2489 26.9445ZM6.57372 26.6128C6.14899 26.8616 6.00741 27.4005 6.25011 27.8358C6.49282 28.2711 7.03891 28.4162 7.46365 28.1674C7.88839 27.9187 8.02996 27.3798 7.78726 26.9445C7.62545 26.6543 7.32207 26.4885 7.01869 26.4885C6.85688 26.4885 6.7153 26.5299 6.57372 26.6128ZM36.366 28.0638C36.2648 28.3125 36.366 28.6027 36.6087 28.7271C36.8514 28.8514 37.1548 28.7271 37.2559 28.4783C37.3772 28.2296 37.2761 27.9187 37.0334 27.815C36.9525 27.7736 36.8918 27.7529 36.8109 27.7529C36.6289 27.7529 36.4469 27.8772 36.366 28.0638ZM2.00275 27.815C1.76004 27.9187 1.63869 28.2296 1.76004 28.4783C1.8814 28.7271 2.16455 28.8514 2.40726 28.7271C2.67019 28.6027 2.77132 28.3125 2.64997 28.0638C2.56906 27.8772 2.38704 27.7529 2.20501 27.7529C2.14433 27.7529 2.06343 27.7736 2.00275 27.815ZM27.7701 28.4576C27.406 28.81 27.406 29.4111 27.7701 29.7635C28.1139 30.1366 28.7005 30.1366 29.0443 29.7635C29.4084 29.4111 29.4084 28.81 29.0443 28.4576C28.8825 28.2711 28.6398 28.1674 28.3971 28.1674C28.1746 28.1674 27.9319 28.2711 27.7701 28.4576ZM9.97162 28.4576C9.60756 28.81 9.60756 29.4111 9.97162 29.7635C10.3357 30.1366 10.902 30.1366 11.2661 29.7635C11.6301 29.4111 11.6301 28.81 11.2661 28.4576C11.084 28.2711 10.8615 28.1674 10.6188 28.1674C10.3761 28.1674 10.1536 28.2711 9.97162 28.4576ZM34.222 28.6856C34.04 29.0173 34.1411 29.4111 34.4445 29.5976C34.7479 29.7842 35.1524 29.6806 35.3345 29.3489C35.4963 29.038 35.3951 28.6442 35.0917 28.4576C34.9906 28.3954 34.8895 28.3747 34.7681 28.3747C34.5457 28.3747 34.3232 28.4783 34.222 28.6856ZM3.92418 28.4576C3.62079 28.6442 3.51967 29.038 3.7017 29.3489C3.88373 29.6806 4.26801 29.7842 4.57139 29.5976C4.895 29.4111 4.99613 29.0173 4.8141 28.6856C4.69275 28.4783 4.47027 28.3747 4.24779 28.3747C4.14666 28.3747 4.0253 28.3954 3.92418 28.4576ZM29.8938 28.9136C29.5702 29.3075 29.6308 29.8671 29.9949 30.1988C30.3792 30.5097 30.9253 30.4682 31.2489 30.0744C31.5523 29.7013 31.5118 29.1209 31.1275 28.81C30.9657 28.6649 30.7635 28.6027 30.5612 28.6027C30.3185 28.6027 30.0556 28.7063 29.8938 28.9136ZM7.88838 28.81C7.52432 29.1209 7.46365 29.7013 7.78726 30.0744C8.09064 30.4682 8.65696 30.5097 9.02102 30.1988C9.4053 29.8671 9.44575 29.3075 9.14237 28.9136C8.96034 28.7063 8.71763 28.6027 8.4547 28.6027C8.25244 28.6027 8.05019 28.6649 7.88838 28.81ZM32.0579 28.9965C31.8152 29.3489 31.8961 29.8257 32.2399 30.0744C32.5838 30.3231 33.049 30.2402 33.2917 29.8878C33.5344 29.5355 33.4535 29.0587 33.1096 28.81C32.9681 28.7063 32.8265 28.6649 32.6647 28.6649C32.4422 28.6649 32.1995 28.7893 32.0579 28.9965ZM5.92651 28.81C5.58267 29.0587 5.50177 29.5355 5.72425 29.8878C5.96696 30.2402 6.45237 30.3231 6.77598 30.0744C7.11981 29.8257 7.20072 29.3489 6.97823 28.9965C6.81643 28.7893 6.59395 28.6649 6.35124 28.6649C6.20966 28.6649 6.04786 28.7063 5.92651 28.81ZM25.8284 30.5511C25.8284 31.0693 26.233 31.4632 26.7184 31.4632C27.224 31.4632 27.6285 31.0693 27.6285 30.5511C27.6285 30.0537 27.224 29.6391 26.7184 29.6391C26.233 29.6391 25.8284 30.0537 25.8284 30.5511ZM11.4076 30.5511C11.4076 31.0693 11.8121 31.4632 12.2976 31.4632C12.783 31.4632 13.1875 31.0693 13.1875 30.5511C13.1875 30.0537 12.783 29.6391 12.2976 29.6391C11.8121 29.6391 11.4076 30.0537 11.4076 30.5511ZM28.2151 30.634C27.851 30.945 27.7903 31.5253 28.1139 31.8984C28.4173 32.2923 28.9836 32.3337 29.3477 32.0228C29.732 31.6912 29.7724 31.1315 29.469 30.7377C29.287 30.5304 29.0443 30.4268 28.7814 30.4268C28.5791 30.4268 28.3769 30.4889 28.2151 30.634ZM9.56711 30.7377C9.2435 31.1315 9.30417 31.6912 9.66823 32.0228C10.0525 32.3337 10.5986 32.2923 10.9222 31.8984C11.2256 31.5253 11.1851 30.945 10.8009 30.634C10.6391 30.4889 10.4368 30.4268 10.2345 30.4268C9.99184 30.4268 9.72891 30.5304 9.56711 30.7377ZM34.7479 30.9242C34.5861 31.1522 34.6468 31.4839 34.8693 31.629C35.0917 31.7948 35.3951 31.7326 35.5569 31.5046C35.7187 31.2766 35.6581 30.9657 35.4356 30.7999C35.3547 30.7377 35.2536 30.717 35.1524 30.717C34.9906 30.717 34.849 30.7999 34.7479 30.9242ZM3.58034 30.7999C3.35786 30.9657 3.31741 31.2766 3.47921 31.5046C3.62079 31.7326 3.92418 31.7948 4.14666 31.629C4.36914 31.4839 4.42982 31.1522 4.26801 30.9242C4.18711 30.7999 4.0253 30.717 3.8635 30.717C3.7826 30.717 3.68147 30.7377 3.58034 30.7999ZM30.3387 31.0901C30.0354 31.401 30.0354 31.8777 30.3387 32.1886C30.6421 32.4788 31.1073 32.4788 31.4107 32.1886C31.6939 31.8777 31.6939 31.401 31.4107 31.0901C31.2489 30.945 31.0669 30.862 30.8646 30.862C30.6826 30.862 30.4803 30.945 30.3387 31.0901ZM7.62545 31.0901C7.32207 31.401 7.32207 31.8777 7.62545 32.1886C7.90861 32.4788 8.39402 32.4788 8.67718 32.1886C8.98056 31.8777 8.98056 31.401 8.67718 31.0901C8.5356 30.945 8.35357 30.862 8.15132 30.862C7.96929 30.862 7.76703 30.945 7.62545 31.0901ZM32.5231 31.173C32.2804 31.4632 32.3208 31.8777 32.604 32.1057C32.8669 32.3337 33.2715 32.313 33.4939 32.0228C33.7366 31.7533 33.6962 31.3388 33.413 31.0901C33.3119 30.9864 33.1501 30.945 33.0085 30.945C32.8265 30.945 32.6445 31.0279 32.5231 31.173ZM5.6029 31.0901C5.33997 31.3388 5.29951 31.7533 5.52199 32.0228C5.74448 32.313 6.14899 32.3337 6.43215 32.1057C6.69508 31.8777 6.73553 31.4632 6.51305 31.173C6.39169 31.0279 6.20966 30.945 6.00741 30.945C5.86583 30.945 5.72425 30.9864 5.6029 31.0901ZM24.1497 31.857C24.1497 32.2923 24.4733 32.6239 24.8981 32.6239C25.3026 32.6239 25.6464 32.2923 25.6464 31.857C25.6464 31.4424 25.3026 31.0901 24.8981 31.0901C24.4733 31.0901 24.1497 31.4424 24.1497 31.857ZM13.3088 31.857C13.3088 32.2923 13.6324 32.6239 14.0572 32.6239C14.4617 32.6239 14.8055 32.2923 14.8055 31.857C14.8055 31.4424 14.4617 31.0901 14.0572 31.0901C13.6324 31.0901 13.3088 31.4424 13.3088 31.857ZM26.2936 32.0228C25.8689 32.2715 25.7273 32.8312 25.97 33.2458C26.2127 33.681 26.7386 33.8261 27.1633 33.5774C27.5881 33.3287 27.7296 32.7897 27.4869 32.3545C27.3251 32.0643 27.0218 31.8984 26.7184 31.8984C26.5768 31.8984 26.415 31.9399 26.2936 32.0228ZM11.529 32.3545C11.2863 32.7897 11.4279 33.3287 11.8526 33.5774C12.2773 33.8261 12.8234 33.681 13.0661 33.2458C13.3088 32.8312 13.1673 32.2715 12.7425 32.0228C12.6009 31.9399 12.4391 31.8984 12.2976 31.8984C11.9942 31.8984 11.6908 32.0643 11.529 32.3545ZM22.3699 32.997C22.3699 33.2872 22.5924 33.5359 22.8957 33.5359C23.1991 33.5359 23.4418 33.2872 23.4418 32.997C23.4418 32.6861 23.1991 32.4374 22.8957 32.4374C22.5924 32.4374 22.3699 32.6861 22.3699 32.997ZM15.5741 32.997C15.5741 33.2872 15.8168 33.5359 16.1 33.5359C16.4033 33.5359 16.646 33.2872 16.646 32.997C16.646 32.6861 16.4033 32.4374 16.1 32.4374C15.8168 32.4374 15.5741 32.6861 15.5741 32.997ZM28.296 32.8519C27.9521 33.1007 27.8712 33.5774 28.1139 33.9298C28.3566 34.2821 28.8218 34.3651 29.1657 34.1163C29.5095 33.8676 29.5904 33.3908 29.3477 33.0385C29.2061 32.8312 28.9634 32.7068 28.7207 32.7068C28.5791 32.7068 28.4173 32.7483 28.296 32.8519ZM9.68846 33.0385C9.44575 33.3908 9.52665 33.8676 9.87049 34.1163C10.2143 34.3651 10.6795 34.2821 10.9222 33.9298C11.1649 33.5774 11.0638 33.1007 10.7402 32.8519C10.5986 32.7483 10.457 32.7068 10.2952 32.7068C10.0525 32.7068 9.83004 32.8312 9.68846 33.0385ZM24.1497 33.0385C23.6845 33.2043 23.4418 33.7225 23.6239 34.1992C23.7857 34.676 24.2913 34.904 24.7565 34.7382C25.2015 34.5723 25.4442 34.0541 25.2824 33.5774C25.1408 33.225 24.8172 32.997 24.4531 32.997C24.352 32.997 24.2509 32.997 24.1497 33.0385ZM13.7538 33.5774C13.592 34.0541 13.8145 34.5723 14.2797 34.7382C14.7246 34.904 15.2303 34.676 15.4123 34.1992C15.5741 33.7225 15.3314 33.2043 14.8864 33.0385C14.7853 32.997 14.6842 32.997 14.583 32.997C14.219 32.997 13.8751 33.225 13.7538 33.5774ZM30.4196 33.3287C30.1567 33.5567 30.1163 33.9712 30.3387 34.2614C30.5815 34.5309 30.986 34.5723 31.2489 34.3443C31.5321 34.0956 31.5523 33.681 31.3298 33.4116C31.2084 33.2458 31.0264 33.1628 30.8444 33.1628C30.6826 33.1628 30.541 33.225 30.4196 33.3287ZM7.68613 33.4116C7.46365 33.681 7.5041 34.0956 7.76703 34.3443C8.05019 34.5723 8.4547 34.5309 8.67718 34.2614C8.91989 33.9712 8.87944 33.5567 8.59628 33.3287C8.47493 33.225 8.33335 33.1628 8.19177 33.1628C8.00974 33.1628 7.82771 33.2458 7.68613 33.4116ZM32.6647 33.4738C32.4827 33.681 32.4827 33.992 32.6647 34.1992C32.8669 34.3858 33.1703 34.3858 33.3523 34.1992C33.5546 33.992 33.5546 33.681 33.3523 33.4738C33.2714 33.3701 33.1299 33.3287 33.0085 33.3287C32.8872 33.3287 32.7658 33.3701 32.6647 33.4738ZM5.66357 33.4738C5.46132 33.681 5.46132 33.992 5.66357 34.1992C5.86583 34.3858 6.16921 34.3858 6.35124 34.1992C6.5535 33.992 6.5535 33.681 6.35124 33.4738C6.27034 33.3701 6.12876 33.3287 6.00741 33.3287C5.88605 33.3287 5.7647 33.3701 5.66357 33.4738ZM21.8642 33.6603C21.3788 33.764 21.0552 34.22 21.1563 34.7174C21.2372 35.2149 21.6822 35.5258 22.1676 35.4429C22.653 35.36 22.9766 34.904 22.8957 34.4065C22.8148 33.9712 22.4306 33.6603 22.026 33.6603C21.9654 33.6603 21.9249 33.6603 21.8642 33.6603ZM16.1404 34.4065C16.0595 34.904 16.3831 35.36 16.8483 35.4429C17.3337 35.5258 17.7989 35.2149 17.8798 34.7174C17.9607 34.22 17.6371 33.764 17.1517 33.6603C17.1112 33.6603 17.0506 33.6603 17.0101 33.6603C16.5854 33.6603 16.2213 33.9712 16.1404 34.4065ZM18.6282 34.7796C18.6282 35.2771 19.0327 35.6916 19.5181 35.6916C20.0035 35.6916 20.3878 35.2771 20.3878 34.7796C20.3878 34.2821 20.0035 33.8883 19.5181 33.8883C19.0327 33.8883 18.6282 34.2821 18.6282 34.7796ZM25.9903 34.22C25.606 34.4065 25.4442 34.8625 25.6262 35.2356C25.788 35.6295 26.2532 35.7953 26.6172 35.6295C27.0015 35.4429 27.1633 34.9869 26.9813 34.5931C26.8599 34.3029 26.5768 34.1371 26.2936 34.1371C26.1925 34.1371 26.0914 34.1785 25.9903 34.22ZM12.0346 34.5931C11.8526 34.9869 12.0346 35.4429 12.3987 35.6295C12.783 35.7953 13.2279 35.6295 13.41 35.2356C13.592 34.8625 13.41 34.4065 13.0459 34.22C12.9448 34.1785 12.8234 34.1371 12.7223 34.1371C12.4391 34.1371 12.1762 34.3029 12.0346 34.5931ZM27.9926 35.0698C27.6892 35.2356 27.5881 35.6502 27.7701 35.9611C27.9319 36.272 28.3364 36.3964 28.6398 36.2098C28.9432 36.0233 29.0645 35.6295 28.8825 35.2978C28.7612 35.0905 28.5387 34.9662 28.3162 34.9662C28.2151 34.9662 28.0937 35.0076 27.9926 35.0698ZM10.1536 35.2978C9.97162 35.6295 10.0727 36.0233 10.3761 36.2098C10.6795 36.3964 11.084 36.272 11.2661 35.9611C11.4481 35.6502 11.3267 35.2356 11.0233 35.0698C10.9222 35.0076 10.8211 34.9662 10.6997 34.9662C10.4773 34.9662 10.2548 35.0905 10.1536 35.2978ZM23.4823 35.1527C23.0778 35.2564 22.8351 35.6916 22.9362 36.1062C23.0575 36.5208 23.4621 36.7488 23.8666 36.6451C24.2711 36.5415 24.5138 36.1062 24.3924 35.6916C24.3115 35.36 24.0081 35.132 23.6643 35.132C23.6036 35.132 23.543 35.132 23.4823 35.1527ZM14.6235 35.6916C14.5224 36.1062 14.7651 36.5415 15.1494 36.6451C15.5539 36.7488 15.9786 36.5208 16.0797 36.1062C16.2011 35.6916 15.9584 35.2564 15.5539 35.1527C15.4932 35.132 15.4123 35.132 15.3516 35.132C15.028 35.132 14.7246 35.36 14.6235 35.6916ZM30.1769 35.6087C29.9545 35.7746 29.914 36.0855 30.0556 36.3135C30.2174 36.5415 30.5208 36.6037 30.7433 36.4379C30.9657 36.272 31.0264 35.9611 30.8646 35.7331C30.7635 35.588 30.6219 35.5258 30.4601 35.5258C30.359 35.5258 30.2578 35.5465 30.1769 35.6087ZM8.15132 35.7331C8.00974 35.9611 8.05019 36.272 8.27267 36.4379C8.49515 36.6037 8.79853 36.5415 8.96034 36.3135C9.12214 36.0855 9.06147 35.7746 8.83898 35.6087C8.75808 35.5465 8.65696 35.5258 8.55583 35.5258C8.41425 35.5258 8.25244 35.588 8.15132 35.7331ZM20.853 35.6295C20.4282 35.6709 20.1248 36.044 20.1653 36.4586C20.2057 36.8939 20.5698 37.2048 20.9743 37.1633C21.3991 37.1426 21.7024 36.7488 21.662 36.3342C21.6215 35.9197 21.2979 35.6295 20.9136 35.6295H20.853ZM17.3539 36.3342C17.3337 36.7488 17.6371 37.1426 18.0416 37.1633C18.4663 37.2048 18.8304 36.8939 18.8709 36.4586C18.8911 36.044 18.5877 35.6709 18.1832 35.6295C18.1832 35.6295 18.1427 35.6295 18.1023 35.6295C17.718 35.6295 17.3944 35.9197 17.3539 36.3342ZM25.3228 36.3342C24.979 36.4586 24.8172 36.8524 24.9385 37.1841C25.0599 37.5364 25.4239 37.7023 25.7678 37.5779C26.0914 37.4535 26.2734 37.0804 26.1521 36.728C26.0509 36.4793 25.8082 36.3135 25.5453 36.3135C25.4644 36.3135 25.3835 36.3135 25.3228 36.3342ZM12.8841 36.728C12.7627 37.0804 12.9245 37.4535 13.2684 37.5779C13.592 37.7023 13.9763 37.5364 14.0976 37.1841C14.219 36.8524 14.037 36.4586 13.7133 36.3342C13.6324 36.3135 13.5515 36.3135 13.4909 36.3135C13.2279 36.3135 12.9852 36.4793 12.8841 36.728ZM22.4508 37.1219C22.1069 37.1841 21.8845 37.5364 21.9451 37.8888C22.0058 38.2619 22.3294 38.4899 22.6935 38.4277C23.0373 38.3655 23.2598 38.0132 23.1991 37.6608C23.1587 37.3499 22.8755 37.1219 22.5721 37.1219C22.5317 37.1219 22.4912 37.1219 22.4508 37.1219ZM15.8168 37.6608C15.7561 38.0132 15.9988 38.3655 16.3427 38.4277C16.6865 38.4899 17.0303 38.2619 17.091 37.8888C17.1517 37.5364 16.909 37.1841 16.5651 37.1219C16.5247 37.1219 16.4842 37.1219 16.4438 37.1219C16.1404 37.1219 15.8775 37.3499 15.8168 37.6608ZM27.3656 37.267C27.1229 37.3913 27.0218 37.7023 27.1431 37.951C27.2442 38.1997 27.5476 38.3034 27.7903 38.179C28.033 38.0754 28.1342 37.7644 28.033 37.5157C27.9521 37.3291 27.7701 37.2255 27.5881 37.2255C27.5072 37.2255 27.4465 37.2462 27.3656 37.267ZM11.0031 37.5157C10.8818 37.7644 10.9829 38.0754 11.2256 38.179C11.4885 38.3034 11.7717 38.1997 11.893 37.951C11.9942 37.7023 11.893 37.3913 11.6503 37.267C11.5897 37.2462 11.5088 37.2255 11.4481 37.2255C11.266 37.2255 11.084 37.3291 11.0031 37.5157ZM18.8709 38.0546C18.8709 38.407 19.154 38.7179 19.5181 38.7179C19.8619 38.7179 20.1653 38.407 20.1653 38.0546C20.1653 37.6815 19.8619 37.3913 19.5181 37.3913C19.154 37.3913 18.8709 37.6815 18.8709 38.0546ZM24.3318 38.407C24.0688 38.4899 23.907 38.7594 23.9879 39.0288C24.0486 39.2983 24.3115 39.4641 24.5745 39.3812C24.8374 39.319 24.9992 39.0288 24.9385 38.7594C24.8778 38.5521 24.6756 38.3863 24.4531 38.3863C24.4127 38.3863 24.3722 38.407 24.3318 38.407ZM14.0976 38.7594C14.0167 39.0288 14.1785 39.319 14.4415 39.3812C14.7044 39.4641 14.9673 39.2983 15.0482 39.0288C15.1089 38.7594 14.9673 38.4899 14.7044 38.407C14.6639 38.407 14.6033 38.3863 14.5628 38.3863C14.3606 38.3863 14.1583 38.5521 14.0976 38.7594ZM21.1361 38.9874C20.853 39.0081 20.6709 39.2568 20.6912 39.5263C20.7114 39.8165 20.9541 40.0238 21.217 39.9823C21.5002 39.9616 21.6822 39.7336 21.662 39.4434C21.6418 39.1739 21.4193 38.9874 21.1766 38.9874H21.1361ZM17.3539 39.4434C17.3337 39.7336 17.536 39.9616 17.7989 39.9823C18.0821 40.0238 18.3248 39.8165 18.345 39.5263C18.3652 39.2568 18.163 39.0081 17.9 38.9874H17.8394C17.5966 38.9874 17.3742 39.1739 17.3539 39.4434Z"
    fill="url(#paint0_radial_341_1188)"/>
  <radialGradient id="paint0_radial_341_1188" cx="0" cy="0" r="1" gradientUnits="userSpaceOnUse"
                  gradientTransform="translate(19.5124 19.9973) rotate(-90) scale(20.2374 19.747)">
    <stop stop-color="#BFADE7"/>
    <stop offset="0.69" stop-color="#C0ACE7"/>
    <stop offset="1" stop-color="#7F59EB"/>
  </radialGradient>
</svg>
