<svg width="147" height="38" viewBox="0 0 147 38" fill="none" xmlns="http://www.w3.org/2000/svg">
  <path
    d="M48.2056 31.8929V12.8929H50.9866L51.2515 14.3857H51.3839C52.1785 13.3 53.5029 12.6214 55.3569 12.6214C58.8002 12.6214 61.4488 15.4714 61.4488 19.6786C61.4488 23.8857 58.6677 26.7357 55.3569 26.7357C53.5029 26.7357 52.1785 25.9214 51.5164 25.1071H51.3839V31.8929H48.2056ZM58.2704 19.8143C58.2704 17.3714 56.6812 15.7429 54.8272 15.7429C52.9731 15.7429 51.3839 17.2357 51.3839 19.8143C51.3839 22.2571 52.9731 23.8857 54.8272 23.8857C56.6812 23.75 58.2704 22.2571 58.2704 19.8143Z"
    fill="white"/>
  <path
    d="M63.0376 19.8143C63.0376 15.7429 65.9511 12.7571 69.7917 12.7571C73.6322 12.7571 76.5457 15.7429 76.5457 19.8143C76.5457 23.8857 73.6322 26.8714 69.7917 26.8714C65.9511 26.8714 63.0376 23.8857 63.0376 19.8143ZM73.3673 19.8143C73.3673 17.3714 71.7781 15.7429 69.7917 15.7429C67.8052 15.7429 66.216 17.3714 66.216 19.8143C66.216 22.2571 67.8052 23.8857 69.7917 23.8857C71.7781 23.75 73.3673 22.1214 73.3673 19.8143Z"
    fill="white"/>
  <path d="M78.7974 26.6V7.73572H82.1082V26.6H78.7974Z" fill="white"/>
  <path
    d="M93.8948 12.8929H97.338L91.511 29.45C90.9813 31.0786 90.1867 31.8929 88.0678 31.8929H85.0218V28.9071H87.6705C88.2002 28.9071 88.4651 28.6357 88.5975 28.2286L88.8623 27.2786L83.4326 12.8929H86.8759L90.3191 22.3929H90.8488L93.8948 12.8929Z"
    fill="white"/>
  <path
    d="M97.9999 27.2786H101.311C101.443 28.2286 102.37 29.3143 104.357 29.3143C106.211 29.3143 107.535 28.0929 107.535 26.1929V24.2929H107.27C106.608 25.1071 105.284 25.7857 103.562 25.7857C100.119 25.7857 97.4702 23.0714 97.4702 19.2714C97.4702 15.4714 100.119 12.7571 103.562 12.7571C105.284 12.7571 106.608 13.4357 107.403 14.5214H107.535L107.8 13.0286H110.581V26.3286C110.581 29.9929 108.197 32.3 104.224 32.3C99.7216 32.1643 97.9999 29.1786 97.9999 27.2786ZM107.403 19.2714C107.403 17.1 105.946 15.6071 104.092 15.6071C102.238 15.6071 100.781 17.1 100.781 19.2714C100.781 21.4429 102.238 22.9357 104.092 22.9357C105.946 22.8 107.403 21.3071 107.403 19.2714Z"
    fill="white"/>
  <path
    d="M112.833 19.8143C112.833 15.7429 115.746 12.7571 119.587 12.7571C123.427 12.7571 126.341 15.7429 126.341 19.8143C126.341 23.8857 123.427 26.8714 119.587 26.8714C115.746 26.8714 112.833 23.8857 112.833 19.8143ZM123.162 19.8143C123.162 17.3714 121.573 15.7429 119.587 15.7429C117.6 15.7429 116.011 17.3714 116.011 19.8143C116.011 22.2571 117.6 23.8857 119.587 23.8857C121.573 23.75 123.162 22.1214 123.162 19.8143Z"
    fill="white"/>
  <path
    d="M128.592 26.6V13.0286H131.373L131.638 14.25H131.77C132.3 13.5714 133.624 12.7571 135.611 12.7571C138.657 12.7571 140.908 15.0643 140.908 18.4571V26.6H137.73V18.8643C137.73 17.1 136.538 15.8786 134.816 15.8786C133.095 15.8786 131.903 17.2357 131.903 18.8643V26.6H128.592Z"
    fill="white"/>
  <path
    d="M29.5322 24.9714L37.3457 20.3571C37.743 20.0857 38.0079 19.6786 38.0079 19.1357V9.77142C38.0079 9.22857 37.743 8.82143 37.3457 8.55L29.5322 3.93571C29.1349 3.66428 28.6052 3.66428 28.2079 3.93571L20.3944 8.55C19.9971 8.82143 19.7322 9.22857 19.7322 9.77142V26.4643L14.1701 29.7214L8.6079 26.4643V19.95L14.1701 16.6929L17.7457 18.8643V14.5214L14.8322 12.7571C14.5674 12.6214 14.4349 12.6214 14.1701 12.6214C13.9052 12.6214 13.6403 12.6214 13.5079 12.7571L5.69439 17.3714C5.29709 17.6429 5.03223 18.05 5.03223 18.5929V27.9571C5.03223 28.5 5.29709 28.9071 5.69439 29.1786L13.5079 33.7929C13.9052 34.0643 14.4349 34.0643 14.8322 33.7929L22.6457 29.1786C23.043 28.9071 23.3079 28.5 23.3079 27.9571V11.1286H23.4403L28.8701 7.87143L34.4322 11.1286V17.6429L28.8701 20.9L25.162 18.8643V23.2071L28.0755 24.9714C28.6052 25.2429 29.1349 25.2429 29.5322 24.9714Z"
    fill="url(#paint0_linear_341_1127)"/>
  <linearGradient id="paint0_linear_341_1127" x1="4.8055" y1="28.7418" x2="37.0407" y2="10.484"
                  gradientUnits="userSpaceOnUse">
    <stop stop-color="#A726C1"/>
    <stop offset="0.88" stop-color="#803BDF"/>
    <stop offset="1" stop-color="#7B3FE4"/>
  </linearGradient>
</svg>
