<svg version="1.1" xmlns="http://www.w3.org/2000/svg" width="2487" height="1024" viewBox="0 0 2487 1024">
  <title>Tectum</title>
  <path fill="#487bff"
        d="M2029.091 224.362c8.823 0 16.411-6.248 18.105-14.908l24.020-122.858h326.638l-166.35 850.806h-326.638l22.989-117.574c2.046-10.462-5.966-20.192-16.628-20.192h-52.468c-8.823 0-16.411 6.249-18.105 14.909l-23.381 119.59c-9.657 46.838 26.483 89.86 73.661 89.86h350.073c36.159 0 66.713-25.946 73.676-60.761l0.020-0.090 170.733-873.284c9.655-46.837-26.478-89.856-73.651-89.856h-350.073c-36.159 0-66.713 25.944-73.676 60.76l-0.020 0.091-28.021 143.314c-2.046 10.463 5.966 20.193 16.628 20.193h52.468z"/>
  <path fill="#f7f8fa"
        d="M287.734 296.043c13.166 0 20.687 9.787 15.045 37.634-5.266 27.848-16.172 37.632-29.713 37.632h-83.873l-63.939 330.408c-3.009 14.677-16.173 25.59-48.895 25.59s-42.501-11.666-39.492-25.966l63.939-330.41h-83.873c-13.164 0-20.686-9.784-15.045-37.632s16.173-37.632 29.713-37.632h256.134v0.375z"/>
  <path fill="#f7f8fa"
        d="M540.108 465.020c13.166 0 20.687 8.655 15.045 36.503-5.266 27.848-16.174 37.632-29.713 37.632h-122.613l-20.687 107.629h141.043c13.166 0 19.934 9.784 15.045 37.632-5.266 27.848-16.174 37.632-29.713 37.632h-206.112c-16.925 0-21.060-9.784-18.052-27.095l72.588-371.429c3.009-17.688 10.908-27.095 27.833-27.095h203.101c13.166 0 20.687 9.784 15.045 37.632-5.266 27.848-16.174 37.632-29.713 37.632h-137.659l-18.054 93.327h122.613z"/>
  <path fill="#f7f8fa"
        d="M711.617 586.19c-7.899 41.772 10.155 67.737 46.638 67.737 36.108 0 65.442-25.59 73.717-66.608v-1.882c3.009-14.677 16.174-25.59 48.896-25.59s42.501 10.913 39.117 25.59l-1.129 6.022c-16.174 85.423-93.276 137.356-175.27 137.356-81.617 0-138.034-53.063-120.731-139.239l31.593-162.196c16.925-85.8 93.654-139.239 175.27-139.239 82.368 0 138.41 51.934 122.235 137.356l-1.126 6.022c-3.011 14.677-16.925 25.59-49.649 25.59-32.722 0-41.748-10.913-38.739-25.59v-1.882c7.897-41.019-10.908-66.608-47.016-66.608-36.106 0-65.442 25.966-73.342 67.737l-30.464 155.423z"/>
  <path fill="#f7f8fa"
        d="M1287.071 296.047c13.163 0 20.685 9.784 15.043 37.632-5.264 27.848-16.172 37.634-29.713 37.634h-83.872l-63.94 330.408c-3.009 14.677-16.172 25.59-48.894 25.59-32.724 0-42.503-10.913-39.117-25.59l63.938-330.408h-83.872c-13.166 0-20.687-9.787-15.045-37.634 5.266-27.848 16.172-37.632 29.713-37.632h255.759z"/>
  <path fill="#f7f8fa"
        d="M1392.379 585.422c-7.897 41.772 10.908 68.49 47.016 68.49 36.106 0 65.82-26.719 73.717-68.49l52.658-269.071c2.255-14.675 16.172-25.59 48.894-25.59s41.75 10.915 39.117 25.59l-53.033 273.586c-16.925 85.8-93.651 139.239-176.021 139.239-82.368 0-138.41-53.063-121.484-139.239l53.409-273.586c2.258-14.675 16.174-25.59 48.896-25.59s41.748 10.915 39.117 25.59l-52.283 269.071z"/>
  <path fill="#f7f8fa"
        d="M1862.526 701.352l53.784-276.973c7.899-39.136-7.146-60.586-37.988-60.586s-54.538 21.072-62.434 60.586l-53.787 276.973c-3.009 14.677-16.172 25.59-48.894 25.59-32.724 0-42.501-10.913-39.117-25.59l53.784-275.091c15.796-82.789 81.617-137.356 160.226-137.356 42.501 0 74.846 18.815 90.267 45.534 25.951-26.719 65.82-45.534 108.321-45.534 78.608 0 122.613 54.567 107.192 137.356l-53.784 275.091c-3.009 14.677-16.174 25.59-48.896 25.59s-42.501-10.913-39.117-25.59l53.787-276.973c7.897-39.136-7.148-60.586-37.988-60.586-30.842 0-54.538 21.072-62.436 60.586l-53.784 276.973c-3.009 14.677-16.172 25.59-48.896 25.59-33.473-0.375-43.252-11.291-40.243-25.59z"/>
</svg>
