<svg version="1.1" xmlns="http://www.w3.org/2000/svg" width="1719" height="1024" viewBox="0 0 1719 1024">
  <title>Trail of Bits</title>
  <path fill="#fff" d="M622.5 999.527l-139.125-75.824-33.618 100.297 172.482-24.41c-0.525 0-0.788 0 0.261-0.064z"/>
  <path fill="#fff" d="M622.495 999.527l-0.26 0.066c0.649 0 1.754-0.066 0.26-0.066z"/>
  <path fill="#fff" d="M1101.409 950.71l111.996-32.978 42.072-132.756-103.411 7.077-50.657 158.658z"/>
  <path fill="#fff" d="M1367.93 100.168l-85.586-55.504-47.905 152.36 94.171 28.304 39.32-125.161z"/>
  <path fill="#fff"
        d="M790.456 64.593c0 0 57.997 17.787 80.869 24.279l82.439 24.409 1.441-113.28-144.958 28.823-19.791 35.769z"/>
  <path fill="#fff"
        d="M214.947 487.721l101.773 0.26 36.239-113.669-92.531-24.538c-9.83 31.225-35.452 106.723-45.48 137.947z"/>
  <path fill="#fff" d="M25.56 382.101l76.149 79.329 43.841-140.74-93.45-24.799-26.541 86.21z"/>
  <path fill="#fff"
        d="M1638.448 836.326c-1.573-39.859-12.648-52.906-36.173-77.38l-122.677 8.179c34.207 21.488 55.177 48.102 59.504 83.807 4.784 39.21-37.813 84.522-79.033 84.522-23.002 0-34.47-18.046-34.47-38.755 0.655-15.451 6.095-35.511 14.221-48.883h-104.066c-8.126 20.774-14.875 44.209-14.875 66.28 0 75.628 66.907 95.038 130.408 95.038 66.189 0 120.975-12.723 155.445-73.68 15.53-27.524 33.028-66.993 31.717-99.129z"/>
  <path fill="#fff"
        d="M343.92 10.258l-318.948 0.26-24.902 78.355 116.91-0.13-57.8 182.158 93.515 24.797 64.944-207.020 101.378-0.13 24.903-78.29z"/>
  <path fill="#fff"
        d="M378.721 290.7c11.469-0.715 23.002-0.715 34.47-0.715 18.939-0.064 47.314 1.298 47.314 27.396 0.066 18.046-6.685 40.832-12.058 58.231-10.092 35.509-22.215 70.954-24.247 107.112l104.72-0.13c-2.752-58.231 33.684-109.125 33.618-166.707 0-38.821-29.753-54.206-64.221-60.242l10.092-1.364c75.034-10.127 116.844-68.357 116.778-141.324-0.066-80.886-68.35-103.607-137.946-103.543l-120.252 0.13c-34.209 105.166-66.646 210.915-99.871 316.535l92.465 24.474 19.136-59.853zM443.401 83.744l33.816-0.065c25.033 0 50 5.972 50.066 35.445 0.066 36.159-26.278 97.115-69.53 97.115l-55.44 0.066 41.088-132.561z"/>
  <path fill="#fff"
        d="M662.078 483.892l53.932-101.142 129.099-0.13-3.931 101.725 101.38-0.064 8.060-346.333-87.093-26.162c-7.931 64.982-12.387 130.679-12.387 195.854l-97.971 0.066c34.995-65.567 68.548-131.653 98.759-199.426l-69.793-20.968-225.498 396.643 105.443-0.064z"/>
  <path fill="#fff"
        d="M1379.791 483.241l25.624-77.056-135.85 0.196 50.33-157.489-94.171-28.303-83.814 262.848 237.883-0.196z"/>
  <path fill="#fff"
        d="M750.544 513.559h-133.096l-124.97 387.295 159.047 85.82c95.219-3.571 161.931-73.357 161.931-169.174 0-36.807-23.002-65.565-58.783-75.628 70.318-16.035 115.535-60.893 115.535-134.508-0.066-71.733-56.161-93.806-119.664-93.806zM695.826 885.079c-18.94 28.109-39.19 30.122-70.972 30.122h-41.22l45.283-139.182c33.093 1.298 91.877-6.687 91.877 41.481 0 21.358-12.778 50.181-24.967 67.579zM687.7 708.311h-37.879l39.845-122.5c29.751 1.364 85.848-7.984 85.848 37.522 0.72 53.557-33.75 84.977-87.813 84.977z"/>
  <path fill="#fff"
        d="M1072.905 175.213l-100.985 334.453-89.19 271.287 107.081-8.179 77.328-241.36h0.13l104.459-326.923c-14.548-4.025-72.479-22.461-98.823-29.277z"/>
  <path fill="#fff"
        d="M1122.973 514.274l-25.033 78.224h116.976l-54.72 174.171 102.1-6.945 53.277-167.227h101.314l25.033-78.224h-318.947z"/>
  <path fill="#fff"
        d="M1586.553 509.534c-104.72 0-166.91 72.252-166.91 172.679 0.13 14.607 13.303 50.571 40.236 62.579l125.954-8.439c-21.429-17.916-59.308-60.178-59.308-82.639 0-30.835 17.368-71.15 53.213-71.15 24.313 0 39.188 6.687 39.188 32.784 0 16.748-8.126 32.133-12.844 48.232h97.315c6.095-14.087 15.532-46.221 15.532-60.957 0.066-73.031-71.561-93.091-132.376-93.091z"/>
  <path fill="#fff"
        d="M431.804 516.351c-47.643 0-54.459 34.86-66.255 71.863-3.931 13.308-11.403 29.539-11.403 43.494 0 26.876 24.051 32.005 46.398 32.005 27.326 0.194 41.874-8.894 51.573-34.342 6.619-17.397 23.854-65.242 23.854-82.055 0-23.824-24.247-30.965-44.167-30.965zM445.107 550.562c0 5.974-6.815 25.448-9.11 32.265l-10.551 32.587c-4.129 12.336-9.108 26.487-24.836 26.487-8.912 0-14.68-5.129-14.68-14.347 0-11.944 9.306-34.081 13.237-46.415 3.931-12.27 9.11-36.743 22.806-41.483 3.079-1.039 6.422-1.428 9.765-1.428 6.224 0 13.696 5.519 13.696 12.14l-0.327 0.194z"/>
  <path fill="#fff"
        d="M553.033 599.443l7.208-23.629h-41.417l11.205-35.251h43.515l7.667-23.629h-75.429l-45.349 144.894h31.718l19.659-62.385h41.221z"/>
</svg>
