<svg version="1.1" xmlns="http://www.w3.org/2000/svg" width="1024" height="1024" viewBox="0 0 1024 1024">
  <title>1inch</title>
  <path fill="#fff"
        d="M243.816 561.119l27.091-203.544-234.982-163.125 214.699 72.725 50.705-77.796 185.146-114.883 408.102 224.84 21.151 343.055-181.813 252.655-143.712 22.021 74.319-136.034v-130.964l-54.037-102.279-54.906-36.363-84.46 87.067v92.138l-65.916 61.715-83.736 10.141-37.087 21.006-60.846-19.413-25.352-91.269 45.635-64.178v-47.518z"/>
  <path fill="#94a6c3"
        d="M619.032 192.711c-44.765-9.272-93.731-6.809-93.731-6.809s-16.081 74.319-115.752 93.876c0.725 0 131.688 44.765 209.483-87.067z"/>
  <path fill="#94a6c3"
        d="M659.596 867.087c54.037-42.302 94.601-100.54 113.289-166.457 0.87-2.463 8.402-6.809 13.473-10.141 8.402-5.071 16.95-9.272 18.543-16.081 3.332-19.413 5.071-39.695 5.071-59.977 0-7.533-7.678-15.212-15.212-22.744-5.939-5.071-11.879-11.010-11.879-15.212-8.402-76.926-43.896-148.783-100.54-201.081l-5.939 5.939c54.906 51.574 90.4 121.691 98.077 196.011 0.87 6.809 7.533 13.473 14.342 20.282 5.939 5.071 12.749 12.749 12.749 16.081 0 19.413-1.738 38.826-5.071 58.238-0.87 3.332-8.402 6.809-14.342 10.141-8.402 4.201-16.081 8.402-17.675 15.212-20.282 71.857-66.786 134.44-128.501 175.005 11.010-23.614 45.635-100.54 64.178-139.511l-3.332-125.024-107.35-103.873-60.846 8.402-66.786 108.219c0 0 31.292 39.695-12.749 86.199-43.027 45.635-76.926 55.775-76.926 55.775l-31.292-16.95c9.272-11.879 27.96-29.553 42.302-41.433 24.484-20.282 48.966-22.021 48.966-43.896 1.015-45.78-48.098-33.176-48.098-33.176l-17.819 16.95-7.533 62.585-37.087 46.503-4.201-0.87-60.846-13.473c0 0 37.232-19.413 43.172-41.433 5.939-21.151-11.879-91.269-12.749-95.471 0.87 0.87 17.819 15.212 25.352 38.826 13.473-37.232 31.292-72.725 36.363-76.058s73.45-39.695 73.45-39.695l-22.744 59.977 16.95-9.272 40.564-99.672c0 0 39.695-19.413 69.249-19.413 53.167-0.87 131.833-65.916 96.339-182.538 10.141 4.201 185.869 92.138 216.292 264.535 22.744 132.557-52.444 256.711-179.206 328.568z"/>
  <path fill="#1b314f"
        d="M458.515 211.255c19.413-22.889 11.879-56.645 11.879-56.645l-56.645 83.736c-0.87 0 20.137 0.87 44.765-27.091z"/>
  <path fill="#1b314f"
        d="M268.298 668.469l6.809-33.755c0 0-27.96 48.966-30.423 55.775-2.608 7.678 1.738 21.151 12.604 20.282 11.010-0.87 24.484-16.95 24.484-28.685 0-15.212-13.473-13.618-13.473-13.618z"/>
  <path fill="#1b314f"
        d="M770.277 130.996c0 0 42.302 1.738 86.199 6.809-98.947-77.796-192.678-100.54-268.736-100.54-104.742 0-175.729 43.172-180.075 45.635l33.031-52.444c0 0-131.833-12.749-178.336 126.762-11.879-29.553-22.744-72.725-22.744-72.725s-68.524 60.122-36.363 159.793c-78.665-28.685-190.94-68.524-195.286-69.249-5.939-0.87-7.678 1.738-7.678 1.738s-1.738 2.463 3.332 6.809c9.417 7.389 186.884 138.497 225.854 163.85-8.402 30.423-8.402 44.765 0 59.107 11.879 19.413 12.604 29.553 11.010 43.896-1.738 14.342-16.95 138.641-20.282 153.853s-38.826 69.249-37.232 85.329c1.738 16.081 23.614 84.46 43.172 92.138 14.342 5.071 49.836 16.081 73.45 16.081 8.402 0 16.081-1.738 19.413-5.071 14.342-12.604 18.543-15.212 28.685-15.212 0.87 0 1.738 0 2.463 0 4.201 0 9.272 0.87 15.212 0.87 13.473 0 31.292-2.608 43.896-14.342 18.543-18.543 50.705-43.896 60.846-55.775 12.749-16.081 19.413-37.956 16.081-59.977-2.608-20.282 8.402-38.101 21.151-55.775 16.081-21.151 45.635-59.107 45.635-59.107 58.383 43.751 94.746 110.537 94.746 184.856 0 131.833-114.883 238.313-256.856 238.313-22.021 0-43.027-2.463-64.178-7.533 65.047 22.744 119.953 30.423 164.863 30.423 95.471 0 146.175-34.624 146.175-34.624s-17.675 22.889-46.503 48.966c0.87 0 0.87 0 0.87 0 158.054-22.021 234.982-152.115 234.982-152.115s-5.939 42.302-13.473 70.987c210.208-158.054 174.715-355.803 173.845-362.468 1.738 2.463 22.889 27.815 33.755 41.433 33.9-348.271-250.917-460.69-250.917-460.69zM446.635 687.157c-3.332 4.201-17.675 16.95-27.815 26.222s-21.151 18.543-29.553 27.091c-3.332 3.332-10.141 5.071-20.282 5.071-3.332 0-6.809 0-9.272 0-1.738 0-3.332 0-5.071 0s-2.608 0-3.332 0c-2.608 0-5.071 0-7.678 0 12.749-16.95 49.836-55.775 62.585-64.178 15.212-10.141 22.889-20.282 13.473-37.956-9.272-17.819-33.755-13.473-33.755-13.473s14.342-5.939 27.091-5.939c-16.081-4.201-36.363 0-45.635 9.272-10.141 9.272-8.402 42.302-12.604 63.309-4.201 22.021-18.543 33.031-40.564 53.312-11.879 11.010-20.282 14.342-27.091 14.342-14.342-2.463-31.292-6.809-43.172-11.010-8.402-11.010-21.151-47.373-24.484-62.585 2.463-8.402 12.604-26.222 17.675-36.363 10.141-19.413 16.081-30.423 17.819-40.564 3.332-14.342 14.342-103.148 18.543-140.236 11.010 14.342 26.222 38.101 22.744 53.312 24.484-34.624 6.809-68.524-1.738-81.997-7.533-13.473-17.675-40.564-9.272-69.249s38.826-108.219 38.826-108.219 10.141 17.819 24.484 14.342c14.342-3.332 130.094-177.467 130.094-177.467s31.292 68.379-1.738 118.36c-33.755 49.836-66.786 59.107-66.786 59.107s46.503 8.402 89.53-22.889c17.675 41.433 34.624 84.46 35.493 90.4-2.608 5.939-36.363 87.067-39.695 92.138-1.738 1.738-13.473 5.071-22.021 6.809-14.342 4.201-22.744 6.809-26.222 9.272-5.939 5.071-33.031 79.389-45.635 115.752-15.212 4.201-30.423 12.749-41.433 29.553 5.939-4.201 24.484-6.809 38.101-8.402 11.879-0.87 48.098 18.543 57.514 54.906 0 0.87 0 0.87 0 1.738 1.883 13.328-2.318 26.077-9.127 36.218zM367.246 697.298c7.678-11.010 6.809-29.553 7.678-35.493s2.463-16.95 9.272-18.543c6.809-1.738 22.889 0.87 22.889 12.604 0 11.010-11.879 13.473-20.282 21.151-6.084 5.795-17.964 18.543-19.558 20.282zM704.361 535.766c8.402-43.027 9.272-80.259 6.809-110.681 32.886 43.896 53.167 97.209 59.107 152.115 0.87 6.809 7.533 13.473 14.342 20.282 5.939 5.071 12.749 11.879 12.749 16.081 0 19.413-1.738 38.826-5.071 58.383-0.87 2.463-8.402 6.809-14.342 10.141-8.402 4.201-16.081 8.402-17.675 15.212-18.543 65.047-58.383 122.561-111.551 163.125 78.52-81.997 116.477-217.307 55.63-324.657zM651.193 867.956c54.906-42.302 97.209-101.41 115.752-168.196 0.87-2.463 8.402-6.809 13.473-10.141 8.402-4.201 16.95-9.272 18.543-16.081 3.332-19.413 5.071-39.695 5.071-59.977 0-7.533-7.678-15.212-15.212-22.744-4.201-5.071-11.010-11.010-11.010-15.212-6.809-61.715-31.292-119.953-69.249-168.196-16.95-101.41-84.46-132.702-86.199-133.571 1.738 2.608 45.635 65.916 15.212 140.236-31.292 75.188-111.551 63.453-118.36 64.178-6.809 0-32.886 33.755-65.916 96.339-4.201-1.738-22.021-5.939-42.302-2.463 15.212-42.302 38.101-102.279 42.302-107.35 1.738-1.738 14.342-5.071 22.889-7.533 16.081-4.201 23.614-6.809 26.222-10.141 1.738-2.608 10.141-22.021 18.543-42.302 7.678 0 27.091-1.738 28.685-2.608 1.738-1.738 17.819-43.027 17.819-48.098 0-4.201-33.031-86.199-45.635-117.49 5.939-6.809 11.879-15.212 17.675-24.484 173.266 18.688 308.575 165.733 308.575 343.924 0 136.903-80.259 256.133-196.88 311.908z"/>
  <path fill="#1b314f"
        d="M426.354 411.612c16.081-18.543 7.678-53.167-22.021-59.107 7.678-17.675 18.543-53.167 18.543-53.167s-86.199 135.165-93.731 137.773c-7.678 2.608-15.212-27.091-15.212-27.091-16.081 61.715 27.091 70.117 32.161 50.705 23.614-6.084 64.178-31.437 80.259-49.111z"/>
  <path fill="#ffd923"
        d="M352.759 444.498l43.896-75.188c0 0 25.352 12.749 12.604 33.031-15.936 23.614-56.5 42.157-56.5 42.157z"/>
  <path fill="#d82122"
        d="M896.171 792.768c-12.749 16.95-27.091 34.624-43.896 51.574 108.943-209.628 5.071-401.438 0.87-408.972 7.678 7.678 15.212 16.081 22.021 23.614 83.591 92.863 93.731 232.374 21.006 333.784z"/>
  <path fill="#d82122"
        d="M997.581 523.162c-38.101-102.279-92.138-189.347-211.223-267.867-114.883-76.058-238.313-70.117-245.122-69.249-0.87 0-1.738 0-1.738 0 4.201-1.738 8.402-2.608 12.604-3.332 26.222-8.402 59.977-15.212 93.876-19.413 89.675-12.894 180.075 17.53 241.79 82.721 0.87 0.87 0.87 0.87 1.738 1.738 70.117 74.319 106.48 167.181 108.074 275.4z"/>
  <path fill="#d82122"
        d="M759.268 104.774c-125.893-23.614-207.021-11.879-265.404 10.141-1.738-6.809-7.678-20.282-12.749-31.292-17.53 21.151-36.218 46.503-47.953 62.585-32.161 22.021-45.635 43.172-45.635 43.172 18.543-63.453 72.725-110.681 138.641-122.561 18.543-3.332 38.826-5.071 60.846-5.071 58.238 0.87 116.477 15.212 172.252 43.027z"/>
  <path fill="#d82122"
        d="M293.651 267.031c-98.802-3.332-65.916-118.36-64.178-125.024 0 0.87 6.664 90.4 64.178 125.024z"/>
  <path fill="#d82122"
        d="M390.86 60.009c-76.058 45.635-60.846 154.578-60.846 154.578-72.725-110.537 54.906-151.97 60.846-154.578z"/>
  <path fill="#fff"
        d="M265.836 297.453c5.071 4.201 10.141 11.879 4.201 22.889-3.332 5.939-8.402 5.071-16.081 1.738-10.141-5.071-70.987-40.564-125.893-76.926 62.585 22.021 125.893 45.635 136.034 50.705 0 0 0.87 0.87 1.738 1.593z"/>
</svg>
