<svg version="1.1" xmlns="http://www.w3.org/2000/svg" width="1024" height="1024" viewBox="0 0 1024 1024">
  <title>AGIX</title>
  <path fill="#6916ff"
        d="M1024 512c0 282.77-229.23 512-512 512s-512-229.23-512-512c0-282.77 229.23-512 512-512s512 229.23 512 512z"/>
  <path fill="#fff" opacity="0.5"
        d="M548.608 205.568c-2.264-1.647-3.718-4.287-3.718-7.267 0-1.597 0.418-3.096 1.15-4.394l-0.023 0.045c1.411-0.917 3.138-1.463 4.992-1.463s3.581 0.546 5.028 1.485l-0.036-0.022c23.413 9.868 43.36 23.629 59.963 40.665l0.037 0.039c9.696 8.992 17.824 19.488 24 31.040 6.528 11.776 11.872 24.096 16 36.864 3.936 13.216 5.984 26.944 6.016 40.704-2.016 13.6-4 79.52-42.016 110.56-3.36 2.052-7.425 3.267-11.774 3.267-7.428 0-14.028-3.545-18.201-9.035l-0.041-0.056c-2.982-3.481-4.797-8.038-4.797-13.019 0-3.781 1.046-7.317 2.864-10.336l-0.050 0.090c16.202-24.749 25.842-55.064 25.842-87.631 0-29.875-8.112-57.856-22.253-81.86l0.412 0.755c-12.8-18.112-27.328-34.976-43.392-50.432zM489.6 800.192c4 3.872 4 7.744 2.016 9.696s-6.016 3.872-8 1.92c-23.413-9.868-43.36-23.629-59.963-40.665l-0.037-0.039c-9.496-8.804-17.495-19.048-23.69-30.418l-0.31-0.622c-5.949-10.463-11.366-22.643-15.581-35.371l-0.419-1.461c-3.781-12.185-5.977-26.197-6.016-40.716v-0.020c2.016-13.568 4-79.52 42.016-110.56 3.355-2.044 7.412-3.254 11.752-3.254 7.422 0 14.018 3.539 18.191 9.022l0.041 0.056c2.807 3.058 4.527 7.152 4.527 11.648s-1.72 8.59-4.539 11.661l0.011-0.013c-16.196 24.745-25.832 55.056-25.832 87.616 0 29.869 8.108 57.843 22.243 81.843l-0.412-0.756c12.96 18.144 27.712 35.040 44 50.432z"/>
  <path fill="#fff"
        d="M662.208 640.192c-3.112-38.885-18.484-73.682-42.201-101.051l0.185 0.219c-24.114-24.232-51.775-44.903-82.147-61.173l-1.853-0.907c-28.82-16.072-53.698-33.473-76.638-53.076l0.638 0.532c-18.811-17.71-32.274-40.907-37.833-67.027l-0.151-0.845c-1.336-7.153-2.1-15.382-2.1-23.79 0-20.129 4.38-39.235 12.24-56.417l-0.347 0.848c13.91-28.396 32.838-52.297 55.847-71.464l0.345-0.28c1.71-1.53 2.782-3.745 2.782-6.209 0-1.265-0.282-2.464-0.787-3.538l0.021 0.051c-1.351-2.382-3.87-3.963-6.758-3.963-2.024 0-3.867 0.777-5.247 2.048l0.005-0.005c-32.392 14.363-58.911 36.994-77.603 65.255l-0.413 0.665c-17.978 25.548-28.733 57.309-28.733 91.582 0 4.63 0.196 9.214 0.581 13.745l-0.040-0.591c1.745 20.006 6.732 38.433 14.445 55.356l-0.429-1.052c8.817 17.831 19.497 33.162 32.104 46.673l-0.104-0.113c24.669 23.602 52.999 43.663 83.993 59.192l1.991 0.904c27.136 14.080 52.64 31.008 76 50.432 19.983 17.597 33.773 41.809 37.936 69.185l0.080 0.639c5.632 28.128 2.112 57.28-10.016 83.392-14.085 28.050-33.678 51.421-57.524 69.467l-0.492 0.357c-2.001 1.165-3.324 3.3-3.324 5.744 0 1.489 0.491 2.863 1.321 3.97l-0.012-0.017c1.12 2.048 3.2 3.52 5.536 3.872s4.768-0.32 6.496-1.92c30.218-17.65 55.513-40.363 75.528-67.241l0.472-0.663c19.84-30.656 28.992-66.688 26.208-102.784z"/>
</svg>
