<!-- Generated by IcoMoon.io -->
<svg version="1.1" xmlns="http://www.w3.org/2000/svg" width="1024" height="1024" viewBox="0 0 1024 1024">
    <title>Alephium</title>
    <path fill="#000"
          d="M426.95 649.992c0-11.205-8.827-18.748-19.686-16.827l-130.719 23.044c-10.869 1.917-19.686 12.565-19.686 23.775v246.897c0 11.205 8.827 18.748 19.686 16.826l130.719-23.044c10.869-1.917 19.686-12.564 19.686-23.775v-246.896z"/>
    <path fill="#f00"
          d="M767.151 97.13c0-11.205-8.827-18.748-19.687-16.827l-130.717 23.045c-10.87 1.917-19.686 12.564-19.686 23.775v246.896c0 11.205 8.826 18.748 19.686 16.827l130.717-23.044c10.87-1.917 19.687-12.565 19.687-23.775v-246.897z"/>
    <path fill="#000"
          d="M448.248 154.804c-5.049-11.114-18.601-18.473-30.24-16.42l-140.055 24.695c-11.64 2.053-16.996 12.743-11.955 23.856l309.764 682.239c5.049 11.114 18.601 18.474 30.24 16.42l140.055-24.694c11.639-2.053 16.996-12.744 11.955-23.857l-309.764-682.239z"/>
</svg>
