<svg version="1.1" xmlns="http://www.w3.org/2000/svg" width="1024" height="1024" viewBox="0 0 1024 1024">
  <title>GRT</title>
  <path fill="#6747ed"
        d="M1024 512c0 282.77-229.23 512-512 512s-512-229.23-512-512c0-282.77 229.23-512 512-512s512 229.23 512 512z"/>
  <path fill="#fff"
        d="M504.533 578.133c75.733 0 136.533-60.8 136.533-136.533s-60.8-136.533-136.533-136.533c-75.733 0-136.533 60.8-136.533 136.533s60.8 136.533 136.533 136.533zM504.533 236.8c113.067 0 204.8 91.733 204.8 204.8s-91.733 204.8-204.8 204.8c-113.067 0-204.8-91.733-204.8-204.8s91.733-204.8 204.8-204.8zM699.733 657.067c13.867 13.867 13.867 35.2 0 48l-136.533 136.533c-13.867 13.867-35.2 13.867-48 0-13.867-13.867-13.867-35.2 0-48l136.533-136.533c12.8-13.867 35.2-13.867 48 0zM778.667 270.933c0 19.2-14.933 34.133-34.133 34.133s-34.133-14.933-34.133-34.133 14.933-34.133 34.133-34.133c18.133 0 34.133 14.933 34.133 34.133z"/>
</svg>
