<svg version="1.1" xmlns="http://www.w3.org/2000/svg" width="1024" height="1024" viewBox="0 0 1024 1024">
<title>Kaspa</title>
<path fill="#37367b" d="M986.406 534.181c0.852 148.852-72.974 297.046-196.508 381.478-261.546 179.784-617.434 29.926-696.718-270.992-96.822-366.496 269.366-682.124 618.054-536.098 167.396 69.568 277.186 245.79 275.172 425.612v0zM984.084 534.181c0.968-171.15-106.848-327.318-261.584-396.498-292.902-132.824-624.906 74.212-631.952 396.498-3.716 331.538 336.726 532.846 632.3 397.274 154.348-69.994 262.474-225.89 261.236-397.274v0z" />
<path fill="#231f20" d="M929.964 344.333c-23.034-55.514-59.308-107.042-101.158-148.89s-95.388-73.206-150.904-96.24c-53.578-22.222-113.158-33.37-174.79-33.37s-124.888 2.246-178.468 24.466c-55.514 23.034-101.97 66.702-143.818 108.552s-90.472 86.252-113.506 141.768c-22.222 53.578-14.982 118.888-14.982 180.518s4.49 122.062 26.712 175.642c23.034 55.514 69.916 94.77 111.764 136.618s79.788 91.904 135.302 114.939c53.578 22.222 115.364 37.358 176.958 37.358s122.062-18.272 175.642-40.494c55.514-23.034 105.726-58.998 147.574-100.848s75.568-92.95 98.602-148.504c22.222-53.578 47.656-113.12 47.656-174.712s-20.44-123.224-42.662-176.802z" />
<path fill="#37367b" d="M929.808 344.411c-35.578-82.652-95.156-156.324-172.118-203.63-76.574-47.81-165.962-74.832-256.474-73.322-97.828-0.078-175.486 6.31-253.61 71.736-23.46 18.776-45.14 39.72-66.47 60.934-21.37 21.254-43.204 42.004-63.024 64.65-43.707 48.662-65.58 96.898-65.967 162.944-0.89 30.080 0.812 60.198 0.968 90.318 0.116 59.85 3.64 121.288 26.518 177.266 23.15 56.444 71.348 96.164 113.506 138.322 42.042 42.042 80.252 92.020 137.044 114.436 121.52 49.126 229.49 46.92 349.424-5.264 110.294-47.424 200.534-139.716 245.75-251.016 23.072-55.088 46.882-112.268 46.572-172.97-0.464-60.432-19.396-118.966-42.12-174.44v0zM930.156 344.255c23.072 55.438 42.314 113.972 43.088 174.558 0.62 60.934-22.956 118.5-45.682 173.86-44.674 112.346-135.070 206.070-246.524 253.532-120.824 52.456-229.878 54.624-352.172 5.032-57.412-22.608-95.814-73.128-137.818-115.598-42.042-42.43-90.394-82.73-113.352-139.6-22.84-56.328-26.17-117.998-26.092-178.042-0.038-30.080-1.664-60.238-0.658-90.394 0.658-66.858 21.64-114.397 65.812-164.066 19.782-22.802 41.578-43.707 62.832-65 21.254-21.33 42.932-42.43 66.432-61.398 77.62-65.58 157.408-73.67 255.196-72.974 90.976-1.006 180.674 26.596 257.364 75.104 76.884 47.772 136.348 121.946 171.538 204.946v0z" />
<path fill="#fff" d="M635.9 785.043l-99.376-14.788 28.376-192.21-207.966 160.156-61.166-79.942 182.416-140.45-182.416-140.49 61.166-79.942 207.966 160.156-28.376-192.21 99.376-14.75 39.41 267.236-39.41 267.236z" />
<path fill="#37367b" d="M970.69 511.767c0.852 148.852-72.974 297.046-196.508 381.478-261.546 179.784-617.434 29.926-696.718-270.992-96.822-366.496 269.366-682.124 618.054-536.098 167.396 69.568 277.186 245.79 275.172 425.612v0zM968.366 511.767c0.968-171.15-106.848-327.318-261.584-396.498-292.902-132.824-624.944 74.212-631.952 396.498-3.716 331.5 336.726 532.846 632.3 397.274 154.348-69.994 262.514-225.89 261.236-397.274v0z" />
<path fill="#37367b" d="M501.874 963.393c-152.722 0.852-304.788-74.871-391.388-201.618-184.468-268.32-30.7-633.5 278.037-714.874 376.020-99.338 699.854 276.372 550.074 634.158-71.386 171.77-252.216 284.424-436.722 282.334v0zM501.874 960.993c175.602 0.968 335.874-109.636 406.836-268.398 136.27-300.49-76.148-641.166-406.836-648.366-340.172-3.794-546.744 345.514-407.61 648.754 71.812 158.376 231.774 269.326 407.61 268.010v0z" />
<path fill="#37367b" d="M986.406 500.579c0.852 148.852-72.974 297.046-196.508 381.478-261.546 179.784-617.434 29.926-696.718-270.992-96.822-366.496 269.366-682.124 618.054-536.136 167.396 69.568 277.186 245.79 275.172 425.612v0zM984.084 500.579c0.968-171.15-106.848-327.318-261.584-396.498-292.902-132.824-624.906 74.174-631.952 396.498-3.716 331.538 336.726 532.846 632.3 397.274 154.348-69.994 262.474-225.89 261.236-397.274v0z" />
<path fill="#37367b" d="M993.143 500.579c0.852 148.852-72.974 297.046-196.508 381.478-261.546 179.784-617.434 29.926-696.718-270.992-96.822-366.496 269.366-682.124 618.054-536.136 167.396 69.568 277.186 245.79 275.172 425.612v0zM990.82 500.579c0.968-171.15-106.848-327.318-261.584-396.498-292.902-132.824-624.906 74.174-631.952 396.498-3.716 331.5 336.726 532.846 632.3 397.274 154.348-69.994 262.514-225.89 261.236-397.274v0z" />
<path fill="#37367b" d="M940.88 518.503c1.78 247.686-201.734 457.278-451.084 454.182-212.418 0.154-403.080-157.95-444.31-365.916-59.386-279.198 159.226-545.466 444.31-543.648 248.692-2.206 453.484 207.966 451.084 455.382v0zM939.719 518.503c1.472-210.986-157.368-396.266-363.284-435.018-272.772-54.624-532.652 156.516-534.008 435.018-1.664 321.008 323.216 530.794 617.628 410.552 164.414-65.426 281.638-232.434 279.662-410.59v0z" />
</svg>
