<svg version="1.1" xmlns="http://www.w3.org/2000/svg" width="32" height="32" viewBox="0 0 32 32">
  <title>LDO</title>
  <path fill="#f69988" d="M32 16c0 8.837-7.163 16-16 16s-16-7.163-16-16c0-8.837 7.163-16 16-16s16 7.163 16 16z"/>
  <path fill="#fff"
        d="M16.007 4.688l-5.612 8.764 5.612 3.263 5.613-3.263-5.613-8.765zM12.113 13.038l3.894-6.082 3.894 6.082-3.895 2.264-3.894-2.264z"/>
  <path fill="#fff"
        d="M15.999 18.642l-6.511-3.786-0.178 0.278c-2.005 3.132-1.557 7.233 1.077 9.86 3.1 3.092 8.125 3.092 11.225 0 2.634-2.627 3.082-6.729 1.077-9.86l-0.178-0.278-6.512 3.786z"/>
</svg>
