<svg version="1.1" xmlns="http://www.w3.org/2000/svg" width="32" height="32" viewBox="0 0 32 32">
  <title>looks</title>
  <path fill="#2de370" d="M10.592 5.227l-8.123 8.080 13.531 13.467 13.531-13.461-8.123-8.085h-10.816z"/>
  <path fill="#121619"
        d="M10.213 10.475c3.195-3.2 8.379-3.2 11.573 0l2.763 2.763-2.763 2.763c-3.195 3.2-8.379 3.2-11.573 0l-2.763-2.763 2.763-2.763z"/>
  <path fill="#fff"
        d="M16 16.624c-1.867 0-3.381-1.477-3.381-3.296s1.515-3.296 3.381-3.296 3.381 1.477 3.381 3.296-1.509 3.296-3.381 3.296z"/>
  <path fill="#121619"
        d="M16 14.661c-0.784 0-1.424-0.64-1.424-1.424 0-0.789 0.64-1.424 1.424-1.424s1.424 0.64 1.424 1.424c0 0.789-0.635 1.424-1.424 1.424z"/>
</svg>
