<svg version="1.1" xmlns="http://www.w3.org/2000/svg" width="32" height="32" viewBox="0 0 32 32">
  <title>liquity-logo</title>
  <path fill="#fff" d="M32 16c0 8.837-7.163 16-16 16s-16-7.163-16-16c0-8.837 7.163-16 16-16s16 7.163 16 16z"/>
  <path fill="#2eb6ea"
        d="M23.616 16c0 4.553-3.691 8.243-8.243 8.243s-8.243-3.691-8.243-8.243c0-4.553 3.691-8.243 8.243-8.243s8.243 3.691 8.243 8.243z"/>
  <path fill="#1542cd"
        d="M15.334 24.243c-8.205 0-11.443-10.79-4.198-15.334-0.858 9.011 3.725 9.216 7.974 9.011 7.13-0.333 7.13 6.323 7.13 6.323h-10.906z"/>
  <path fill="#745ddf"
        d="M23.168 18.688c-1.28 3.264-4.378 5.453-7.885 5.555 0.090 0 0.166 0 0.256 0h10.842c0 0 0-3.904-3.213-5.555z"/>
</svg>
