<svg version="1.1" xmlns="http://www.w3.org/2000/svg" width="1024" height="1024" viewBox="0 0 1024 1024">
  <title>Maker</title>
  <path fill="#000"
        d="M1024 512c0 282.77-229.23 512-512 512s-512-229.23-512-512c0-282.77 229.23-512 512-512s512 229.23 512 512z"/>
  <path fill="#fff"
        d="M259.994 665.6v-240.981l182.75 137.54v103.441h46.643v-113.152c-0.019-8.829-4.24-16.668-10.77-21.626l-0.067-0.049-221.628-166.861c-4.487-3.363-10.148-5.385-16.282-5.385-15.036 0-27.234 12.153-27.306 27.172v279.9zM765.406 665.6v-240.981l-182.75 137.54v103.441h-46.643v-113.152c0.019-8.829 4.24-16.668 10.77-21.626l0.067-0.049 221.628-166.793c4.487-3.363 10.149-5.385 16.282-5.385 15.012 0 27.195 12.115 27.306 27.101v279.904z"/>
</svg>
