<svg version="1.1" xmlns="http://www.w3.org/2000/svg" width="1024" height="1024" viewBox="0 0 1024 1024">
  <title>Wrapped Matic</title>
  <path fill="#2891f9" d="M0.002 216.501l511.998 295.498v196.998l-341.333-196.998v393.995l-170.667-98.499v-590.994z"/>
  <path fill="#2bbdf7" d="M170.667 905.994v-393.995l170.667 98.499v196.998l-170.667 98.499z"/>
  <path fill="#2b6def" d="M0.002 216.503l170.667-98.499 511.998 295.496-170.667 98.499-511.998-295.496z"/>
  <path fill="#2bbdf7" d="M512 511.999l170.667-98.499v196.998l-170.667 98.499v-196.998z"/>
  <path fill="#2891f9" d="M682.667 216.501v590.994l170.667 98.499v-590.993l-170.667-98.5z"/>
  <path fill="#2bbdf7" d="M1023.998 216.501l-170.667 98.5v590.993l170.667-98.499v-590.994z"/>
  <path fill="#2b6def" d="M853.333 118.004l170.667 98.499-170.667 98.499-170.667-98.499 170.667-98.499z"/>
</svg>
