<svg version="1.1" xmlns="http://www.w3.org/2000/svg" width="4864" height="1024" viewBox="0 0 4864 1024">
  <title>Sentia</title>
  <path fill="#00ffb2"
        d="M885.698 281.976c-0.017-16.458-8.905-30.836-22.14-38.612l-0.21-0.115-398.279-229.575c-6.401-3.737-14.092-5.943-22.299-5.943s-15.897 2.207-22.512 6.058l0.213-0.115-397.97 229.883c-13.527 7.796-22.5 22.155-22.556 38.615v459.568c0.089 16.35 8.963 30.609 22.139 38.303l0.211 0.114 398.175 230.089c6.389 3.786 14.082 6.023 22.299 6.023s15.909-2.237 22.504-6.135l-0.206 0.113 398.279-230.089c13.387-7.809 22.26-22.066 22.35-38.405v-0.013zM761.075 669.749c-0.15 16.305-9.006 30.508-22.139 38.199l-0.211 0.115-273.656 158.302c-6.389 3.786-14.082 6.023-22.299 6.023s-15.909-2.237-22.504-6.135l0.206 0.113-273.552-158.302c-13.456-7.872-22.35-22.253-22.35-38.711 0-0.005 0-0.010 0-0.016v0.001-117.516l295.902 170.662c6.414 3.756 14.122 5.972 22.35 5.972s15.936-2.218 22.562-6.087l-0.212 0.115 108.865-62.826v-143.677l-101.552 59.015c-6.438 3.792-14.184 6.032-22.453 6.032s-16.014-2.24-22.663-6.146l0.21 0.115-302.803-175.090v-45.73c0.017-16.458 8.905-30.836 22.14-38.612l0.21-0.115 273.347-157.89c6.418-3.736 14.127-5.941 22.35-5.941s15.931 2.206 22.565 6.057l-0.215-0.116 273.347 157.684c13.445 7.89 22.333 22.268 22.35 38.723v118.137l-124.623-72.096-171.073-98.566c-6.342-3.756-13.978-5.974-22.131-5.974-0.076 0-0.154 0-0.23 0.001h0.012c-0.038 0-0.083 0-0.129 0-8.218 0-15.919 2.218-22.536 6.088l0.211-0.115-108.35 62.724h-0.721v144.192l101.449-58.913c6.416-3.813 14.146-6.067 22.401-6.067s15.985 2.254 22.606 6.18l-0.205-0.113 178.798 102.994v-0.824l124.726 72.096z" />
  <path fill="#fff"
        d="M1196.534 396.299c0 31.722 27.706 50.158 76.422 56.029 28.941 2.677 50.776 5.252 82.395 8.548 93.519 9.269 165.306 44.905 165.306 144.192 0 84.353-66.534 145.634-198.985 145.634-152.946 0-211.551-77.039-229.986-144.192h94.24c12.565 29.456 49.952 68.594 135.746 68.594 71.272 0 108.761-27.087 108.761-64.578 0-44.802-32.958-59.324-81.057-65.299l-82.602-8.548c-93.622-9.269-159.435-53.351-159.435-137.806s75.803-133.892 187.141-133.892c146.973 0 201.045 70.551 215.464 129.875h-90.223c-13.183-23.791-48.82-54.69-125.241-54.69-63.959 0-97.536 21.731-97.536 55.926z" />
  <path fill="#fff"
        d="M1886.596 614.441l140.278-340.705h127.198v467.903h-85.691v-383.756l-145.531 357.905c-6.883 16.294-22.729 27.52-41.198 27.52s-34.315-11.227-41.088-27.228l-0.11-0.293-144.192-354.403v380.255h-81.674v-467.903h132.45z" />
  <path fill="#fff"
        d="M2602.818 645.443h-235.959l-42.845 96.197h-89.090l210.314-469.86h83.632l210.726 469.86h-94.24l-42.845-96.197zM2569.241 569.021l-84.353-189.097-84.353 189.097z" />
  <path fill="#fff"
        d="M2820.959 273.736h261.605c102.17 0 160.053 48.201 160.053 139.763 0 63.239-32.856 108.041-92.695 126.477l110.101 201.662h-93.622l-106.084-192.497h-151.093v192.497h-88.369v-467.903zM2909.226 352.218v119.886h166.027c50.776 0 76.422-18.436 76.422-58.604 0-42.845-25.646-61.282-76.422-61.282z" />
  <path fill="#fff"
        d="M3353.955 273.736h188.994c149.548 0 250.379 85.691 250.379 234.003s-100.007 233.899-250.379 233.899h-188.994zM3442.324 351.497v312.381h99.492c98.153 0 161.392-59.943 161.392-156.242s-63.239-156.139-161.392-156.139z" />
  <path fill="#fff"
        d="M3876.033 273.736h378.916v76.422h-290.65v106.805h173.339v77.039h-173.339v129.155h317.016v78.482h-405.282z" />
  <path fill="#fff"
        d="M4603.173 566.343l-151.608 175.090h-104.127l203.001-236.887-197.749-231.325h115.971l139.042 164.791 140.999-164.791h106.805l-195.689 226.587 204.237 241.213h-111.44l-149.548-175.090z" />
</svg>
