<!-- Generated by IcoMoon.io -->
<svg version="1.1" xmlns="http://www.w3.org/2000/svg" width="3507" height="1024" viewBox="0 0 3507 1024">
<title>Sentia Santa</title>
<path fill="#00ffb2" d="M638.428 474.573c0-11.878-5.939-22.271-16.332-28.211l-286.563-165.553c-9.651-5.939-22.271-5.939-31.922 0l-287.305 166.295c-9.651 5.197-16.332 16.332-16.332 27.469v331.107c0 11.136 5.939 22.271 16.332 27.469l287.305 165.553c9.651 5.939 22.271 5.939 31.922 0l287.305-165.553c9.651-5.939 16.332-16.332 16.332-27.469v-331.107zM548.599 753.711c0 11.136-5.939 22.271-16.332 27.469l-197.476 114.328c-9.651 5.939-22.271 5.939-31.922 0l-197.476-114.328c-9.651-5.939-16.332-16.332-16.332-28.211v-83.89l214.551 123.237c9.651 5.939 22.271 5.939 31.922 0l78.694-45.286v-103.935l-73.497 42.317c-9.651 5.939-22.271 5.939-32.666 0l-218.263-126.206v-32.666c0-11.878 5.939-22.271 16.332-28.211l196.734-113.586c9.651-5.939 22.271-5.939 31.922 0l196.734 113.586c9.651 5.939 16.332 16.332 16.332 28.211v85.375l-213.066-123.237c-5.197-2.97-10.393-4.454-16.332-4.454s-11.136 1.484-16.332 4.454l-77.951 45.286h-0.742v103.935l73.497-42.317c9.651-5.939 22.271-5.939 31.922 0l129.176 74.239v-0.742l89.829 51.967v32.666z"></path>
<path fill="#fff" d="M862.63 556.977c0 23.014 20.045 36.377 54.937 40.089 20.787 2.227 36.377 3.712 59.391 5.939 67.558 6.681 119.525 32.666 119.525 103.935 0 60.876-48.256 104.677-143.282 104.677-109.874 0-152.19-55.679-165.553-103.935h68.3c8.909 21.529 35.635 49.74 97.996 49.74 51.225 0 78.694-19.302 78.694-46.77 0-31.922-23.757-43.059-58.649-46.77l-59.391-5.939c-67.558-6.681-115.070-38.605-115.070-99.48s54.937-96.51 135.115-96.51c106.161 0 144.766 50.482 155.159 93.541h-65.33c-9.651-17.075-34.892-39.347-90.571-39.347-46.77 0-71.269 15.59-71.269 40.831v0z"></path>
<path fill="#fff" d="M1360.031 714.365l100.965-245.731h92.057v337.045h-61.618v-276.17l-104.677 258.352c-6.681 16.332-25.241 24.499-42.317 17.075-8.167-2.97-14.106-9.651-17.075-17.075l-103.935-255.382v273.942h-58.649v-337.788h95.768l99.48 245.731z"></path>
<path fill="#fff" d="M1875.993 736.636h-170.007l-31.18 69.042h-63.846l151.447-338.53h60.134l152.19 338.53h-67.558l-31.18-69.042zM1852.236 681.699l-60.876-136.599-60.876 136.599h121.752z"></path>
<path fill="#fff" d="M2033.38 468.633h188.567c73.497 0 115.070 34.892 115.070 100.965 0 45.286-23.757 77.951-66.815 91.314l79.436 145.508h-67.558l-76.466-138.827h-109.131v138.827h-63.846l0.742-337.788zM2097.225 525.055v86.117h119.525c36.377 0 54.937-13.363 54.937-42.317 0-31.18-18.56-43.801-54.937-43.801h-119.525z"></path>
<path fill="#fff" d="M2417.938 468.633h135.857c107.647 0 180.401 61.618 180.401 168.523s-72.011 168.523-180.401 168.523h-136.599v-337.045zM2481.784 524.313v224.944h72.011c70.527 0 116.555-43.059 116.555-112.844s-45.286-112.844-116.555-112.844h-72.011z"></path>
<path fill="#fff" d="M2794.33 468.633h273.2v54.937h-209.354v77.209h124.722v55.679h-124.722v92.799h228.656v56.421h-292.502v-337.045z"></path>
<path fill="#fff" d="M3318.457 679.472l-109.131 126.206h-74.981l146.251-170.749-142.539-167.038h83.89l100.223 118.783 101.707-118.783h77.209l-141.054 163.326 146.994 173.719h-80.178l-108.389-125.464z"></path>
<path fill="#b5292a" d="M187.054 213.993c18.56-115.813 74.981-216.035 210.096-188.567 53.452 11.136 94.284 41.574 121.752 83.89s40.089 161.842 40.089 161.842l-12.621 37.862-58.649-9.651-300.668-85.375z"></path>
<path fill="#181714" opacity="0.2" d="M422.393 213.251c0-48.256-58.649-138.827-107.647-147.736-20.787-3.712 41.574-5.197 99.48 51.225s73.497 79.436 99.48 129.176c25.983 49.74 35.635 54.195 35.635 54.195l-44.543 26.726-82.406-113.586z"></path>
<path fill="#181714" opacity="0.2" d="M515.191 287.49c0 0 8.909 0 11.878-17.075-3.712-6.681-8.167-14.848-13.363-24.499-24.499-47.513-40.089-70.527-91.314-121.752 1.484 1.484 35.635 43.059 41.574 63.103s1.484 37.119 1.484 37.119l49.74 63.103z"></path>
<path fill="#fff" d="M156.616 372.865c0 0 23.014-28.211 59.391-35.635 103.193-20.787 196.734-26.726 279.139 46.77 0 0 25.241-11.878 27.469-33.408 14.848-136.599-145.508-185.597-260.579-161.842-44.543 8.909-85.375 22.271-106.161 56.421s-36.377 118.783 0.742 127.691z"></path>
<path fill="#181714" opacity="0.2" d="M155.874 372.122c25.241-62.361 124.722-83.148 184.113-77.951 62.361 5.197 108.389 34.892 133.63 26.726 13.363-4.454 29.696-17.818 41.574-33.408 6.681 18.56 9.651 39.347 6.681 63.103-2.227 21.529-27.469 33.408-27.469 33.408-82.406-72.755-175.946-67.558-278.396-46.77-36.377 7.423-59.391 35.635-59.391 35.635s-0.742 0-0.742-0.742z"></path>
<path fill="#fff" d="M607.777 285.457c4.995 24.505-11.799 48.62-37.51 53.86s-50.602-10.378-55.596-34.883c-4.995-24.505 11.799-48.62 37.51-53.86s50.602 10.378 55.596 34.883z"></path>
<path fill="#181714" opacity="0.2" d="M576.81 251.113c15.59 4.454 28.211 17.075 31.922 33.408 5.197 24.499-11.878 48.256-37.862 54.195-19.302 3.712-38.605-3.712-48.998-18.56 7.423 2.227 15.59 2.97 23.757 0.742 25.983-5.197 43.059-29.696 37.862-54.195-1.484-5.197-3.712-10.393-6.681-15.59z"></path>
<path fill="#181714" opacity="0.2" d="M495.146 384c0 0 25.241-11.878 27.469-33.408 0-2.227 0.742-4.454 0.742-6.681-5.939 5.197-16.332 12.621-31.922 11.136-23.014-2.227-40.089-25.983-128.434-36.377s-163.326 23.757-163.326 23.757 0 0 0 0c5.197-2.227 11.136-3.712 17.075-5.197 102.45-20.787 195.991-26.726 278.396 46.77z"></path>
</svg>
