<svg version="1.1" xmlns="http://www.w3.org/2000/svg" width="4864" height="1024" viewBox="0 0 4864 1024">
<title>Sentia</title>
<path fill="#999" d="M135.135 368.177c0 40.902 35.724 64.674 98.539 72.244 37.317 3.452 65.471 6.772 106.241 11.022 120.584 11.951 213.146 57.901 213.146 185.922 0 108.765-85.789 187.781-256.572 187.781-197.209 0-272.775-99.334-296.545-185.922h121.513c16.201 37.981 64.408 88.445 175.032 88.445 91.898 0 140.237-34.926 140.237-83.267 0-57.768-42.496-76.493-104.515-84.197l-106.507-11.022c-120.717-11.951-205.576-68.791-205.576-177.688s97.741-172.641 241.3-172.641c189.508 0 259.228 90.969 277.82 167.461h-116.334c-16.998-30.676-62.949-70.518-161.486-70.518-82.469 0-125.763 28.020-125.763 72.111z" />
<path fill="#999" d="M1024.905 649.45l180.875-439.307h164.010v603.316h-110.49v-494.817l-187.648 461.484c-8.875 21.010-29.307 35.484-53.121 35.484s-44.246-14.476-52.979-35.108l-0.142-0.378-185.922-456.969v490.303h-105.311v-603.316h170.782z" />
<path fill="#999" d="M1948.405 689.424h-304.247l-55.245 124.037h-114.873l271.18-605.84h107.835l271.711 605.84h-121.513l-55.245-124.037zM1905.11 590.885l-108.765-243.823-108.765 243.823z" />
<path fill="#999" d="M2229.677 210.144h337.315c131.738 0 206.373 62.151 206.373 180.211 0 81.541-42.365 139.309-119.521 163.080l141.965 260.024h-120.717l-136.785-248.207h-194.82v248.207h-113.943v-603.316zM2343.489 311.339v154.582h214.076c65.471 0 98.539-23.771 98.539-75.564 0-55.245-33.068-79.017-98.539-79.017z" />
<path fill="#999" d="M2916.924 210.144h243.69c192.828 0 322.84 110.49 322.84 301.725s-128.949 301.59-322.84 301.59h-243.69zM3030.868 310.409v402.786h128.285c126.559 0 208.1-77.291 208.1-201.459s-81.541-201.326-208.1-201.326z" />
<path fill="#999" d="M3590.094 210.144h488.576v98.539h-374.765v137.715h223.504v99.334h-223.504v166.533h408.762v101.195h-522.573z" />
<path fill="#999" d="M4527.672 587.432l-195.484 225.762h-134.262l261.75-305.443-254.978-298.272h149.534l179.281 212.482 181.805-212.482h137.715l-252.322 292.162 263.344 311.021h-143.691l-192.828-225.762z" />
</svg>
