<svg version="1.1" xmlns="http://www.w3.org/2000/svg" width="32" height="32" viewBox="0 0 32 32">
  <title>Binance Smart Chain</title>
  <path fill="#f0b90b" d="M16 0c8.837 0 16 7.163 16 16s-7.163 16-16 16-16-7.163-16-16 7.163-16 16-16v0z"/>
  <path fill="#fff"
        d="M8.794 16l0.012 4.231 3.595 2.115v2.477l-5.699-3.342v-6.718l2.092 1.237zM8.794 11.769v2.465l-2.094-1.238v-2.465l2.094-1.238 2.104 1.238-2.104 1.238zM13.901 10.531l2.094-1.238 2.104 1.238-2.104 1.238-2.094-1.238z"/>
  <path fill="#fff"
        d="M10.306 19.354v-2.477l2.094 1.238v2.465l-2.094-1.227zM13.901 23.233l2.094 1.238 2.104-1.238v2.465l-2.104 1.238-2.094-1.238v-2.465zM21.101 10.531l2.094-1.238 2.104 1.238v2.465l-2.104 1.238v-2.465l-2.094-1.238zM23.195 20.231l0.012-4.231 2.094-1.238v6.718l-5.699 3.342v-2.477l3.594-2.114z"/>
  <path fill="#fff" d="M21.694 19.354l-2.094 1.227v-2.465l2.094-1.238v2.477z"/>
  <path fill="#fff"
        d="M21.694 12.646l0.012 2.477-3.605 2.115v4.241l-2.094 1.227-2.094-1.227v-4.241l-3.605-2.115v-2.477l2.103-1.238 3.583 2.126 3.605-2.126 2.104 1.238h-0.009zM10.306 8.417l5.688-3.354 5.699 3.354-2.094 1.238-3.605-2.126-3.595 2.126-2.094-1.238z"/>
</svg>
