<svg version="1.1" xmlns="http://www.w3.org/2000/svg" width="32" height="32" viewBox="0 0 32 32">
  <title>Polygon</title>
  <path fill="#8247e5"
        d="M24.23 10.527c-0.585-0.334-1.337-0.334-2.005 0l-4.679 2.757-3.175 1.755-4.595 2.757c-0.585 0.334-1.337 0.334-2.005 0l-3.593-2.172c-0.585-0.334-1.003-1.003-1.003-1.755v-4.178c0-0.668 0.334-1.337 1.003-1.755l3.593-2.089c0.585-0.334 1.337-0.334 2.005 0l3.593 2.172c0.585 0.334 1.003 1.003 1.003 1.755v2.757l3.175-1.838v-2.841c0-0.668-0.334-1.337-1.003-1.755l-6.684-3.927c-0.585-0.334-1.337-0.334-2.005 0l-6.851 4.010c-0.668 0.334-1.003 1.003-1.003 1.671v7.854c0 0.668 0.334 1.337 1.003 1.755l6.768 3.927c0.585 0.334 1.337 0.334 2.005 0l4.595-2.674 3.175-1.838 4.595-2.674c0.585-0.334 1.337-0.334 2.005 0l3.593 2.089c0.585 0.334 1.003 1.003 1.003 1.755v4.178c0 0.668-0.334 1.337-1.003 1.755l-3.509 2.089c-0.585 0.334-1.337 0.334-2.005 0l-3.593-2.089c-0.585-0.334-1.003-1.003-1.003-1.755v-2.674l-3.175 1.838v2.757c0 0.668 0.334 1.337 1.003 1.755l6.768 3.927c0.585 0.334 1.337 0.334 2.005 0l6.768-3.927c0.585-0.334 1.003-1.003 1.003-1.755v-7.937c0-0.668-0.334-1.337-1.003-1.755l-6.768-3.927z"/>
</svg>
